<?xml version="1.0" standalone="no"?>
<!DOCTYPE svg PUBLIC "-//W3C//DTD SVG 1.1//EN" "http://www.w3.org/Graphics/SVG/1.1/DTD/svg11.dtd" >
<svg xmlns="http://www.w3.org/2000/svg" xmlns:xlink="http://www.w3.org/1999/xlink" version="1.1">
<metadata>
Created by FontForge 20200427 at Sat Apr  6 08:03:50 2013
 By www
Copyright (c) 2009 Linotype Corp., www.linotype.com. All rights reserved. This font software may not be reproduced, modified, disclosed or transferred without the express written approval of Linotype Corp. Helvetica is a trademark of Linotype Corp. registered in the U.S. Patent and Trademark Office and may be registered in certain other jurisdictions in the name of Linotype Corp. or its licensee Linotype GmbH. This typeface is original artwork of Linotype Design Studio. The design may be protected in certain jurisdictions.
</metadata>
<defs>
<font id="HelveticaMonospacedW1G-Rg" horiz-adv-x="600" >
  <font-face 
    font-family="HelveticaMonospacedW1G-Rg"
    font-weight="400"
    font-stretch="normal"
    units-per-em="1000"
    panose-1="2 11 5 9 4 3 2 2 2 4"
    ascent="768"
    descent="-232"
    x-height="523"
    cap-height="718"
    bbox="-68 -329 646 946"
    underline-thickness="50"
    underline-position="-100"
    unicode-range="U+000D-FB04"
  />
<missing-glyph 
d="M44 0v718h512v-718h-512zM93 49h414v618h-414v-618zM267 234v17q0 56 14 80q14 31 46 59q29 29 38.5 46.5t9.5 37.5q0 35 -22.5 59.5t-53.5 24.5q-70 0 -81 -94l-50 8q7 69 43 103.5t92 34.5q55 0 90 -36.5t35 -95.5q0 -34 -13 -60t-51 -60q-36 -32 -44 -52
q-5 -23 -5 -72h-48zM266 117v67h56v-67h-56z" />
    <glyph glyph-name="IJ" unicode="IJ" 
d="M214 231h91v-49q0 -60 18 -89t60 -29q85 0 85 124v444h-206v86h303v-524q0 -101 -46.5 -157t-130.5 -56q-78 0 -126 46.5t-48 133.5v70zM138 0h-97v718h97v-718z" />
    <glyph glyph-name="ij" unicode="ij" 
d="M26 523h208v-450h160v-73h-408v73h160v377h-120v73zM234 618h-88v100h88v-100zM317 523h248v-600q0 -69 -43 -101t-131 -32q-41 0 -77 3v76h63q64 0 82 12t18 52v517h-160v73zM565 718v-100h-88v100h88z" />
    <glyph glyph-name="napostrophe" unicode="&#x22;n" 
d="M513 356v-356h-88v322q0 70 -24 103.5t-88 33.5q-67 0 -102.5 -49.5t-35.5 -124.5v-285h-88v523h83v-74h2q62 89 158 89q89 0 136 -47t47 -135zM-6 535v35q49 10 49 55v6h-43v87h86v-87q0 -43 -24.5 -68.5t-67.5 -27.5z" />
    <glyph glyph-name="f_f" unicode="ff" 
d="M594 450h-128v-450h-88v450h-182v-450h-88v450h-102v73h102v50q0 155 176 155q46 0 70 -2v-79q-23 2 -66 2q-52 0 -72 -23t-20 -78v-25h182v50q0 76 46 115.5t120 39.5q46 0 70 -2v-79q-46 2 -66 2q-45 0 -63.5 -23.5t-18.5 -77.5v-25h128v-73z" />
    <glyph glyph-name="fi" unicode="fi" 
d="M394 450h-148v-450h-88v450h-142v73h142v50q0 155 176 155q42 0 60 -2v-79q-34 2 -56 2q-52 0 -72 -23t-20 -78v-25h148v-73zM514 618h-88v100h88v-100zM426 523h88v-523h-88v523z" />
    <glyph glyph-name="fl" unicode="fl" 
d="M394 450h-148v-450h-88v450h-142v73h142v50q0 155 176 155q42 0 60 -2v-79q-34 2 -56 2q-52 0 -72 -23t-20 -78v-25h148v-73zM426 718h88v-718h-88v718z" />
    <glyph glyph-name="f_f_i" unicode="ffi" 
d="M453 450h-98v-450h-88v450h-131v-450h-88v450h-52v73h52v50q0 155 156 155q32 0 50 -2v-79q-38 2 -46 2q-42 0 -57 -23t-15 -78v-25h131v50q0 79 35 117t111 38q28 0 40 -2v-79q-26 2 -36 2q-40 0 -51 -21.5t-11 -79.5v-25h98v-73zM573 618h-88v100h88v-100zM485 523h88
v-523h-88v523z" />
    <glyph glyph-name="f_f_l" unicode="ffl" 
d="M453 450h-98v-450h-88v450h-131v-450h-88v450h-52v73h52v50q0 155 156 155q32 0 50 -2v-79q-16 2 -46 2q-42 0 -57 -23t-15 -78v-25h131v50q0 80 34 117.5t110 37.5q30 0 42 -2v-79q-26 2 -38 2q-40 0 -50 -21t-10 -80v-25h98v-73zM485 718h88v-718h-88v718z" />
    <glyph glyph-name=".notdef" 
d="M44 0v718h512v-718h-512zM93 49h414v618h-414v-618zM267 234v17q0 56 14 80q14 31 46 59q29 29 38.5 46.5t9.5 37.5q0 35 -22.5 59.5t-53.5 24.5q-70 0 -81 -94l-50 8q7 69 43 103.5t92 34.5q55 0 90 -36.5t35 -95.5q0 -34 -13 -60t-51 -60q-36 -32 -44 -52
q-5 -23 -5 -72h-48zM266 117v67h56v-67h-56z" />
    <glyph glyph-name=".null" horiz-adv-x="0" 
 />
    <glyph glyph-name="nonmarkingreturn" 
 />
    <glyph glyph-name="CR" unicode="&#xd;" 
 />
    <glyph glyph-name="space" unicode=" " 
 />
    <glyph glyph-name="exclam" unicode="!" 
d="M275 171l-24 310v237h97v-237l-24 -310h-49zM251 0v102h97v-102h-97z" />
    <glyph glyph-name="quotedbl" unicode="&#x22;" 
d="M334 463v255h73v-255h-73zM192 463v255h73v-255h-73z" />
    <glyph glyph-name="numbersign" unicode="#" 
d="M123 0l29 210h-103l9 63h103l19 142h-103l9 63h103l29 210h67l-29 -210h124l29 210h67l-29 -210h103l-9 -63h-103l-20 -142h103l-9 -63h-103l-29 -210h-66l29 210h-125l-29 -210h-66zM227 273h125l19 142h-124z" />
    <glyph glyph-name="dollar" unicode="$" 
d="M56 213h88q4 -80 31 -113.5t102 -45.5v265q-106 21 -156 67q-51 45 -51 130q0 82 58 138.5t145 56.5h4v64h47v-64q196 -15 203 -190h-85q-9 101 -118 116v-238q125 -30 172 -76q48 -45 48 -127q0 -100 -60 -156t-160 -59v-96h-47v96q-221 9 -221 232zM277 409v229h-2
q-50 0 -83.5 -33t-33.5 -83q0 -91 119 -113zM324 53q60 2 96 36.5t36 90.5q0 100 -132 128v-255z" />
    <glyph glyph-name="percent" unicode="%" 
d="M45 -20l451 729h58l-451 -729h-58zM166 411q-57 0 -91.5 36.5t-34.5 109.5q0 74 34.5 110t91.5 36q56 0 91 -36t35 -110q0 -73 -35 -109.5t-91 -36.5zM166 464q28 0 48 23.5t20 69.5t-20 69.5t-48 23.5q-30 0 -49 -23.5t-19 -69.5q0 -47 19 -70t49 -23zM308 133
q0 74 34.5 110t91.5 36q56 0 91 -36t35 -110q0 -73 -35 -109.5t-91 -36.5q-57 0 -91.5 36.5t-34.5 109.5zM366 133q0 -47 19 -70t49 -23q28 0 48 23.5t20 69.5t-20 69.5t-48 23.5q-30 0 -49 -23.5t-19 -69.5z" />
    <glyph glyph-name="ampersand" unicode="&#x26;" 
d="M30 180q0 42 11 74.5t35 58.5t49.5 44.5t66.5 41.5q-29 34 -41.5 51t-24 46t-11.5 62q0 71 48.5 115.5t121.5 44.5q71 0 116 -40t45 -108q0 -43 -18.5 -78.5t-42.5 -57.5t-67 -52l130 -156q21 45 30 112h83q-10 -92 -58 -183l128 -155h-115l-67 82q-42 -51 -91.5 -74
t-117.5 -23q-95 0 -152.5 52t-57.5 143zM272 439q90 57 90 124q0 38 -22 58.5t-56 20.5q-40 0 -62 -21t-22 -57q0 -54 72 -125zM117 180q0 -51 39.5 -85t90.5 -34q96 0 156 80l-163 198q-6 -4 -31.5 -21.5t-31.5 -22.5t-23 -20.5t-21.5 -26.5t-10 -29t-5.5 -39z" />
    <glyph glyph-name="quotesingle" unicode="'" 
d="M263 463v255h73v-255h-73z" />
    <glyph glyph-name="parenleft" unicode="(" 
d="M228 22q-44 109 -44 239q0 125 40 236q38 108 129 236h61q-90 -162 -112 -258q-24 -101 -24 -220q0 -117 32 -221q31 -102 105 -241h-59q-84 124 -128 229z" />
    <glyph glyph-name="parenright" unicode=")" 
d="M246 -207h-61q89 159 111 258q24 100 24 220q0 117 -32 222q-33 106 -104 240h58q82 -119 128 -229q45 -108 45 -239q0 -121 -40 -236q-41 -114 -129 -236z" />
    <glyph glyph-name="asterisk" unicode="*" 
d="M235 431l-49 34l67 92l-108 34l20 55l105 -38v110h60v-110l105 38l20 -55l-108 -34l67 -92l-49 -34l-65 94z" />
    <glyph glyph-name="plus" unicode="+" 
d="M47 216v73h217v216h73v-216h216v-73h-216v-216h-73v216h-217z" />
    <glyph glyph-name="comma" unicode="," 
d="M248 0v106h104v-98q0 -134 -104 -155v46q53 6 53 101h-53z" />
    <glyph glyph-name="hyphen" unicode="-" 
d="M177 232v90h245v-90h-245z" />
    <glyph glyph-name="period" unicode="." 
d="M248 0v106h104v-106h-104z" />
    <glyph glyph-name="slash" unicode="/" 
d="M144 -19l246 756h66l-245 -756h-67z" />
    <glyph glyph-name="zero" unicode="0" 
d="M300 -19q-69 0 -118 31t-75 85t-37 114t-11 131q0 57 6.5 106t23.5 97t43.5 82t69.5 55t98 21q68 0 117 -30.5t75 -84.5t37.5 -114t11.5 -132t-11.5 -132.5t-37.5 -114t-75 -84t-117 -30.5zM300 60q147 0 147 282t-147 282q-71 0 -109 -71t-38 -211q0 -137 37.5 -209.5
t109.5 -72.5z" />
    <glyph glyph-name="one" unicode="1" 
d="M118 0v83h167v416h-164v70q86 3 128 27q42 25 61 107h69v-620h151v-83h-412z" />
    <glyph glyph-name="two" unicode="2" 
d="M540 0h-481q3 97 43 165q39 66 122 114l126 73q53 31 74.5 60.5t21.5 84.5q0 57 -39.5 92t-99.5 35q-72 0 -106.5 -47.5t-35.5 -125.5h-88q-2 120 61.5 186t181.5 66q95 0 157.5 -58t62.5 -152q0 -70 -34.5 -120.5t-105.5 -88.5l-121 -66q-108 -59 -121 -135h382v-83z
" />
    <glyph glyph-name="three" unicode="3" 
d="M56 215h91q3 -155 150 -155q65 0 109 36.5t44 99.5q0 129 -164 129q-27 0 -40 -1v76q15 -2 46 -2q64 0 99 29t35 86q0 52 -37 81.5t-93 29.5q-132 0 -137 -151h-86q0 111 58 170.5t169 59.5q93 0 155 -48.5t62 -136.5q0 -108 -90 -145v-2q117 -41 117 -164
q0 -107 -70 -166.5t-183 -59.5q-225 0 -235 234z" />
    <glyph glyph-name="four" unicode="4" 
d="M51 171v86l322 446h73v-456h103v-76h-103v-171h-88v171h-307zM132 247h226v319h-2z" />
    <glyph glyph-name="five" unicode="5" 
d="M59 174h91q14 -117 149 -117q66 0 107 46t41 114q0 70 -43 113.5t-113 43.5q-79 0 -130 -67l-76 4l53 376h364v-85h-298l-30 -193q59 44 136 44q96 0 163.5 -64.5t67.5 -160.5q0 -112 -68 -180t-182 -68q-102 0 -162 50.5t-70 143.5z" />
    <glyph glyph-name="six" unicode="6" 
d="M309 -19q-122 0 -185.5 87t-63.5 259q0 73 13 136t41.5 119t81 88.5t124.5 32.5q84 0 143.5 -51.5t61.5 -135.5h-86q-19 108 -121 108q-44 0 -78 -25t-52.5 -65.5t-27.5 -83.5t-9 -86l2 -2q56 86 167 86q96 0 158 -62.5t62 -160.5q0 -106 -63 -175t-168 -69zM163 216
q0 -68 40.5 -112t107.5 -44q65 0 101.5 46t36.5 115q0 65 -38.5 106.5t-103.5 41.5q-67 0 -105.5 -42t-38.5 -111z" />
    <glyph glyph-name="seven" unicode="7" 
d="M254 0h-97q15 134 97 305q86 177 190 297h-387v86h486v-77q-101 -102 -183 -276q-84 -177 -106 -335z" />
    <glyph glyph-name="eight" unicode="8" 
d="M60 204q0 119 119 169q-95 38 -95 137q0 89 59.5 141t153.5 52q92 0 154 -48t63 -133q0 -106 -90 -148q56 -24 85.5 -68.5t29.5 -102.5q0 -103 -66 -162.5t-172 -59.5q-107 0 -174 57.5t-67 165.5zM298 406q53 0 89 30.5t36 82.5q0 51 -37.5 78t-93.5 27q-53 0 -85 -29.5
t-32 -80.5q0 -48 36.5 -78t86.5 -30zM154 200q0 -66 40.5 -103t109.5 -37q64 0 102.5 39t38.5 102q0 58 -41.5 93.5t-104.5 35.5q-62 0 -103.5 -35.5t-41.5 -94.5z" />
    <glyph glyph-name="nine" unicode="9" 
d="M72 169h88q5 -54 35.5 -84.5t83.5 -30.5q104 0 142 123q12 40 27 140l-2 2q-57 -84 -161 -84q-101 0 -161 62.5t-60 164.5q0 104 61.5 172.5t164.5 68.5q246 0 246 -326q0 -72 -12.5 -137.5t-39.5 -126t-79.5 -96.5t-123.5 -36q-91 0 -149.5 51t-59.5 137zM298 314
q66 0 100.5 44t34.5 116q0 68 -37 109t-105 41q-64 0 -100 -45t-36 -113q0 -152 143 -152z" />
    <glyph glyph-name="colon" unicode=":" 
d="M248 410v106h104v-106h-104zM248 0v106h104v-106h-104z" />
    <glyph glyph-name="semicolon" unicode=";" 
d="M248 410v106h104v-106h-104zM248 0v106h104v-98q0 -134 -104 -155v46q53 6 53 101h-53z" />
    <glyph glyph-name="less" unicode="&#x3c;" 
d="M47 218v70l506 207v-80l-408 -162l408 -162v-80z" />
    <glyph glyph-name="equal" unicode="=" 
d="M47 317v73h506v-73h-506zM47 115v73h506v-73h-506z" />
    <glyph glyph-name="greater" unicode="&#x3e;" 
d="M47 11v80l408 162l-408 162v80l506 -207v-70z" />
    <glyph glyph-name="question" unicode="?" 
d="M341 183h-88q0 67 14 109q15 40 81 106q7 7 21 20.5t19 18.5t14 15.5t12 17.5l7.5 17.5t5.5 22.5t1 27q0 51 -34 82.5t-87 31.5q-133 0 -133 -158h-88q-4 109 58 171.5t166 62.5q92 0 152 -53.5t60 -142.5q0 -35 -12 -63t-26 -44.5t-50 -51.5q-67 -63 -81 -97
q-12 -30 -12 -92zM251 0v102h97v-102h-97z" />
    <glyph glyph-name="at" unicode="@" 
d="M34 255q0 164 78.5 276.5t201.5 112.5q105 0 179 -88t74 -224q0 -123 -46.5 -206t-127.5 -83q-41 0 -47 62h-2q-25 -34 -43 -48t-40 -14q-47 0 -74 46.5t-27 113.5q0 107 43.5 191.5t117.5 84.5q34 0 51.5 -18.5t31.5 -59.5l15 62h52l-39 -176q-29 -131 -29 -152
q0 -27 16 -27q41 0 64.5 68t23.5 148q0 115 -54.5 186.5t-138.5 71.5q-98 0 -156.5 -92t-58.5 -230q0 -142 59 -225t162 -83q96 0 171 104h61q-88 -166 -234 -166q-127 0 -205.5 99t-78.5 266zM277 115q26 0 48.5 32.5t34.5 76t12 83.5q0 100 -49 100q-30 0 -51.5 -33
t-30.5 -75.5t-9 -86.5q0 -97 45 -97z" />
    <glyph glyph-name="A" unicode="A" 
d="M20 0l230 718h110l220 -718h-106l-62 209h-227l-65 -209h-100zM211 295h177l-86 316h-2z" />
    <glyph glyph-name="B" unicode="B" 
d="M84 0v718h255q76 0 129.5 -49t53.5 -132q0 -47 -26 -87t-70 -63q130 -52 130 -175q0 -98 -66 -155t-158 -57h-248zM180 414h116q129 0 129 116q0 105 -128 105h-117v-221zM180 83h147q62 0 97 35.5t35 95.5t-38.5 90.5t-109.5 30.5h-131v-252z" />
    <glyph glyph-name="C" unicode="C" 
d="M315 -19q-87 0 -147.5 52t-88 136.5t-27.5 193.5q0 166 72 270t203 104q93 0 156.5 -61.5t78.5 -173.5h-94q-11 73 -47.5 111t-93.5 38q-85 0 -130 -81.5t-45 -203.5q0 -299 178 -299q57 0 95 54.5t50 142.5h94q-13 -131 -82 -207t-172 -76z" />
    <glyph glyph-name="D" unicode="D" 
d="M84 0v718h211q84 0 144 -48t88.5 -125.5t28.5 -175.5q0 -103 -27.5 -184.5t-88.5 -133t-149 -51.5h-207zM181 83h108q59 0 98 41t54.5 101.5t15.5 137.5q0 121 -43 196.5t-133 75.5h-100v-552z" />
    <glyph glyph-name="E" unicode="E" 
d="M95 0v718h433v-86h-336v-220h303v-86h-303v-240h343v-86h-440z" />
    <glyph glyph-name="F" unicode="F" 
d="M91 0v718h437v-86h-340v-220h292v-86h-292v-326h-97z" />
    <glyph glyph-name="G" unicode="G" 
d="M315 -19q-127 0 -195 102t-68 282q0 157 73.5 264.5t196.5 107.5q79 0 142 -65t72 -172h-94q-11 71 -43 111t-82 40q-54 0 -92 -42t-55.5 -106t-17.5 -143q0 -296 169 -296q62 0 99 60.5t37 174.5v2h-134v83h225v-384h-63l-23 93q-55 -112 -147 -112z" />
    <glyph glyph-name="H" unicode="H" 
d="M86 0v718h96v-297h235v297h97v-718h-97v335h-235v-335h-96z" />
    <glyph glyph-name="I" unicode="I" 
d="M118 0v86h133v546h-133v86h363v-86h-133v-546h133v-86h-363z" />
    <glyph glyph-name="J" unicode="J" 
d="M64 161v70h91v-49q0 -60 28 -89t90 -29q125 0 125 124v444h-286v86h383v-524q0 -101 -56.5 -157t-160.5 -56q-96 0 -155 46.5t-59 133.5z" />
    <glyph glyph-name="K" unicode="K" 
d="M87 0v718h96v-334l268 334h114l-274 -326l282 -392h-115l-230 317l-45 -54v-263h-96z" />
    <glyph glyph-name="L" unicode="L" 
d="M99 0v718h96v-632h335v-86h-431z" />
    <glyph glyph-name="M" unicode="M" 
d="M36 0v718h149l114 -567h3l113 567h149v-718h-94v424q0 91 2 139h-3l-121 -563h-96l-121 562h-3q2 -46 2 -138v-424h-94z" />
    <glyph glyph-name="N" unicode="N" 
d="M85 0v718h114l219 -540h2v540h94v-718h-108l-226 540h-2v-540h-93z" />
    <glyph glyph-name="O" unicode="O" 
d="M560 359q0 -162 -71 -270t-189 -108q-121 0 -190.5 107t-69.5 271t70 271t190 107q119 0 189.5 -107.5t70.5 -270.5zM460 359q0 123 -43 207.5t-117 84.5q-75 0 -117.5 -84.5t-42.5 -207.5q0 -124 42 -208t118 -84q73 0 116.5 84t43.5 208z" />
    <glyph glyph-name="P" unicode="P" 
d="M189 303v-303h-97v718h253q93 0 153 -55t60 -147q0 -96 -58 -154.5t-155 -58.5h-156zM189 635v-249h123q146 0 146 129q0 120 -142 120h-127z" />
    <glyph glyph-name="Q" unicode="Q" 
d="M560 359q0 -172 -78 -280l82 -77l-54 -58l-84 78q-57 -41 -126 -41q-121 0 -190.5 107t-69.5 271t70 271t190 107q119 0 189.5 -107.5t70.5 -270.5zM291 148l54 60l68 -64q47 83 47 215q0 123 -43 207.5t-117 84.5q-75 0 -117.5 -84.5t-42.5 -207.5q0 -124 42 -208
t118 -84q31 0 59 17z" />
    <glyph glyph-name="R" unicode="R" 
d="M178 308v-308h-97v718h242q105 0 160 -49.5t55 -143.5q0 -118 -99 -172q47 -20 65.5 -49t20.5 -86l6 -134q2 -31 8 -44t29 -24v-16h-120q-17 49 -17 180q0 27 -3.5 46t-14 39.5t-33 31.5t-57.5 11h-145zM178 635v-244h135q126 0 126 124q0 120 -110 120h-151z" />
    <glyph glyph-name="S" unicode="S" 
d="M538 508h-91q-3 70 -44.5 108t-103.5 38q-65 0 -99.5 -32.5t-34.5 -93.5q0 -33 19 -54t66 -37l145 -47q163 -52 163 -192q0 -110 -71.5 -163.5t-179.5 -53.5q-117 0 -189.5 62t-70.5 189h91q0 -83 46.5 -125.5t121.5 -42.5t116.5 31.5t41.5 89.5q0 52 -28.5 80t-86.5 45
l-125 36q-153 45 -153 169q0 104 60.5 163t156.5 59q240 0 250 -229z" />
    <glyph glyph-name="T" unicode="T" 
d="M250 0v632h-212v86h523v-86h-214v-632h-97z" />
    <glyph glyph-name="U" unicode="U" 
d="M434 718h98v-466q0 -126 -66 -198.5t-173 -72.5q-104 0 -165 68t-61 190v479h96v-452q0 -93 33.5 -146t98.5 -53t102 51t37 146v454z" />
    <glyph glyph-name="V" unicode="V" 
d="M302 126l163 592h109l-223 -718h-102l-222 718h108l165 -592h2z" />
    <glyph glyph-name="W" unicode="W" 
d="M300 585l-86 -585h-121l-89 718h108l50 -571h2l75 571h132l73 -571h2l52 571h99l-90 -718h-121l-84 585h-2z" />
    <glyph glyph-name="X" unicode="X" 
d="M363 368l212 -368h-120l-153 295l-159 -295h-117l217 368l-201 350h122l142 -275l142 275h116z" />
    <glyph glyph-name="Y" unicode="Y" 
d="M349 289v-289h-97v289l-231 429h113l166 -345l166 345h114z" />
    <glyph glyph-name="Z" unicode="Z" 
d="M537 86v-86h-485v81l360 551h-327v86h452v-84l-362 -548h362z" />
    <glyph glyph-name="bracketleft" unicode="[" 
d="M285 651v-776h108v-71h-187v918h187v-71h-108z" />
    <glyph glyph-name="backslash" unicode="\" 
d="M389 -19l-245 756h66l246 -756h-67z" />
    <glyph glyph-name="bracketright" unicode="]" 
d="M314 -125v776h-108v71h187v-918h-187v71h108z" />
    <glyph glyph-name="asciicircum" unicode="^" 
d="M548 269h-77l-171 339l-171 -339h-78l213 419h72z" />
    <glyph glyph-name="underscore" unicode="_" 
d="M600 -123h-600v49h600v-49z" />
    <glyph glyph-name="grave" unicode="`" 
d="M281 593l-109 141h104l72 -141h-67z" />
    <glyph glyph-name="a" unicode="a" 
d="M180 364h-82q6 174 216 174q80 0 137.5 -36.5t57.5 -109.5v-301q0 -31 28 -31q5 0 29 4v-64q-27 -10 -50 -10q-45 0 -66.5 19.5t-23.5 60.5q-75 -85 -189 -85q-71 0 -117.5 41t-46.5 110t39 111.5t114 51.5l155 19q42 4 42 62q0 85 -123 85q-56 0 -85 -24.5t-35 -76.5z
M420 181v86q-9 -9 -39 -17q-40 -8 -106 -16q-112 -15 -112 -85q0 -91 96 -91q58 0 109.5 34.5t51.5 88.5z" />
    <glyph glyph-name="b" unicode="b" 
d="M173 0h-83v718h88v-261h2q56 81 151 81q103 0 160.5 -76t57.5 -185q0 -124 -58 -208t-172 -84q-96 0 -144 80h-2v-65zM458 263q0 95 -31 143t-112 53q-141 -2 -141 -209q0 -86 35 -137.5t108 -51.5t107 58.5t34 143.5z" />
    <glyph glyph-name="c" unicode="c" 
d="M533 347h-85q-24 112 -134 112q-79 0 -116.5 -56.5t-37.5 -140.5q0 -201 153 -201q51 0 88.5 36t46.5 88h85q-15 -96 -73 -148t-149 -52q-114 0 -179.5 74t-65.5 188q0 129 67 210t194 81q89 0 144.5 -52.5t61.5 -138.5z" />
    <glyph glyph-name="d" unicode="d" 
d="M532 718v-718h-83v72h-2q-49 -87 -151 -87q-76 0 -129.5 43t-76 107t-22.5 142q0 111 57 186t161 75q97 0 156 -89h2v269h88zM159 263q0 -55 12.5 -98t45.5 -73.5t83 -30.5q69 0 106 50t37 126q0 222 -141 222q-80 0 -111 -50.5t-32 -145.5z" />
    <glyph glyph-name="e" unicode="e" 
d="M462 164h88q-17 -82 -82.5 -131t-157.5 -49q-117 0 -183 73.5t-66 189.5q0 131 66 211t195 80q121 0 178 -86t57 -219h-402q0 -83 41 -127.5t121 -44.5q50 0 94.5 30t50.5 73zM155 303h311q-8 77 -45 116.5t-111 39.5q-68 0 -111 -45.5t-44 -110.5z" />
    <glyph glyph-name="f" unicode="f" 
d="M544 450h-208v-450h-88v450h-172v73h172v50q0 155 196 155q70 0 100 -2v-79q-54 2 -96 2q-63 0 -87.5 -23.5t-24.5 -77.5v-25h208v-73z" />
    <glyph glyph-name="g" unicode="g" 
d="M529 523v-493q0 -250 -243 -250q-88 0 -140.5 40.5t-59.5 115.5h88q15 -83 118 -83q75 0 112 40t37 128v37h-2q-49 -73 -139 -73q-78 0 -131.5 42.5t-76 106.5t-22.5 143q0 110 57 185.5t161 75.5q99 0 156 -89h2v74h83zM161 263q0 -85 34 -143.5t107 -58.5
q70 0 106.5 49.5t36.5 126.5q0 222 -141 222q-143 0 -143 -196z" />
    <glyph glyph-name="h" unicode="h" 
d="M513 356v-356h-88v342q0 63 -24 90t-80 27q-69 0 -107.5 -44.5t-38.5 -129.5v-285h-88v718h88v-265h2q60 85 153 85q88 0 135.5 -45.5t47.5 -136.5z" />
    <glyph glyph-name="i" unicode="i" 
d="M344 618h-88v100h88v-100zM96 523h248v-450h200v-73h-488v73h200v377h-160v73z" />
    <glyph glyph-name="j" unicode="j" 
d="M405 718v-100h-88v100h88zM157 523h248v-600q0 -69 -43 -101t-131 -32q-41 0 -77 3v76h63q64 0 82 12t18 52v517h-160v73z" />
    <glyph glyph-name="k" unicode="k" 
d="M325 328l212 -328h-113l-163 264l-73 -66v-198h-85v718h85v-416l225 221h112z" />
    <glyph glyph-name="l" unicode="l" 
d="M106 718h248v-645h200v-73h-488v73h200v572h-160v73z" />
    <glyph glyph-name="m" unicode="m" 
d="M28 0v523h83v-74h2q42 89 118 89q69 0 99 -85q31 48 55 66.5t65 18.5q56 0 89 -48.5t33 -127.5v-362h-88v338q0 121 -57 121q-36 0 -59.5 -43t-23.5 -97v-319h-88v362q0 97 -42 97q-49 0 -73.5 -49.5t-24.5 -124.5v-285h-88z" />
    <glyph glyph-name="n" unicode="n" 
d="M513 356v-356h-88v322q0 70 -24 103.5t-88 33.5q-67 0 -102.5 -49.5t-35.5 -124.5v-285h-88v523h83v-74h2q62 89 158 89q89 0 136 -47t47 -135z" />
    <glyph glyph-name="o" unicode="o" 
d="M67 262q0 116 65 196t177 80t177.5 -80t65.5 -196t-65 -196.5t-178 -80.5q-111 0 -176.5 80t-65.5 197zM157 262q0 -83 38 -141.5t114 -58.5q75 0 114 59.5t39 140.5q0 82 -38.5 140.5t-114.5 58.5q-75 0 -113.5 -58t-38.5 -141z" />
    <glyph glyph-name="p" unicode="p" 
d="M90 -207v730h83v-74h2q56 89 156 89q104 0 161 -75.5t57 -185.5q0 -124 -58 -208t-172 -84q-91 0 -139 70h-2v-262h-88zM174 237q0 -76 37 -126t106 -50q74 0 107.5 58.5t33.5 143.5q0 101 -35 148.5t-108 47.5q-141 0 -141 -222z" />
    <glyph glyph-name="q" unicode="q" 
d="M529 523v-730h-88v262h-2q-51 -70 -139 -70q-114 0 -172 84t-58 208q0 109 57.5 185t160.5 76q99 0 156 -89h2v74h83zM445 237q0 222 -141 222q-79 0 -111 -51t-32 -145q0 -85 34 -143.5t107 -58.5q67 0 105 50t38 126z" />
    <glyph glyph-name="r" unicode="r" 
d="M240 264v-264h-88v523h83v-87h2q75 102 197 102q36 0 73 -3v-91h-73q-85 0 -139.5 -51.5t-54.5 -128.5z" />
    <glyph glyph-name="s" unicode="s" 
d="M498 374h-85q-4 88 -124 88q-41 0 -72.5 -16t-31.5 -48q0 -18 7.5 -32t17.5 -22t30.5 -15.5t36 -11.5t45 -10t46.5 -11q74 -20 110.5 -51.5t36.5 -96.5q0 -78 -59.5 -120.5t-147.5 -42.5q-221 0 -224 183h85q4 -107 138 -107q56 0 88 19.5t32 53.5q0 11 -1.5 19.5
t-4 15.5t-8.5 12.5t-11 10t-17 9t-21 8t-27 8t-31.5 7.5t-39 9t-45.5 11q-121 31 -121 137q0 75 57 116t142 41q86 0 139.5 -42t59.5 -122z" />
    <glyph glyph-name="t" unicode="t" 
d="M531 450h-204v-300q0 -42 25 -61.5t85 -19.5h94v-69q-75 -7 -126 -7q-87 0 -126.5 35.5t-39.5 116.5v305h-171v73h171v146h88v-146h204v-73z" />
    <glyph glyph-name="u" unicode="u" 
d="M89 147v376h88v-347q0 -115 101 -115q70 0 107 49.5t37 124.5v288h88v-523h-83v76l-2 2q-49 -93 -166 -93q-76 0 -123 42.5t-47 119.5z" />
    <glyph glyph-name="v" unicode="v" 
d="M298 97l158 426h96l-209 -523h-94l-201 523h102l146 -426h2z" />
    <glyph glyph-name="w" unicode="w" 
d="M296 385l-72 -385h-100l-111 523h95l70 -391h2l61 391h119l62 -391h2l76 391h87l-111 -523h-102l-76 385h-2z" />
    <glyph glyph-name="x" unicode="x" 
d="M355 269l184 -269h-113l-129 197l-126 -197h-111l183 269l-174 254h112l121 -184l122 184h107z" />
    <glyph glyph-name="y" unicode="y" 
d="M302 97l160 426h96l-207 -513q-50 -134 -83 -181q-31 -43 -100 -43q-35 0 -59 8v80q25 -9 55 -9q31 0 47 21q18 25 44 99l-214 538h99l160 -426h2z" />
    <glyph glyph-name="z" unicode="z" 
d="M499 451l-292 -378h302v-73h-419v69l296 381h-271v73h384v-72z" />
    <glyph glyph-name="braceleft" unicode="{" 
d="M175 234v60q40 3 60.5 41t20.5 86v172q0 51 27.5 90t74.5 39h67v-65h-44q-46 0 -46 -82v-165q0 -48 -23 -89.5t-65 -55.5v-2q42 -15 65 -55t23 -93v-164q0 -82 46 -82h44v-65h-67q-48 0 -75 38.5t-27 90.5v171q0 51 -19.5 88.5t-61.5 41.5z" />
    <glyph glyph-name="bar" unicode="|" 
d="M263 -19v756h73v-756h-73z" />
    <glyph glyph-name="braceright" unicode="}" 
d="M425 294v-60q-42 -4 -61.5 -41.5t-19.5 -88.5v-171q0 -51 -27.5 -90t-74.5 -39h-67v65h44q46 0 46 82v164q0 53 23 93t65 55v2q-42 14 -65 55.5t-23 89.5v165q0 82 -46 82h-44v65h67q47 0 74.5 -39t27.5 -90v-172q0 -48 20.5 -86t60.5 -41z" />
    <glyph glyph-name="asciitilde" unicode="~" 
d="M526 323l40 -57q-48 -90 -143 -90q-51 0 -123 33q-8 4 -27 12.5t-26 11.5t-21 8t-26.5 6.5t-27.5 1.5q-64 0 -98 -75l-41 57q49 90 143 90q48 0 123 -33q9 -4 27.5 -12.5t26 -11.5t21 -7.5t26 -6t28.5 -1.5q60 0 98 74z" />
    <glyph glyph-name="uni00A0" unicode="&#xa0;" 
 />
    <glyph glyph-name="exclamdown" unicode="&#xa1;" 
d="M252 421v102h96v-102h-96zM276 352h49l23 -310v-237h-96v237z" />
    <glyph glyph-name="cent" unicode="&#xa2;" 
d="M533 347h-85q-18 80 -77 102l-96 -385q17 -3 38 -3q51 0 88.5 36t46.5 88h85q-15 -96 -73 -148t-149 -52q-27 0 -55 5l-25 -103h-41l29 113q-73 27 -113 93t-40 154q0 129 67 210t194 81q10 0 28 -2l22 87h38l-24 -94q62 -17 99.5 -65t42.5 -117zM160 262q0 -142 78 -185
l97 381q-3 0 -10 0.5t-11 0.5q-79 0 -116.5 -56.5t-37.5 -140.5z" />
    <glyph glyph-name="sterling" unicode="&#xa3;" 
d="M218 380h167v-63h-138q9 -31 9 -66q0 -97 -119 -185v-1q65 37 131 37q33 0 91 -17.5t77 -17.5q39 0 76 31l41 -66q-60 -48 -124 -48q-32 0 -102.5 22.5t-109.5 22.5q-56 0 -117 -40l-49 69q122 85 122 187q0 33 -19 72h-107v63h69q-43 77 -43 134q0 98 70.5 151t176.5 53
q96 0 155.5 -59.5t59.5 -153.5v-15h-88v9q0 62 -38 102.5t-99 40.5q-58 0 -100.5 -34.5t-42.5 -88.5q0 -57 51 -139z" />
    <glyph glyph-name="currency" unicode="&#xa4;" 
d="M502 603l48 -48l-55 -54q50 -67 50 -150q0 -81 -50 -151l54 -56l-45 -45l-55 58q-67 -55 -149 -55t-149 55l-55 -58l-45 45l54 56q-50 70 -50 151q0 83 50 150l-55 54l48 48l57 -56q61 51 145 51q82 0 145 -51zM128 351q0 -71 51 -125t121 -54t121 54.5t51 124.5
t-51 123.5t-121 53.5q-68 0 -120 -53.5t-52 -123.5z" />
    <glyph glyph-name="yen" unicode="&#xa5;" 
d="M64 327v57h154l-193 314h100l175 -305l175 305h100l-193 -314h155v-57h-193v-85h193v-57h-193v-185h-88v185h-192v57h192v85h-192z" />
    <glyph glyph-name="brokenbar" unicode="&#xa6;" 
d="M263 460v277h73v-277h-73zM263 -19v294h73v-294h-73z" />
    <glyph glyph-name="section" unicode="&#xa7;" 
d="M482 554h-85q0 107 -99 107q-39 0 -65.5 -21.5t-26.5 -59.5q0 -27 18 -47.5t55 -42.5l146 -86q60 -36 84.5 -70t24.5 -90q0 -100 -103 -160q52 -49 52 -114q0 -69 -55 -115t-126 -46q-94 0 -145.5 49t-51.5 139h88q0 -55 26 -83.5t73 -28.5q48 0 75.5 22t27.5 61
q0 25 -13 42t-42 37l-210 140q-65 44 -65 122q0 109 100 158q-47 45 -47 100q0 75 50.5 122.5t129.5 47.5q89 0 136.5 -48t47.5 -135zM389 321l-174 107q-67 -34 -67 -97q0 -55 45 -85l189 -122q69 39 69 101q0 57 -62 96z" />
    <glyph glyph-name="dieresis" unicode="&#xa8;" 
d="M426 718v-102h-90v102h90zM264 718v-102h-90v102h90z" />
    <glyph glyph-name="copyright" unicode="&#xa9;" 
d="M301 -19q-144 0 -222.5 96.5t-78.5 282.5t78.5 281.5t222.5 95.5q140 0 219.5 -96.5t79.5 -280.5q0 -182 -80 -280.5t-219 -98.5zM76 360q0 -162 59.5 -239t165.5 -77q102 0 162.5 78t60.5 238q0 161 -60 237.5t-163 76.5q-105 0 -165 -76.5t-60 -237.5zM382 289h68
q-11 -71 -48.5 -116t-87.5 -45q-77 0 -125 66.5t-48 166.5t46.5 165.5t122.5 65.5q53 0 91 -42t48 -115h-67q-6 40 -25.5 65.5t-45.5 25.5q-45 0 -69.5 -46t-24.5 -118q0 -70 26 -119t71 -49q26 0 44.5 25.5t23.5 69.5z" />
    <glyph glyph-name="ordfeminine" unicode="&#xaa;" 
d="M461 454v-44q-18 -5 -32 -5q-60 0 -60 51q-49 -51 -123 -51q-45 0 -76 24.5t-31 66.5q0 43 28.5 69.5t83.5 32.5l88 10q24 3 24 38q0 17 -19 28t-57 11q-72 0 -77 -53h-54q3 105 141 105q51 0 89 -21.5t38 -66.5v-180q0 -17 18 -17q5 0 19 2zM260 457q38 0 70.5 19.5
t32.5 54.5v39q-11 -10 -92 -20q-42 -6 -56 -17q-13 -12 -13 -28q0 -48 58 -48zM150 352h296v-48h-296v48z" />
    <glyph glyph-name="guillemotleft" unicode="&#xab;" 
d="M491 196v-88l-157 123v92l157 123v-88l-105 -81zM266 196v-88l-157 123v92l157 123v-88l-105 -81z" />
    <glyph glyph-name="logicalnot" unicode="&#xac;" 
d="M553 289v-289h-73v216h-433v73h506z" />
    <glyph glyph-name="uni00AD" unicode="&#xad;" 
d="M177 232v90h245v-90h-245z" />
    <glyph glyph-name="registered" unicode="&#xae;" 
d="M301 -19q-144 0 -222.5 96.5t-78.5 282.5t78.5 281.5t222.5 95.5q140 0 219.5 -96.5t79.5 -280.5q0 -182 -80 -280.5t-219 -98.5zM76 360q0 -162 59.5 -239t165.5 -77q102 0 162.5 78t60.5 238q0 161 -60 237.5t-163 76.5q-105 0 -165 -76.5t-60 -237.5zM246 330v-189
h-66v436h120q140 0 140 -124q0 -103 -100 -120l111 -192h-74l-105 189h-26zM246 386h41q43 0 63.5 16t20.5 55q0 64 -85 64h-40v-135z" />
    <glyph glyph-name="macron" unicode="&#xaf;" 
d="M457 679v-57h-314v57h314z" />
    <glyph glyph-name="degree" unicode="&#xb0;" 
d="M446 557q0 -62 -41.5 -104t-104.5 -42q-62 0 -104 42.5t-42 103.5q0 63 42 104.5t104 41.5q63 0 104.5 -41.5t41.5 -104.5zM300 660q-39 0 -68.5 -31.5t-29.5 -71.5t29.5 -71.5t68.5 -31.5t68.5 31.5t29.5 71.5t-29.5 71.5t-68.5 31.5z" />
    <glyph glyph-name="plusminus" unicode="&#xb1;" 
d="M264 345v161h73v-161h216v-73h-216v-161h-73v161h-217v73h217zM47 0v73h506v-73h-506z" />
    <glyph glyph-name="twosuperior" unicode="&#xb2;" 
d="M459 488v-61h-319q6 114 98 166l94 53q32 19 44.5 37.5t12.5 45.5q0 31 -21.5 49t-62.5 18q-89 0 -91 -93h-59q0 73 41.5 112t116.5 39q60 0 103 -35t43 -93q0 -50 -24 -76.5t-82 -60.5l-59 -30q-56 -29 -79 -71h244z" />
    <glyph glyph-name="threesuperior" unicode="&#xb3;" 
d="M140 556h67q2 -82 87 -82q44 0 70 18t26 54q0 37 -22 55.5t-73 18.5h-31v50h26q82 0 82 68q0 26 -20 41.5t-59 15.5q-79 0 -81 -80h-61q0 67 39.5 103t111.5 36q59 0 100 -29.5t41 -83.5q0 -64 -59 -88v-2q76 -21 76 -98q0 -66 -47.5 -101.5t-119.5 -35.5q-70 0 -111 35
t-42 105z" />
    <glyph glyph-name="acute" unicode="&#xb4;" 
d="M428 734l-110 -141h-66l71 141h105z" />
    <glyph glyph-name="mu" unicode="&#xb5;" 
d="M54 -207v730h88v-316q0 -66 33.5 -103.5t92.5 -37.5q61 0 92.5 36.5t31.5 103.5v317h88v-398q0 -34 9 -45.5t30 -11.5q18 0 27 2v-73q-30 -7 -54 -7q-80 0 -94 71q-52 -76 -135 -76q-36 0 -70.5 18.5t-48.5 48.5l-2 -1v-258h-88z" />
    <glyph glyph-name="paragraph" unicode="&#xb6;" 
d="M274 -173v517h-6q-86 0 -147 50.5t-61 133.5q0 190 231 190h218v-891h-73v831h-89v-831h-73z" />
    <glyph glyph-name="periodcentered" unicode="&#xb7;" 
d="M352 326v-106h-104v106h104z" />
    <glyph glyph-name="cedilla" unicode="&#xb8;" 
d="M292 0h46l-46 -62q24 4 31 4q39 0 61.5 -20.5t22.5 -54.5q0 -44 -34 -68t-83 -24q-47 0 -97 22l17 40q42 -15 65 -15q26 0 41.5 11t15.5 31q0 17 -14.5 28t-34.5 11q-11 0 -38 -8l-17 19z" />
    <glyph glyph-name="onesuperior" unicode="&#xb9;" 
d="M175 427v61h113v238h-108v47q64 2 87 18q27 18 36 61h57v-364h99v-61h-284z" />
    <glyph glyph-name="ordmasculine" unicode="&#xba;" 
d="M458 571q0 -80 -42 -123t-116 -43q-76 0 -117 43t-41 123t41.5 123t116.5 43q74 0 116 -43t42 -123zM391 571q0 49 -22.5 81.5t-68.5 32.5q-44 0 -67.5 -31t-23.5 -83q0 -53 23.5 -83.5t67.5 -30.5t67.5 30t23.5 84zM152 352h296v-48h-296v48z" />
    <glyph glyph-name="guillemotright" unicode="&#xbb;" 
d="M334 108v88l105 81l-105 81v88l157 -123v-92zM109 108v88l105 81l-105 81v88l157 -123v-92z" />
    <glyph glyph-name="onequarter" unicode="&#xbc;" 
d="M593 84h-52v-84h-57v84h-157v51l166 222h48v-224h52v-49zM484 264l-99 -131h99v131zM163 703v-305h78v-52h-223v52h85v193h-83v46q47 1 68 13q18 10 29 53h46zM496 709h58l-451 -729h-58z" />
    <glyph glyph-name="onehalf" unicode="&#xbd;" 
d="M407 221h-57q-1 65 33 100.5t97 35.5q51 0 85 -30t34 -79q0 -69 -75 -107l-62 -33q-47 -26 -57 -56h194v-52h-258q2 55 21.5 88t65.5 59l65 37q26 15 36 28t10 38t-19 41t-46 16q-34 0 -50.5 -24t-16.5 -62zM163 703v-305h78v-52h-223v52h85v193h-83v46q47 1 68 13
q18 10 29 53h46zM496 709h58l-451 -729h-58z" />
    <glyph glyph-name="threequarters" unicode="&#xbe;" 
d="M593 84h-52v-84h-57v84h-157v51l166 222h48v-224h52v-49zM484 264l-99 -131h99v131zM97 505v50q15 -2 29 -2q63 0 63 51q0 22 -17.5 35.5t-43.5 13.5q-62 0 -64 -75h-56q0 61 31 93t91 32q50 0 83.5 -25.5t33.5 -70.5q0 -51 -37 -72q51 -22 51 -82q0 -55 -38 -86t-98 -31
q-119 0 -126 127h58q1 -76 71 -76q31 0 52 16.5t21 44.5q0 57 -78 57h-26zM496 709h58l-451 -729h-58z" />
    <glyph glyph-name="questiondown" unicode="&#xbf;" 
d="M255 423v102h97v-102h-97zM429 33h88q4 -108 -58.5 -171t-165.5 -63q-91 0 -151.5 54t-60.5 143q0 28 4.5 48t21 42t27 33t41.5 41q63 62 75 91q12 30 12 92h88q0 -69 -15 -109q-13 -39 -80 -106q-7 -7 -21.5 -20.5t-19 -18.5t-13.5 -15.5t-12 -17t-7.5 -17.5t-5.5 -23
t-1 -27q0 -51 34 -82.5t87 -31.5q133 0 133 158z" />
    <glyph glyph-name="Agrave" unicode="&#xc0;" 
d="M20 0l230 718h110l220 -718h-106l-62 209h-227l-65 -209h-100zM211 295h177l-86 316h-2zM281 783l-109 141h104l72 -141h-67z" />
    <glyph glyph-name="Aacute" unicode="&#xc1;" 
d="M20 0l230 718h110l220 -718h-106l-62 209h-227l-65 -209h-100zM211 295h177l-86 316h-2zM428 924l-110 -141h-66l71 141h105z" />
    <glyph glyph-name="Acircumflex" unicode="&#xc2;" 
d="M20 0l230 718h110l220 -718h-106l-62 209h-227l-65 -209h-100zM211 295h177l-86 316h-2zM299 876l-66 -93h-79l99 141h93l99 -141h-80z" />
    <glyph glyph-name="Atilde" unicode="&#xc3;" 
d="M20 0l230 718h110l220 -718h-106l-62 209h-227l-65 -209h-100zM211 295h177l-86 316h-2zM421 912h49q-6 -51 -33 -80t-67 -29q-28 0 -80 18.5t-66 18.5q-36 0 -47 -44h-48q15 107 104 107q30 0 73.5 -18.5t65.5 -18.5q42 0 49 46z" />
    <glyph glyph-name="Adieresis" unicode="&#xc4;" 
d="M20 0l230 718h110l220 -718h-106l-62 209h-227l-65 -209h-100zM211 295h177l-86 316h-2zM426 908v-102h-90v102h90zM264 908v-102h-90v102h90z" />
    <glyph glyph-name="Aring" unicode="&#xc5;" 
d="M20 0l230 718h110l220 -718h-106l-62 209h-227l-65 -209h-100zM211 295h177l-86 316h-2zM300 946q40 0 66 -26.5t26 -65.5t-26 -65.5t-66 -26.5t-66 26t-26 66q0 38 26 65t66 27zM248 854q0 -22 15 -37t37 -15q21 0 36.5 15t15.5 37t-15.5 37t-36.5 15q-22 0 -37 -15
t-15 -37z" />
    <glyph glyph-name="AE" unicode="&#xc6;" 
d="M258 0v209h-130l-55 -209h-105l212 718h394v-86h-219v-220h186v-86h-186v-240h227v-86h-324zM240 632l-89 -337h107v337h-18z" />
    <glyph glyph-name="Ccedilla" unicode="&#xc7;" 
d="M562 502h-94q-11 73 -47.5 111t-93.5 38q-85 0 -130 -81.5t-45 -203.5q0 -299 178 -299q57 0 95 54.5t50 142.5h94q-13 -121 -73 -195.5t-151 -85.5l-33 -45q24 4 31 4q39 0 61.5 -20.5t22.5 -54.5q0 -44 -34 -68t-83 -24q-47 0 -97 22l17 40q42 -15 65 -15q26 0 41.5 11
t15.5 31q0 17 -14.5 28t-34.5 11q-11 0 -38 -8l-17 19l50 68q-120 8 -183 113.5t-63 267.5q0 166 72 270t203 104q93 0 156.5 -61.5t78.5 -173.5z" />
    <glyph glyph-name="Egrave" unicode="&#xc8;" 
d="M95 0v718h433v-86h-336v-220h303v-86h-303v-240h343v-86h-440zM291 783l-109 141h104l72 -141h-67z" />
    <glyph glyph-name="Eacute" unicode="&#xc9;" 
d="M95 0v718h433v-86h-336v-220h303v-86h-303v-240h343v-86h-440zM438 924l-110 -141h-66l71 141h105z" />
    <glyph glyph-name="Ecircumflex" unicode="&#xca;" 
d="M95 0v718h433v-86h-336v-220h303v-86h-303v-240h343v-86h-440zM309 876l-66 -93h-79l99 141h93l99 -141h-80z" />
    <glyph glyph-name="Edieresis" unicode="&#xcb;" 
d="M95 0v718h433v-86h-336v-220h303v-86h-303v-240h343v-86h-440zM436 908v-102h-90v102h90zM274 908v-102h-90v102h90z" />
    <glyph glyph-name="Igrave" unicode="&#xcc;" 
d="M118 0v86h133v546h-133v86h363v-86h-133v-546h133v-86h-363zM281 783l-109 141h104l72 -141h-67z" />
    <glyph glyph-name="Iacute" unicode="&#xcd;" 
d="M118 0v86h133v546h-133v86h363v-86h-133v-546h133v-86h-363zM428 924l-110 -141h-66l71 141h105z" />
    <glyph glyph-name="Icircumflex" unicode="&#xce;" 
d="M118 0v86h133v546h-133v86h363v-86h-133v-546h133v-86h-363zM299 876l-66 -93h-79l99 141h93l99 -141h-80z" />
    <glyph glyph-name="Idieresis" unicode="&#xcf;" 
d="M118 0v86h133v546h-133v86h363v-86h-133v-546h133v-86h-363zM426 908v-102h-90v102h90zM264 908v-102h-90v102h90z" />
    <glyph glyph-name="Eth" unicode="&#xd0;" 
d="M84 0v329h-80v81h80v308h211q84 0 144 -48t88.5 -125.5t28.5 -175.5q0 -103 -27.5 -184.5t-88.5 -133t-149 -51.5h-207zM181 635v-225h128v-81h-128v-246h108q59 0 98 41t54.5 101.5t15.5 137.5q0 121 -43 196.5t-133 75.5h-100z" />
    <glyph glyph-name="Ntilde" unicode="&#xd1;" 
d="M85 0v718h114l219 -540h2v540h94v-718h-108l-226 540h-2v-540h-93zM421 912h49q-6 -51 -33 -80t-67 -29q-28 0 -80 18.5t-66 18.5q-36 0 -47 -44h-48q15 107 104 107q30 0 73.5 -18.5t65.5 -18.5q42 0 49 46z" />
    <glyph glyph-name="Ograve" unicode="&#xd2;" 
d="M560 359q0 -162 -71 -270t-189 -108q-121 0 -190.5 107t-69.5 271t70 271t190 107q119 0 189.5 -107.5t70.5 -270.5zM460 359q0 123 -43 207.5t-117 84.5q-75 0 -117.5 -84.5t-42.5 -207.5q0 -124 42 -208t118 -84q73 0 116.5 84t43.5 208zM281 783l-109 141h104l72 -141
h-67z" />
    <glyph glyph-name="Oacute" unicode="&#xd3;" 
d="M560 359q0 -162 -71 -270t-189 -108q-121 0 -190.5 107t-69.5 271t70 271t190 107q119 0 189.5 -107.5t70.5 -270.5zM460 359q0 123 -43 207.5t-117 84.5q-75 0 -117.5 -84.5t-42.5 -207.5q0 -124 42 -208t118 -84q73 0 116.5 84t43.5 208zM428 924l-110 -141h-66l71 141
h105z" />
    <glyph glyph-name="Ocircumflex" unicode="&#xd4;" 
d="M560 359q0 -162 -71 -270t-189 -108q-121 0 -190.5 107t-69.5 271t70 271t190 107q119 0 189.5 -107.5t70.5 -270.5zM460 359q0 123 -43 207.5t-117 84.5q-75 0 -117.5 -84.5t-42.5 -207.5q0 -124 42 -208t118 -84q73 0 116.5 84t43.5 208zM299 876l-66 -93h-79l99 141
h93l99 -141h-80z" />
    <glyph glyph-name="Otilde" unicode="&#xd5;" 
d="M560 359q0 -162 -71 -270t-189 -108q-121 0 -190.5 107t-69.5 271t70 271t190 107q119 0 189.5 -107.5t70.5 -270.5zM460 359q0 123 -43 207.5t-117 84.5q-75 0 -117.5 -84.5t-42.5 -207.5q0 -124 42 -208t118 -84q73 0 116.5 84t43.5 208zM421 912h49q-6 -51 -33 -80
t-67 -29q-28 0 -80 18.5t-66 18.5q-36 0 -47 -44h-48q15 107 104 107q30 0 73.5 -18.5t65.5 -18.5q42 0 49 46z" />
    <glyph glyph-name="Odieresis" unicode="&#xd6;" 
d="M560 359q0 -162 -71 -270t-189 -108q-121 0 -190.5 107t-69.5 271t70 271t190 107q119 0 189.5 -107.5t70.5 -270.5zM460 359q0 123 -43 207.5t-117 84.5q-75 0 -117.5 -84.5t-42.5 -207.5q0 -124 42 -208t118 -84q73 0 116.5 84t43.5 208zM426 908v-102h-90v102h90z
M264 908v-102h-90v102h90z" />
    <glyph glyph-name="multiply" unicode="&#xd7;" 
d="M249 253l-202 202l52 51l201 -201l202 201l51 -51l-201 -202l201 -202l-51 -51l-202 201l-202 -201l-51 51z" />
    <glyph glyph-name="Oslash" unicode="&#xd8;" 
d="M560 359q0 -162 -71 -270t-189 -108q-104 0 -171 80l-55 -80l-42 28l66 97q-58 101 -58 253q0 164 70 271t190 107q103 0 172 -85l58 85l41 -30l-68 -100q57 -102 57 -248zM140 359q0 -91 22 -160l253 370q-44 82 -115 82q-75 0 -117.5 -84.5t-42.5 -207.5zM460 359
q0 83 -22 154l-252 -369q43 -77 114 -77q73 0 116.5 84t43.5 208z" />
    <glyph glyph-name="Ugrave" unicode="&#xd9;" 
d="M434 718h98v-466q0 -126 -66 -198.5t-173 -72.5q-104 0 -165 68t-61 190v479h96v-452q0 -93 33.5 -146t98.5 -53t102 51t37 146v454zM281 783l-109 141h104l72 -141h-67z" />
    <glyph glyph-name="Uacute" unicode="&#xda;" 
d="M434 718h98v-466q0 -126 -66 -198.5t-173 -72.5q-104 0 -165 68t-61 190v479h96v-452q0 -93 33.5 -146t98.5 -53t102 51t37 146v454zM428 924l-110 -141h-66l71 141h105z" />
    <glyph glyph-name="Ucircumflex" unicode="&#xdb;" 
d="M434 718h98v-466q0 -126 -66 -198.5t-173 -72.5q-104 0 -165 68t-61 190v479h96v-452q0 -93 33.5 -146t98.5 -53t102 51t37 146v454zM299 876l-66 -93h-79l99 141h93l99 -141h-80z" />
    <glyph glyph-name="Udieresis" unicode="&#xdc;" 
d="M434 718h98v-466q0 -126 -66 -198.5t-173 -72.5q-104 0 -165 68t-61 190v479h96v-452q0 -93 33.5 -146t98.5 -53t102 51t37 146v454zM426 908v-102h-90v102h90zM264 908v-102h-90v102h90z" />
    <glyph glyph-name="Yacute" unicode="&#xdd;" 
d="M349 289v-289h-97v289l-231 429h113l166 -345l166 345h114zM428 924l-110 -141h-66l71 141h105z" />
    <glyph glyph-name="Thorn" unicode="&#xde;" 
d="M189 184v-184h-97v718h97v-119h156q93 0 153 -55t60 -147q0 -96 -58 -154.5t-155 -58.5h-156zM189 516v-249h123q146 0 146 129q0 120 -142 120h-127z" />
    <glyph glyph-name="germandbls" unicode="&#xdf;" 
d="M70 0v532q0 95 61 145.5t158 50.5q90 0 153.5 -45.5t63.5 -134.5q0 -95 -85 -148q50 -13 84 -63.5t34 -102.5q0 -115 -64 -182q-63 -67 -187 -67q-31 0 -53 7v75q18 -3 44 -3q82 0 126 37.5t44 112.5q0 140 -170 140q-27 0 -39 -4v79q16 -2 23 -2q155 0 155 113
q0 56 -38 84t-92 28q-67 0 -98.5 -33.5t-31.5 -108.5v-510h-88z" />
    <glyph glyph-name="agrave" unicode="&#xe0;" 
d="M180 364h-82q6 174 216 174q80 0 137.5 -36.5t57.5 -109.5v-301q0 -31 28 -31q5 0 29 4v-64q-27 -10 -50 -10q-45 0 -66.5 19.5t-23.5 60.5q-75 -85 -189 -85q-71 0 -117.5 41t-46.5 110t39 111.5t114 51.5l155 19q42 4 42 62q0 85 -123 85q-56 0 -85 -24.5t-35 -76.5z
M420 181v86q-9 -9 -39 -17q-40 -8 -106 -16q-112 -15 -112 -85q0 -91 96 -91q58 0 109.5 34.5t51.5 88.5zM281 593l-109 141h104l72 -141h-67z" />
    <glyph glyph-name="aacute" unicode="&#xe1;" 
d="M180 364h-82q6 174 216 174q80 0 137.5 -36.5t57.5 -109.5v-301q0 -31 28 -31q5 0 29 4v-64q-27 -10 -50 -10q-45 0 -66.5 19.5t-23.5 60.5q-75 -85 -189 -85q-71 0 -117.5 41t-46.5 110t39 111.5t114 51.5l155 19q42 4 42 62q0 85 -123 85q-56 0 -85 -24.5t-35 -76.5z
M420 181v86q-9 -9 -39 -17q-40 -8 -106 -16q-112 -15 -112 -85q0 -91 96 -91q58 0 109.5 34.5t51.5 88.5zM428 734l-110 -141h-66l71 141h105z" />
    <glyph glyph-name="acircumflex" unicode="&#xe2;" 
d="M180 364h-82q6 174 216 174q80 0 137.5 -36.5t57.5 -109.5v-301q0 -31 28 -31q5 0 29 4v-64q-27 -10 -50 -10q-45 0 -66.5 19.5t-23.5 60.5q-75 -85 -189 -85q-71 0 -117.5 41t-46.5 110t39 111.5t114 51.5l155 19q42 4 42 62q0 85 -123 85q-56 0 -85 -24.5t-35 -76.5z
M420 181v86q-9 -9 -39 -17q-40 -8 -106 -16q-112 -15 -112 -85q0 -91 96 -91q58 0 109.5 34.5t51.5 88.5zM299 686l-66 -93h-79l99 141h93l99 -141h-80z" />
    <glyph glyph-name="atilde" unicode="&#xe3;" 
d="M180 364h-82q6 174 216 174q80 0 137.5 -36.5t57.5 -109.5v-301q0 -31 28 -31q5 0 29 4v-64q-27 -10 -50 -10q-45 0 -66.5 19.5t-23.5 60.5q-75 -85 -189 -85q-71 0 -117.5 41t-46.5 110t39 111.5t114 51.5l155 19q42 4 42 62q0 85 -123 85q-56 0 -85 -24.5t-35 -76.5z
M420 181v86q-9 -9 -39 -17q-40 -8 -106 -16q-112 -15 -112 -85q0 -91 96 -91q58 0 109.5 34.5t51.5 88.5zM421 722h49q-6 -51 -33 -80t-67 -29q-28 0 -80 18.5t-66 18.5q-36 0 -47 -44h-48q15 107 104 107q30 0 73.5 -18.5t65.5 -18.5q42 0 49 46z" />
    <glyph glyph-name="adieresis" unicode="&#xe4;" 
d="M180 364h-82q6 174 216 174q80 0 137.5 -36.5t57.5 -109.5v-301q0 -31 28 -31q5 0 29 4v-64q-27 -10 -50 -10q-45 0 -66.5 19.5t-23.5 60.5q-75 -85 -189 -85q-71 0 -117.5 41t-46.5 110t39 111.5t114 51.5l155 19q42 4 42 62q0 85 -123 85q-56 0 -85 -24.5t-35 -76.5z
M420 181v86q-9 -9 -39 -17q-40 -8 -106 -16q-112 -15 -112 -85q0 -91 96 -91q58 0 109.5 34.5t51.5 88.5zM426 718v-102h-90v102h90zM264 718v-102h-90v102h90z" />
    <glyph glyph-name="aring" unicode="&#xe5;" 
d="M180 364h-82q6 174 216 174q80 0 137.5 -36.5t57.5 -109.5v-301q0 -31 28 -31q5 0 29 4v-64q-27 -10 -50 -10q-45 0 -66.5 19.5t-23.5 60.5q-75 -85 -189 -85q-71 0 -117.5 41t-46.5 110t39 111.5t114 51.5l155 19q42 4 42 62q0 85 -123 85q-56 0 -85 -24.5t-35 -76.5z
M420 181v86q-9 -9 -39 -17q-40 -8 -106 -16q-112 -15 -112 -85q0 -91 96 -91q58 0 109.5 34.5t51.5 88.5zM300 756q40 0 66 -26.5t26 -65.5t-26 -65.5t-66 -26.5t-66 26t-26 66q0 38 26 65t66 27zM248 664q0 -22 15 -37t37 -15q21 0 36.5 15t15.5 37t-15.5 37t-36.5 15
q-22 0 -37 -15t-15 -37z" />
    <glyph glyph-name="ae" unicode="&#xe6;" 
d="M496 161h82q-11 -82 -55 -130.5t-104 -48.5q-92 0 -128 89q-47 -89 -143 -89q-60 0 -98 41t-38 110q0 142 130 164l103 18q21 6 21 62q0 85 -78 85q-75 0 -75 -101h-78q4 88 42.5 131t123.5 43q84 0 122 -54q39 54 105 54q55 0 92 -43.5t51.5 -109.5t14.5 -152h-247
q0 -172 89 -172q24 0 45 31t23 72zM339 300h161q-12 156 -81 156q-35 0 -57.5 -46t-22.5 -110zM263 178v86q-10 -11 -24 -17q-7 -3 -56 -16q-49 -7 -67.5 -27t-18.5 -58q0 -46 16 -68.5t55 -22.5q32 0 63 35t32 88z" />
    <glyph glyph-name="ccedilla" unicode="&#xe7;" 
d="M533 347h-85q-24 112 -134 112q-79 0 -116.5 -56.5t-37.5 -140.5q0 -201 153 -201q51 0 88.5 36t46.5 88h85q-14 -92 -67.5 -143t-138.5 -56l-35 -48q24 4 31 4q39 0 61.5 -20.5t22.5 -54.5q0 -44 -34 -68t-83 -24q-47 0 -97 22l17 40q42 -15 65 -15q26 0 41.5 11
t15.5 31q0 17 -14.5 28t-34.5 11q-11 0 -38 -8l-17 19l54 73q-101 10 -158.5 82t-57.5 178q0 129 67 210t194 81q89 0 144.5 -52.5t61.5 -138.5z" />
    <glyph glyph-name="egrave" unicode="&#xe8;" 
d="M462 164h88q-17 -82 -82.5 -131t-157.5 -49q-117 0 -183 73.5t-66 189.5q0 131 66 211t195 80q121 0 178 -86t57 -219h-402q0 -83 41 -127.5t121 -44.5q50 0 94.5 30t50.5 73zM155 303h311q-8 77 -45 116.5t-111 39.5q-68 0 -111 -45.5t-44 -110.5zM291 593l-109 141h104
l72 -141h-67z" />
    <glyph glyph-name="eacute" unicode="&#xe9;" 
d="M462 164h88q-17 -82 -82.5 -131t-157.5 -49q-117 0 -183 73.5t-66 189.5q0 131 66 211t195 80q121 0 178 -86t57 -219h-402q0 -83 41 -127.5t121 -44.5q50 0 94.5 30t50.5 73zM155 303h311q-8 77 -45 116.5t-111 39.5q-68 0 -111 -45.5t-44 -110.5zM438 734l-110 -141
h-66l71 141h105z" />
    <glyph glyph-name="ecircumflex" unicode="&#xea;" 
d="M462 164h88q-17 -82 -82.5 -131t-157.5 -49q-117 0 -183 73.5t-66 189.5q0 131 66 211t195 80q121 0 178 -86t57 -219h-402q0 -83 41 -127.5t121 -44.5q50 0 94.5 30t50.5 73zM155 303h311q-8 77 -45 116.5t-111 39.5q-68 0 -111 -45.5t-44 -110.5zM309 686l-66 -93h-79
l99 141h93l99 -141h-80z" />
    <glyph glyph-name="edieresis" unicode="&#xeb;" 
d="M462 164h88q-17 -82 -82.5 -131t-157.5 -49q-117 0 -183 73.5t-66 189.5q0 131 66 211t195 80q121 0 178 -86t57 -219h-402q0 -83 41 -127.5t121 -44.5q50 0 94.5 30t50.5 73zM155 303h311q-8 77 -45 116.5t-111 39.5q-68 0 -111 -45.5t-44 -110.5zM436 718v-102h-90v102
h90zM274 718v-102h-90v102h90z" />
    <glyph glyph-name="igrave" unicode="&#xec;" 
d="M96 523h248v-450h200v-73h-488v73h200v377h-160v73zM261 593l-109 141h104l72 -141h-67z" />
    <glyph glyph-name="iacute" unicode="&#xed;" 
d="M96 523h248v-450h200v-73h-488v73h200v377h-160v73zM408 734l-110 -141h-66l71 141h105z" />
    <glyph glyph-name="icircumflex" unicode="&#xee;" 
d="M96 523h248v-450h200v-73h-488v73h200v377h-160v73zM279 686l-66 -93h-79l99 141h93l99 -141h-80z" />
    <glyph glyph-name="idieresis" unicode="&#xef;" 
d="M96 523h248v-450h200v-73h-488v73h200v377h-160v73zM406 718v-102h-90v102h90zM244 718v-102h-90v102h90z" />
    <glyph glyph-name="eth" unicode="&#xf0;" 
d="M491 695l-107 -51q158 -144 158 -362q0 -79 -25 -145t-81 -109t-134 -43q-110 0 -177.5 75t-67.5 187q0 107 62.5 185t166.5 78q82 0 134 -55l2 2q-32 82 -111 152l-124 -62l-42 42l118 57q-52 40 -90 55l74 36q48 -19 91 -53l106 50zM148 247q0 -77 39.5 -131.5
t112.5 -54.5t112 55t39 131q0 77 -38.5 132t-112.5 55t-113 -54t-39 -133z" />
    <glyph glyph-name="ntilde" unicode="&#xf1;" 
d="M513 356v-356h-88v322q0 70 -24 103.5t-88 33.5q-67 0 -102.5 -49.5t-35.5 -124.5v-285h-88v523h83v-74h2q62 89 158 89q89 0 136 -47t47 -135zM421 722h49q-6 -51 -33 -80t-67 -29q-28 0 -80 18.5t-66 18.5q-36 0 -47 -44h-48q15 107 104 107q30 0 73.5 -18.5
t65.5 -18.5q42 0 49 46z" />
    <glyph glyph-name="ograve" unicode="&#xf2;" 
d="M67 262q0 116 65 196t177 80t177.5 -80t65.5 -196t-65 -196.5t-178 -80.5q-111 0 -176.5 80t-65.5 197zM157 262q0 -83 38 -141.5t114 -58.5q75 0 114 59.5t39 140.5q0 82 -38.5 140.5t-114.5 58.5q-75 0 -113.5 -58t-38.5 -141zM281 593l-109 141h104l72 -141h-67z" />
    <glyph glyph-name="oacute" unicode="&#xf3;" 
d="M67 262q0 116 65 196t177 80t177.5 -80t65.5 -196t-65 -196.5t-178 -80.5q-111 0 -176.5 80t-65.5 197zM157 262q0 -83 38 -141.5t114 -58.5q75 0 114 59.5t39 140.5q0 82 -38.5 140.5t-114.5 58.5q-75 0 -113.5 -58t-38.5 -141zM428 734l-110 -141h-66l71 141h105z" />
    <glyph glyph-name="ocircumflex" unicode="&#xf4;" 
d="M67 262q0 116 65 196t177 80t177.5 -80t65.5 -196t-65 -196.5t-178 -80.5q-111 0 -176.5 80t-65.5 197zM157 262q0 -83 38 -141.5t114 -58.5q75 0 114 59.5t39 140.5q0 82 -38.5 140.5t-114.5 58.5q-75 0 -113.5 -58t-38.5 -141zM299 686l-66 -93h-79l99 141h93l99 -141
h-80z" />
    <glyph glyph-name="otilde" unicode="&#xf5;" 
d="M67 262q0 116 65 196t177 80t177.5 -80t65.5 -196t-65 -196.5t-178 -80.5q-111 0 -176.5 80t-65.5 197zM157 262q0 -83 38 -141.5t114 -58.5q75 0 114 59.5t39 140.5q0 82 -38.5 140.5t-114.5 58.5q-75 0 -113.5 -58t-38.5 -141zM421 722h49q-6 -51 -33 -80t-67 -29
q-28 0 -80 18.5t-66 18.5q-36 0 -47 -44h-48q15 107 104 107q30 0 73.5 -18.5t65.5 -18.5q42 0 49 46z" />
    <glyph glyph-name="odieresis" unicode="&#xf6;" 
d="M67 262q0 116 65 196t177 80t177.5 -80t65.5 -196t-65 -196.5t-178 -80.5q-111 0 -176.5 80t-65.5 197zM157 262q0 -83 38 -141.5t114 -58.5q75 0 114 59.5t39 140.5q0 82 -38.5 140.5t-114.5 58.5q-75 0 -113.5 -58t-38.5 -141zM426 718v-102h-90v102h90zM264 718v-102
h-90v102h90z" />
    <glyph glyph-name="divide" unicode="&#xf7;" 
d="M352 510v-106h-104v106h104zM553 216h-506v73h506v-73zM352 103v-106h-104v106h104z" />
    <glyph glyph-name="oslash" unicode="&#xf8;" 
d="M67 262q0 116 65 196t177 80q86 0 147 -50l47 57l36 -26l-51 -63q64 -76 64 -194q0 -116 -65 -196.5t-178 -80.5q-95 0 -158 60l-55 -67l-36 26l61 75q-54 76 -54 183zM157 262q0 -65 22 -113l225 275q-37 37 -95 37q-75 0 -113.5 -58t-38.5 -141zM462 262q0 72 -30 126
l-229 -279q41 -47 106 -47q75 0 114 59.5t39 140.5z" />
    <glyph glyph-name="ugrave" unicode="&#xf9;" 
d="M89 147v376h88v-347q0 -115 101 -115q70 0 107 49.5t37 124.5v288h88v-523h-83v76l-2 2q-49 -93 -166 -93q-76 0 -123 42.5t-47 119.5zM281 593l-109 141h104l72 -141h-67z" />
    <glyph glyph-name="uacute" unicode="&#xfa;" 
d="M89 147v376h88v-347q0 -115 101 -115q70 0 107 49.5t37 124.5v288h88v-523h-83v76l-2 2q-49 -93 -166 -93q-76 0 -123 42.5t-47 119.5zM428 734l-110 -141h-66l71 141h105z" />
    <glyph glyph-name="ucircumflex" unicode="&#xfb;" 
d="M89 147v376h88v-347q0 -115 101 -115q70 0 107 49.5t37 124.5v288h88v-523h-83v76l-2 2q-49 -93 -166 -93q-76 0 -123 42.5t-47 119.5zM299 686l-66 -93h-79l99 141h93l99 -141h-80z" />
    <glyph glyph-name="udieresis" unicode="&#xfc;" 
d="M89 147v376h88v-347q0 -115 101 -115q70 0 107 49.5t37 124.5v288h88v-523h-83v76l-2 2q-49 -93 -166 -93q-76 0 -123 42.5t-47 119.5zM426 718v-102h-90v102h90zM264 718v-102h-90v102h90z" />
    <glyph glyph-name="yacute" unicode="&#xfd;" 
d="M302 97l160 426h96l-207 -513q-50 -134 -83 -181q-31 -43 -100 -43q-35 0 -59 8v80q25 -9 55 -9q31 0 47 21q18 25 44 99l-214 538h99l160 -426h2zM428 734l-110 -141h-66l71 141h105z" />
    <glyph glyph-name="thorn" unicode="&#xfe;" 
d="M90 -207v925h83v-269h2q56 89 156 89q104 0 161 -75.5t57 -185.5q0 -124 -58 -208t-172 -84q-91 0 -139 70h-2v-262h-88zM174 237q0 -76 37 -126t106 -50q74 0 107.5 58.5t33.5 143.5q0 101 -35 148.5t-108 47.5q-141 0 -141 -222z" />
    <glyph glyph-name="ydieresis" unicode="&#xff;" 
d="M302 97l160 426h96l-207 -513q-50 -134 -83 -181q-31 -43 -100 -43q-35 0 -59 8v80q25 -9 55 -9q31 0 47 21q18 25 44 99l-214 538h99l160 -426h2zM426 718v-102h-90v102h90zM264 718v-102h-90v102h90z" />
    <glyph glyph-name="Amacron" unicode="&#x100;" 
d="M20 0l230 718h110l220 -718h-106l-62 209h-227l-65 -209h-100zM211 295h177l-86 316h-2zM457 869v-57h-314v57h314z" />
    <glyph glyph-name="amacron" unicode="&#x101;" 
d="M180 364h-82q6 174 216 174q80 0 137.5 -36.5t57.5 -109.5v-301q0 -31 28 -31q5 0 29 4v-64q-27 -10 -50 -10q-45 0 -66.5 19.5t-23.5 60.5q-75 -85 -189 -85q-71 0 -117.5 41t-46.5 110t39 111.5t114 51.5l155 19q42 4 42 62q0 85 -123 85q-56 0 -85 -24.5t-35 -76.5z
M420 181v86q-9 -9 -39 -17q-40 -8 -106 -16q-112 -15 -112 -85q0 -91 96 -91q58 0 109.5 34.5t51.5 88.5zM457 679v-57h-314v57h314z" />
    <glyph glyph-name="Abreve" unicode="&#x102;" 
d="M20 0l230 718h110l220 -718h-106l-62 209h-227l-65 -209h-100zM211 295h177l-86 316h-2zM149 921h49q16 -79 102 -79t102 79h49q-8 -136 -151 -136t-151 136z" />
    <glyph glyph-name="abreve" unicode="&#x103;" 
d="M180 364h-82q6 174 216 174q80 0 137.5 -36.5t57.5 -109.5v-301q0 -31 28 -31q5 0 29 4v-64q-27 -10 -50 -10q-45 0 -66.5 19.5t-23.5 60.5q-75 -85 -189 -85q-71 0 -117.5 41t-46.5 110t39 111.5t114 51.5l155 19q42 4 42 62q0 85 -123 85q-56 0 -85 -24.5t-35 -76.5z
M420 181v86q-9 -9 -39 -17q-40 -8 -106 -16q-112 -15 -112 -85q0 -91 96 -91q58 0 109.5 34.5t51.5 88.5zM149 731h49q16 -79 102 -79t102 79h49q-8 -136 -151 -136t-151 136z" />
    <glyph glyph-name="Aogonek" unicode="&#x104;" 
d="M474 0l-62 209h-227l-65 -209h-100l230 718h110l220 -718q-40 -3 -67.5 -29.5t-27.5 -58.5q0 -21 11.5 -34t32.5 -13q18 0 41 10v-63q-30 -14 -65 -14q-45 0 -72 23.5t-27 65.5q0 66 68 113zM300 611l-89 -316h177l-86 316h-2z" />
    <glyph glyph-name="aogonek" unicode="&#x105;" 
d="M180 364h-82q6 174 216 174q80 0 137.5 -36.5t57.5 -109.5v-301q0 -31 28 -31q5 0 29 4v-64q-27 -10 -50 -10q-9 0 -25 2q-23 -11 -38.5 -33.5t-15.5 -46.5q0 -21 11.5 -34t32.5 -13q18 0 41 10v-63q-30 -14 -65 -14q-45 0 -72 23.5t-27 65.5q0 73 87 126q-17 19 -19 57
q-75 -85 -189 -85q-71 0 -117.5 41t-46.5 110t39 111.5t114 51.5l155 19q42 4 42 62q0 85 -123 85q-56 0 -85 -24.5t-35 -76.5zM420 181v86q-9 -9 -39 -17q-40 -8 -106 -16q-112 -15 -112 -85q0 -91 96 -91q58 0 109.5 34.5t51.5 88.5z" />
    <glyph glyph-name="Cacute" unicode="&#x106;" 
d="M315 -19q-87 0 -147.5 52t-88 136.5t-27.5 193.5q0 166 72 270t203 104q93 0 156.5 -61.5t78.5 -173.5h-94q-11 73 -47.5 111t-93.5 38q-85 0 -130 -81.5t-45 -203.5q0 -299 178 -299q57 0 95 54.5t50 142.5h94q-13 -131 -82 -207t-172 -76zM458 924l-110 -141h-66
l71 141h105z" />
    <glyph glyph-name="cacute" unicode="&#x107;" 
d="M533 347h-85q-24 112 -134 112q-79 0 -116.5 -56.5t-37.5 -140.5q0 -201 153 -201q51 0 88.5 36t46.5 88h85q-15 -96 -73 -148t-149 -52q-114 0 -179.5 74t-65.5 188q0 129 67 210t194 81q89 0 144.5 -52.5t61.5 -138.5zM438 734l-110 -141h-66l71 141h105z" />
    <glyph glyph-name="Ccircumflex" unicode="&#x108;" 
d="M315 -19q-87 0 -147.5 52t-88 136.5t-27.5 193.5q0 166 72 270t203 104q93 0 156.5 -61.5t78.5 -173.5h-94q-11 73 -47.5 111t-93.5 38q-85 0 -130 -81.5t-45 -203.5q0 -299 178 -299q57 0 95 54.5t50 142.5h94q-13 -131 -82 -207t-172 -76zM329 876l-66 -93h-79l99 141
h93l99 -141h-80z" />
    <glyph glyph-name="ccircumflex" unicode="&#x109;" 
d="M533 347h-85q-24 112 -134 112q-79 0 -116.5 -56.5t-37.5 -140.5q0 -201 153 -201q51 0 88.5 36t46.5 88h85q-15 -96 -73 -148t-149 -52q-114 0 -179.5 74t-65.5 188q0 129 67 210t194 81q89 0 144.5 -52.5t61.5 -138.5zM309 686l-66 -93h-79l99 141h93l99 -141h-80z" />
    <glyph glyph-name="Cdotaccent" unicode="&#x10a;" 
d="M315 -19q-87 0 -147.5 52t-88 136.5t-27.5 193.5q0 166 72 270t203 104q93 0 156.5 -61.5t78.5 -173.5h-94q-11 73 -47.5 111t-93.5 38q-85 0 -130 -81.5t-45 -203.5q0 -299 178 -299q57 0 95 54.5t50 142.5h94q-13 -131 -82 -207t-172 -76zM374 808h-88v100h88v-100z
" />
    <glyph glyph-name="cdotaccent" unicode="&#x10b;" 
d="M533 347h-85q-24 112 -134 112q-79 0 -116.5 -56.5t-37.5 -140.5q0 -201 153 -201q51 0 88.5 36t46.5 88h85q-15 -96 -73 -148t-149 -52q-114 0 -179.5 74t-65.5 188q0 129 67 210t194 81q89 0 144.5 -52.5t61.5 -138.5zM354 618h-88v100h88v-100z" />
    <glyph glyph-name="Ccaron" unicode="&#x10c;" 
d="M315 -19q-87 0 -147.5 52t-88 136.5t-27.5 193.5q0 166 72 270t203 104q93 0 156.5 -61.5t78.5 -173.5h-94q-11 73 -47.5 111t-93.5 38q-85 0 -130 -81.5t-45 -203.5q0 -299 178 -299q57 0 95 54.5t50 142.5h94q-13 -131 -82 -207t-172 -76zM263 924l66 -93l66 93h80
l-99 -141h-93l-99 141h79z" />
    <glyph glyph-name="ccaron" unicode="&#x10d;" 
d="M533 347h-85q-24 112 -134 112q-79 0 -116.5 -56.5t-37.5 -140.5q0 -201 153 -201q51 0 88.5 36t46.5 88h85q-15 -96 -73 -148t-149 -52q-114 0 -179.5 74t-65.5 188q0 129 67 210t194 81q89 0 144.5 -52.5t61.5 -138.5zM243 734l66 -93l66 93h80l-99 -141h-93l-99 141
h79z" />
    <glyph glyph-name="Dcaron" unicode="&#x10e;" 
d="M84 0v718h211q84 0 144 -48t88.5 -125.5t28.5 -175.5q0 -103 -27.5 -184.5t-88.5 -133t-149 -51.5h-207zM181 83h108q59 0 98 41t54.5 101.5t15.5 137.5q0 121 -43 196.5t-133 75.5h-100v-552zM203 924l66 -93l66 93h80l-99 -141h-93l-99 141h79z" />
    <glyph glyph-name="dcaron" unicode="&#x10f;" 
d="M512 718v-718h-83v72h-2q-49 -87 -151 -87q-76 0 -129.5 43t-76 107t-22.5 142q0 111 57 186t161 75q97 0 156 -89h2v269h88zM139 263q0 -55 12.5 -98t45.5 -73.5t83 -30.5q69 0 106 50t37 126q0 222 -141 222q-80 0 -111 -50.5t-32 -145.5zM554 535v35q49 10 49 55v6
h-43v87h86v-87q0 -43 -24.5 -68.5t-67.5 -27.5z" />
    <glyph glyph-name="Dcroat" unicode="&#x110;" 
d="M84 0v329h-80v81h80v308h211q84 0 144 -48t88.5 -125.5t28.5 -175.5q0 -103 -27.5 -184.5t-88.5 -133t-149 -51.5h-207zM181 635v-225h128v-81h-128v-246h108q59 0 98 41t54.5 101.5t15.5 137.5q0 121 -43 196.5t-133 75.5h-100z" />
    <glyph glyph-name="dcroat" unicode="&#x111;" 
d="M532 718v-75h68v-55h-68v-588h-83v72h-2q-49 -87 -151 -87q-76 0 -129.5 43t-76 107t-22.5 142q0 111 57 186t161 75q97 0 156 -89h2v139h-180v55h180v75h88zM159 263q0 -55 12.5 -98t45.5 -73.5t83 -30.5q69 0 106 50t37 126q0 222 -141 222q-80 0 -111 -50.5
t-32 -145.5z" />
    <glyph glyph-name="Emacron" unicode="&#x112;" 
d="M95 0v718h433v-86h-336v-220h303v-86h-303v-240h343v-86h-440zM467 869v-57h-314v57h314z" />
    <glyph glyph-name="emacron" unicode="&#x113;" 
d="M462 164h88q-17 -82 -82.5 -131t-157.5 -49q-117 0 -183 73.5t-66 189.5q0 131 66 211t195 80q121 0 178 -86t57 -219h-402q0 -83 41 -127.5t121 -44.5q50 0 94.5 30t50.5 73zM155 303h311q-8 77 -45 116.5t-111 39.5q-68 0 -111 -45.5t-44 -110.5zM467 679v-57h-314v57
h314z" />
    <glyph glyph-name="Ebreve" unicode="&#x114;" 
d="M95 0v718h433v-86h-336v-220h303v-86h-303v-240h343v-86h-440zM159 921h49q16 -79 102 -79t102 79h49q-8 -136 -151 -136t-151 136z" />
    <glyph glyph-name="ebreve" unicode="&#x115;" 
d="M462 164h88q-17 -82 -82.5 -131t-157.5 -49q-117 0 -183 73.5t-66 189.5q0 131 66 211t195 80q121 0 178 -86t57 -219h-402q0 -83 41 -127.5t121 -44.5q50 0 94.5 30t50.5 73zM155 303h311q-8 77 -45 116.5t-111 39.5q-68 0 -111 -45.5t-44 -110.5zM159 731h49
q16 -79 102 -79t102 79h49q-8 -136 -151 -136t-151 136z" />
    <glyph glyph-name="Edotaccent" unicode="&#x116;" 
d="M95 0v718h433v-86h-336v-220h303v-86h-303v-240h343v-86h-440zM354 808h-88v100h88v-100z" />
    <glyph glyph-name="edotaccent" unicode="&#x117;" 
d="M462 164h88q-17 -82 -82.5 -131t-157.5 -49q-117 0 -183 73.5t-66 189.5q0 131 66 211t195 80q121 0 178 -86t57 -219h-402q0 -83 41 -127.5t121 -44.5q50 0 94.5 30t50.5 73zM155 303h311q-8 77 -45 116.5t-111 39.5q-68 0 -111 -45.5t-44 -110.5zM354 618h-88v100h88
v-100z" />
    <glyph glyph-name="Eogonek" unicode="&#x118;" 
d="M535 86v-86h-1q-33 -3 -58.5 -29.5t-25.5 -58.5q0 -21 11.5 -34t32.5 -13q18 0 41 10v-63q-30 -14 -65 -14q-45 0 -72 23.5t-27 65.5q0 65 67 113h-343v718h433v-86h-336v-220h303v-86h-303v-240h343z" />
    <glyph glyph-name="eogonek" unicode="&#x119;" 
d="M462 164h88q-12 -58 -48 -100.5t-91 -61.5q-27 -9 -50.5 -35t-23.5 -55q0 -21 11.5 -34t32.5 -13q18 0 41 10v-63q-30 -14 -65 -14q-45 0 -72 23.5t-27 65.5q0 56 47 97q-115 1 -179.5 74.5t-64.5 188.5q0 131 66 211t195 80q121 0 178 -86t57 -219h-402q0 -83 41 -127.5
t121 -44.5q50 0 94.5 30t50.5 73zM155 303h311q-8 77 -45 116.5t-111 39.5q-68 0 -111 -45.5t-44 -110.5z" />
    <glyph glyph-name="Ecaron" unicode="&#x11a;" 
d="M95 0v718h433v-86h-336v-220h303v-86h-303v-240h343v-86h-440zM243 924l66 -93l66 93h80l-99 -141h-93l-99 141h79z" />
    <glyph glyph-name="ecaron" unicode="&#x11b;" 
d="M462 164h88q-17 -82 -82.5 -131t-157.5 -49q-117 0 -183 73.5t-66 189.5q0 131 66 211t195 80q121 0 178 -86t57 -219h-402q0 -83 41 -127.5t121 -44.5q50 0 94.5 30t50.5 73zM155 303h311q-8 77 -45 116.5t-111 39.5q-68 0 -111 -45.5t-44 -110.5zM243 734l66 -93l66 93
h80l-99 -141h-93l-99 141h79z" />
    <glyph glyph-name="Gcircumflex" unicode="&#x11c;" 
d="M315 -19q-127 0 -195 102t-68 282q0 157 73.5 264.5t196.5 107.5q79 0 142 -65t72 -172h-94q-11 71 -43 111t-82 40q-54 0 -92 -42t-55.5 -106t-17.5 -143q0 -296 169 -296q62 0 99 60.5t37 174.5v2h-134v83h225v-384h-63l-23 93q-55 -112 -147 -112zM309 876l-66 -93
h-79l99 141h93l99 -141h-80z" />
    <glyph glyph-name="gcircumflex" unicode="&#x11d;" 
d="M529 523v-493q0 -250 -243 -250q-88 0 -140.5 40.5t-59.5 115.5h88q15 -83 118 -83q75 0 112 40t37 128v37h-2q-49 -73 -139 -73q-78 0 -131.5 42.5t-76 106.5t-22.5 143q0 110 57 185.5t161 75.5q99 0 156 -89h2v74h83zM161 263q0 -85 34 -143.5t107 -58.5
q70 0 106.5 49.5t36.5 126.5q0 222 -141 222q-143 0 -143 -196zM299 686l-66 -93h-79l99 141h93l99 -141h-80z" />
    <glyph glyph-name="Gbreve" unicode="&#x11e;" 
d="M315 -19q-127 0 -195 102t-68 282q0 157 73.5 264.5t196.5 107.5q79 0 142 -65t72 -172h-94q-11 71 -43 111t-82 40q-54 0 -92 -42t-55.5 -106t-17.5 -143q0 -296 169 -296q62 0 99 60.5t37 174.5v2h-134v83h225v-384h-63l-23 93q-55 -112 -147 -112zM159 921h49
q16 -79 102 -79t102 79h49q-8 -136 -151 -136t-151 136z" />
    <glyph glyph-name="gbreve" unicode="&#x11f;" 
d="M529 523v-493q0 -250 -243 -250q-88 0 -140.5 40.5t-59.5 115.5h88q15 -83 118 -83q75 0 112 40t37 128v37h-2q-49 -73 -139 -73q-78 0 -131.5 42.5t-76 106.5t-22.5 143q0 110 57 185.5t161 75.5q99 0 156 -89h2v74h83zM161 263q0 -85 34 -143.5t107 -58.5
q70 0 106.5 49.5t36.5 126.5q0 222 -141 222q-143 0 -143 -196zM149 731h49q16 -79 102 -79t102 79h49q-8 -136 -151 -136t-151 136z" />
    <glyph glyph-name="Gdotaccent" unicode="&#x120;" 
d="M315 -19q-127 0 -195 102t-68 282q0 157 73.5 264.5t196.5 107.5q79 0 142 -65t72 -172h-94q-11 71 -43 111t-82 40q-54 0 -92 -42t-55.5 -106t-17.5 -143q0 -296 169 -296q62 0 99 60.5t37 174.5v2h-134v83h225v-384h-63l-23 93q-55 -112 -147 -112zM354 808h-88v100h88
v-100z" />
    <glyph glyph-name="gdotaccent" unicode="&#x121;" 
d="M529 523v-493q0 -250 -243 -250q-88 0 -140.5 40.5t-59.5 115.5h88q15 -83 118 -83q75 0 112 40t37 128v37h-2q-49 -73 -139 -73q-78 0 -131.5 42.5t-76 106.5t-22.5 143q0 110 57 185.5t161 75.5q99 0 156 -89h2v74h83zM161 263q0 -85 34 -143.5t107 -58.5
q70 0 106.5 49.5t36.5 126.5q0 222 -141 222q-143 0 -143 -196zM344 618h-88v100h88v-100z" />
    <glyph glyph-name="Gcommaaccent" unicode="&#x122;" 
d="M315 -19q-127 0 -195 102t-68 282q0 157 73.5 264.5t196.5 107.5q79 0 142 -65t72 -172h-94q-11 71 -43 111t-82 40q-54 0 -92 -42t-55.5 -106t-17.5 -143q0 -296 169 -296q62 0 99 60.5t37 174.5v2h-134v83h225v-384h-63l-23 93q-55 -112 -147 -112zM264 -235v34
q49 10 49 55v6h-43v87h86v-87q0 -42 -24.5 -67.5t-67.5 -27.5z" />
    <glyph glyph-name="gcommaaccent" unicode="&#x123;" 
d="M529 523v-493q0 -250 -243 -250q-88 0 -140.5 40.5t-59.5 115.5h88q15 -83 118 -83q75 0 112 40t37 128v37h-2q-49 -73 -139 -73q-78 0 -131.5 42.5t-76 106.5t-22.5 143q0 110 57 185.5t161 75.5q99 0 156 -89h2v74h83zM161 263q0 -85 34 -143.5t107 -58.5
q70 0 106.5 49.5t36.5 126.5q0 222 -141 222q-143 0 -143 -196zM346 769v-35q-49 -9 -49 -56v-5h43v-87h-86v87q0 43 24.5 69t67.5 27z" />
    <glyph glyph-name="Hcircumflex" unicode="&#x124;" 
d="M86 0v718h96v-297h235v297h97v-718h-97v335h-235v-335h-96zM299 876l-66 -93h-79l99 141h93l99 -141h-80z" />
    <glyph glyph-name="hcircumflex" unicode="&#x125;" 
d="M513 356v-356h-88v342q0 63 -24 90t-80 27q-69 0 -107.5 -44.5t-38.5 -129.5v-285h-88v718h88v-265h2q60 85 153 85q88 0 135.5 -45.5t47.5 -136.5zM129 876l-66 -93h-79l99 141h93l99 -141h-80z" />
    <glyph glyph-name="Hbar" unicode="&#x126;" 
d="M514 718v-124h59v-76h-59v-518h-97v335h-235v-335h-96v518h-59v76h59v124h96v-124h235v124h97zM182 421h235v97h-235v-97z" />
    <glyph glyph-name="hbar" unicode="&#x127;" 
d="M513 356v-356h-88v342q0 63 -24 90t-80 27q-69 0 -107.5 -44.5t-38.5 -129.5v-285h-88v588h-73v55h73v75h88v-75h175v-55h-175v-135h2q60 85 153 85q88 0 135.5 -45.5t47.5 -136.5z" />
    <glyph glyph-name="Itilde" unicode="&#x128;" 
d="M118 0v86h133v546h-133v86h363v-86h-133v-546h133v-86h-363zM421 912h49q-6 -51 -33 -80t-67 -29q-28 0 -80 18.5t-66 18.5q-36 0 -47 -44h-48q15 107 104 107q30 0 73.5 -18.5t65.5 -18.5q42 0 49 46z" />
    <glyph glyph-name="itilde" unicode="&#x129;" 
d="M96 523h248v-450h200v-73h-488v73h200v377h-160v73zM401 722h49q-6 -51 -33 -80t-67 -29q-28 0 -80 18.5t-66 18.5q-36 0 -47 -44h-48q15 107 104 107q30 0 73.5 -18.5t65.5 -18.5q42 0 49 46z" />
    <glyph glyph-name="Imacron" unicode="&#x12a;" 
d="M118 0v86h133v546h-133v86h363v-86h-133v-546h133v-86h-363zM457 869v-57h-314v57h314z" />
    <glyph glyph-name="imacron" unicode="&#x12b;" 
d="M96 523h248v-450h200v-73h-488v73h200v377h-160v73zM437 679v-57h-314v57h314z" />
    <glyph glyph-name="Ibreve" unicode="&#x12c;" 
d="M118 0v86h133v546h-133v86h363v-86h-133v-546h133v-86h-363zM149 921h49q16 -79 102 -79t102 79h49q-8 -136 -151 -136t-151 136z" />
    <glyph glyph-name="ibreve" unicode="&#x12d;" 
d="M96 523h248v-450h200v-73h-488v73h200v377h-160v73zM129 731h49q16 -79 102 -79t102 79h49q-8 -136 -151 -136t-151 136z" />
    <glyph glyph-name="Iogonek" unicode="&#x12e;" 
d="M481 0h-110q-33 -3 -58.5 -29.5t-25.5 -58.5q0 -21 11.5 -34t32.5 -13q18 0 41 10v-63q-30 -14 -65 -14q-45 0 -72 23.5t-27 65.5q0 65 67 113h-157v86h133v546h-133v86h363v-86h-133v-546h133v-86z" />
    <glyph glyph-name="iogonek" unicode="&#x12f;" 
d="M344 618h-88v100h88v-100zM96 523h248v-450h200v-73h-183q-33 -3 -58.5 -29.5t-25.5 -58.5q0 -21 11.5 -34t32.5 -13q18 0 41 10v-63q-30 -14 -65 -14q-45 0 -72 23.5t-27 65.5q0 65 67 113h-209v73h200v377h-160v73z" />
    <glyph glyph-name="Idotaccent" unicode="&#x130;" 
d="M118 0v86h133v546h-133v86h363v-86h-133v-546h133v-86h-363zM344 808h-88v100h88v-100z" />
    <glyph glyph-name="dotlessi" unicode="&#x131;" 
d="M96 523h248v-450h200v-73h-488v73h200v377h-160v73z" />
    <glyph glyph-name="Jcircumflex" unicode="&#x134;" 
d="M64 161v70h91v-49q0 -60 28 -89t90 -29q125 0 125 124v444h-286v86h383v-524q0 -101 -56.5 -157t-160.5 -56q-96 0 -155 46.5t-59 133.5zM309 876l-66 -93h-79l99 141h93l99 -141h-80z" />
    <glyph glyph-name="jcircumflex" unicode="&#x135;" 
d="M157 523h248v-600q0 -69 -43 -101t-131 -32q-41 0 -77 3v76h63q64 0 82 12t18 52v517h-160v73zM299 686l-66 -93h-79l99 141h93l99 -141h-80z" />
    <glyph glyph-name="Kcommaaccent" unicode="&#x136;" 
d="M87 0v718h96v-334l268 334h114l-274 -326l282 -392h-115l-230 317l-45 -54v-263h-96zM254 -235v34q49 10 49 55v6h-43v87h86v-87q0 -42 -24.5 -67.5t-67.5 -27.5z" />
    <glyph glyph-name="kcommaaccent" unicode="&#x137;" 
d="M325 328l212 -328h-113l-163 264l-73 -66v-198h-85v718h85v-416l225 221h112zM254 -235v34q49 10 49 55v6h-43v87h86v-87q0 -42 -24.5 -67.5t-67.5 -27.5z" />
    <glyph glyph-name="kgreenlandic" unicode="&#x138;" 
d="M325 328l212 -328h-113l-163 264l-73 -66v-198h-85v523h85v-221l225 221h112z" />
    <glyph glyph-name="Lacute" unicode="&#x139;" 
d="M99 0v718h96v-632h335v-86h-431zM288 924l-110 -141h-66l71 141h105z" />
    <glyph glyph-name="lacute" unicode="&#x13a;" 
d="M106 718h248v-645h200v-73h-488v73h200v572h-160v73zM428 924l-110 -141h-66l71 141h105z" />
    <glyph glyph-name="Lcommaaccent" unicode="&#x13b;" 
d="M99 0v718h96v-632h335v-86h-431zM264 -235v34q49 10 49 55v6h-43v87h86v-87q0 -42 -24.5 -67.5t-67.5 -27.5z" />
    <glyph glyph-name="lcommaaccent" unicode="&#x13c;" 
d="M106 718h248v-645h200v-73h-488v73h200v572h-160v73zM254 -235v34q49 10 49 55v6h-43v87h86v-87q0 -42 -24.5 -67.5t-67.5 -27.5z" />
    <glyph glyph-name="Lcaron" unicode="&#x13d;" 
d="M99 0v718h96v-632h335v-86h-431zM334 535v35q49 10 49 55v6h-43v87h86v-87q0 -43 -24.5 -68.5t-67.5 -27.5z" />
    <glyph glyph-name="lcaron" unicode="&#x13e;" 
d="M106 718h248v-645h200v-73h-488v73h200v572h-160v73zM404 535v35q49 10 49 55v6h-43v87h86v-87q0 -43 -24.5 -68.5t-67.5 -27.5z" />
    <glyph glyph-name="Ldot" unicode="&#x13f;" 
d="M99 0v718h96v-632h335v-86h-431zM474 317h-88v100h88v-100z" />
    <glyph glyph-name="ldot" unicode="&#x140;" 
d="M106 718h248v-645h200v-73h-488v73h200v572h-160v73zM600 317h-88v100h88v-100z" />
    <glyph glyph-name="Lslash" unicode="&#x141;" 
d="M195 718v-307l208 82v-77l-208 -82v-248h335v-86h-431v296l-62 -24v77l62 24v345h96z" />
    <glyph glyph-name="lslash" unicode="&#x142;" 
d="M106 718h248v-264l147 81v-82l-147 -81v-299h200v-73h-488v73h200v251l-140 -77v83l140 76v239h-160v73z" />
    <glyph glyph-name="Nacute" unicode="&#x143;" 
d="M85 0v718h114l219 -540h2v540h94v-718h-108l-226 540h-2v-540h-93zM428 924l-110 -141h-66l71 141h105z" />
    <glyph glyph-name="nacute" unicode="&#x144;" 
d="M513 356v-356h-88v322q0 70 -24 103.5t-88 33.5q-67 0 -102.5 -49.5t-35.5 -124.5v-285h-88v523h83v-74h2q62 89 158 89q89 0 136 -47t47 -135zM428 734l-110 -141h-66l71 141h105z" />
    <glyph glyph-name="Ncommaaccent" unicode="&#x145;" 
d="M85 0v718h114l219 -540h2v540h94v-718h-108l-226 540h-2v-540h-93zM254 -235v34q49 10 49 55v6h-43v87h86v-87q0 -42 -24.5 -67.5t-67.5 -27.5z" />
    <glyph glyph-name="ncommaaccent" unicode="&#x146;" 
d="M513 356v-356h-88v322q0 70 -24 103.5t-88 33.5q-67 0 -102.5 -49.5t-35.5 -124.5v-285h-88v523h83v-74h2q62 89 158 89q89 0 136 -47t47 -135zM254 -235v34q49 10 49 55v6h-43v87h86v-87q0 -42 -24.5 -67.5t-67.5 -27.5z" />
    <glyph glyph-name="Ncaron" unicode="&#x147;" 
d="M85 0v718h114l219 -540h2v540h94v-718h-108l-226 540h-2v-540h-93zM233 924l66 -93l66 93h80l-99 -141h-93l-99 141h79z" />
    <glyph glyph-name="ncaron" unicode="&#x148;" 
d="M513 356v-356h-88v322q0 70 -24 103.5t-88 33.5q-67 0 -102.5 -49.5t-35.5 -124.5v-285h-88v523h83v-74h2q62 89 158 89q89 0 136 -47t47 -135zM233 734l66 -93l66 93h80l-99 -141h-93l-99 141h79z" />
    <glyph glyph-name="Eng" unicode="&#x14a;" 
d="M420 188v530h94v-722q0 -103 -54 -158t-158 -55v83q59 0 87 29.5t28 93.5v11l-237 540h-2v-540h-93v718h114l219 -530h2z" />
    <glyph glyph-name="eng" unicode="&#x14b;" 
d="M87 0v523h83v-74h2q62 89 158 89q89 0 136 -47t47 -135v-365q0 -98 -53 -150.5t-149 -52.5v79q114 0 114 118v337q0 70 -24 103.5t-88 33.5q-67 0 -102.5 -49.5t-35.5 -124.5v-285h-88z" />
    <glyph glyph-name="Omacron" unicode="&#x14c;" 
d="M560 359q0 -162 -71 -270t-189 -108q-121 0 -190.5 107t-69.5 271t70 271t190 107q119 0 189.5 -107.5t70.5 -270.5zM460 359q0 123 -43 207.5t-117 84.5q-75 0 -117.5 -84.5t-42.5 -207.5q0 -124 42 -208t118 -84q73 0 116.5 84t43.5 208zM457 869v-57h-314v57h314z" />
    <glyph glyph-name="omacron" unicode="&#x14d;" 
d="M67 262q0 116 65 196t177 80t177.5 -80t65.5 -196t-65 -196.5t-178 -80.5q-111 0 -176.5 80t-65.5 197zM157 262q0 -83 38 -141.5t114 -58.5q75 0 114 59.5t39 140.5q0 82 -38.5 140.5t-114.5 58.5q-75 0 -113.5 -58t-38.5 -141zM457 679v-57h-314v57h314z" />
    <glyph glyph-name="Obreve" unicode="&#x14e;" 
d="M560 359q0 -162 -71 -270t-189 -108q-121 0 -190.5 107t-69.5 271t70 271t190 107q119 0 189.5 -107.5t70.5 -270.5zM460 359q0 123 -43 207.5t-117 84.5q-75 0 -117.5 -84.5t-42.5 -207.5q0 -124 42 -208t118 -84q73 0 116.5 84t43.5 208zM149 921h49q16 -79 102 -79
t102 79h49q-8 -136 -151 -136t-151 136z" />
    <glyph glyph-name="obreve" unicode="&#x14f;" 
d="M67 262q0 116 65 196t177 80t177.5 -80t65.5 -196t-65 -196.5t-178 -80.5q-111 0 -176.5 80t-65.5 197zM157 262q0 -83 38 -141.5t114 -58.5q75 0 114 59.5t39 140.5q0 82 -38.5 140.5t-114.5 58.5q-75 0 -113.5 -58t-38.5 -141zM149 731h49q16 -79 102 -79t102 79h49
q-8 -136 -151 -136t-151 136z" />
    <glyph glyph-name="Ohungarumlaut" unicode="&#x150;" 
d="M560 359q0 -162 -71 -270t-189 -108q-121 0 -190.5 107t-69.5 271t70 271t190 107q119 0 189.5 -107.5t70.5 -270.5zM460 359q0 123 -43 207.5t-117 84.5q-75 0 -117.5 -84.5t-42.5 -207.5q0 -124 42 -208t118 -84q73 0 116.5 84t43.5 208zM375 783h-48l52 141h90z
M239 783h-49l53 141h90z" />
    <glyph glyph-name="ohungarumlaut" unicode="&#x151;" 
d="M67 262q0 116 65 196t177 80t177.5 -80t65.5 -196t-65 -196.5t-178 -80.5q-111 0 -176.5 80t-65.5 197zM157 262q0 -83 38 -141.5t114 -58.5q75 0 114 59.5t39 140.5q0 82 -38.5 140.5t-114.5 58.5q-75 0 -113.5 -58t-38.5 -141zM375 593h-48l52 141h90zM239 593h-49
l53 141h90z" />
    <glyph glyph-name="OE" unicode="&#x152;" 
d="M281 718h300v-86h-189v-220h173v-86h-173v-240h191v-85h-313q-66 0 -116 29t-80 79.5t-45 112.5t-15 133q0 97 26.5 176.5t88.5 133t152 53.5zM295 86v549h-13q-83 0 -125.5 -77t-42.5 -219q0 -253 176 -253h5z" />
    <glyph glyph-name="oe" unicode="&#x153;" 
d="M479 164h87q-30 -179 -154 -179q-75 0 -115 61q-32 -60 -108 -60t-119 79.5t-43 196.5q0 115 43.5 195.5t118.5 80.5q77 0 117 -66q38 66 122 66q38 0 66.5 -24.5t45.5 -67.5t25 -96.5t8 -116.5h-222q0 -172 73 -172q18 0 34.5 29t20.5 74zM117 262q0 -85 17.5 -142.5
t54.5 -57.5q36 0 54.5 58.5t18.5 141.5q0 82 -18.5 141t-54.5 59q-37 0 -54.5 -58t-17.5 -142zM351 303h131q-6 156 -65 156q-28 0 -47 -47t-19 -109z" />
    <glyph glyph-name="Racute" unicode="&#x154;" 
d="M178 308v-308h-97v718h242q105 0 160 -49.5t55 -143.5q0 -118 -99 -172q47 -20 65.5 -49t20.5 -86l6 -134q2 -31 8 -44t29 -24v-16h-120q-17 49 -17 180q0 27 -3.5 46t-14 39.5t-33 31.5t-57.5 11h-145zM178 635v-244h135q126 0 126 124q0 120 -110 120h-151zM428 924
l-110 -141h-66l71 141h105z" />
    <glyph glyph-name="racute" unicode="&#x155;" 
d="M240 264v-264h-88v523h83v-87h2q75 102 197 102q36 0 73 -3v-91h-73q-85 0 -139.5 -51.5t-54.5 -128.5zM428 734l-110 -141h-66l71 141h105z" />
    <glyph glyph-name="Rcommaaccent" unicode="&#x156;" 
d="M178 308v-308h-97v718h242q105 0 160 -49.5t55 -143.5q0 -118 -99 -172q47 -20 65.5 -49t20.5 -86l6 -134q2 -31 8 -44t29 -24v-16h-120q-17 49 -17 180q0 27 -3.5 46t-14 39.5t-33 31.5t-57.5 11h-145zM178 635v-244h135q126 0 126 124q0 120 -110 120h-151zM254 -235
v34q49 10 49 55v6h-43v87h86v-87q0 -42 -24.5 -67.5t-67.5 -27.5z" />
    <glyph glyph-name="rcommaaccent" unicode="&#x157;" 
d="M240 264v-264h-88v523h83v-87h2q75 102 197 102q36 0 73 -3v-91h-73q-85 0 -139.5 -51.5t-54.5 -128.5zM154 -235v34q49 10 49 55v6h-43v87h86v-87q0 -42 -24.5 -67.5t-67.5 -27.5z" />
    <glyph glyph-name="Rcaron" unicode="&#x158;" 
d="M178 308v-308h-97v718h242q105 0 160 -49.5t55 -143.5q0 -118 -99 -172q47 -20 65.5 -49t20.5 -86l6 -134q2 -31 8 -44t29 -24v-16h-120q-17 49 -17 180q0 27 -3.5 46t-14 39.5t-33 31.5t-57.5 11h-145zM178 635v-244h135q126 0 126 124q0 120 -110 120h-151zM233 924
l66 -93l66 93h80l-99 -141h-93l-99 141h79z" />
    <glyph glyph-name="rcaron" unicode="&#x159;" 
d="M240 264v-264h-88v523h83v-87h2q75 102 197 102q36 0 73 -3v-91h-73q-85 0 -139.5 -51.5t-54.5 -128.5zM233 734l66 -93l66 93h80l-99 -141h-93l-99 141h79z" />
    <glyph glyph-name="Sacute" unicode="&#x15a;" 
d="M538 508h-91q-3 70 -44.5 108t-103.5 38q-65 0 -99.5 -32.5t-34.5 -93.5q0 -33 19 -54t66 -37l145 -47q163 -52 163 -192q0 -110 -71.5 -163.5t-179.5 -53.5q-117 0 -189.5 62t-70.5 189h91q0 -83 46.5 -125.5t121.5 -42.5t116.5 31.5t41.5 89.5q0 52 -28.5 80t-86.5 45
l-125 36q-153 45 -153 169q0 104 60.5 163t156.5 59q240 0 250 -229zM430 924l-110 -141h-66l71 141h105z" />
    <glyph glyph-name="sacute" unicode="&#x15b;" 
d="M498 374h-85q-4 88 -124 88q-41 0 -72.5 -16t-31.5 -48q0 -18 7.5 -32t17.5 -22t30.5 -15.5t36 -11.5t45 -10t46.5 -11q74 -20 110.5 -51.5t36.5 -96.5q0 -78 -59.5 -120.5t-147.5 -42.5q-221 0 -224 183h85q4 -107 138 -107q56 0 88 19.5t32 53.5q0 11 -1.5 19.5
t-4 15.5t-8.5 12.5t-11 10t-17 9t-21 8t-27 8t-31.5 7.5t-39 9t-45.5 11q-121 31 -121 137q0 75 57 116t142 41q86 0 139.5 -42t59.5 -122zM428 734l-110 -141h-66l71 141h105z" />
    <glyph glyph-name="Scircumflex" unicode="&#x15c;" 
d="M538 508h-91q-3 70 -44.5 108t-103.5 38q-65 0 -99.5 -32.5t-34.5 -93.5q0 -33 19 -54t66 -37l145 -47q163 -52 163 -192q0 -110 -71.5 -163.5t-179.5 -53.5q-117 0 -189.5 62t-70.5 189h91q0 -83 46.5 -125.5t121.5 -42.5t116.5 31.5t41.5 89.5q0 52 -28.5 80t-86.5 45
l-125 36q-153 45 -153 169q0 104 60.5 163t156.5 59q240 0 250 -229zM301 876l-66 -93h-79l99 141h93l99 -141h-80z" />
    <glyph glyph-name="scircumflex" unicode="&#x15d;" 
d="M498 374h-85q-4 88 -124 88q-41 0 -72.5 -16t-31.5 -48q0 -18 7.5 -32t17.5 -22t30.5 -15.5t36 -11.5t45 -10t46.5 -11q74 -20 110.5 -51.5t36.5 -96.5q0 -78 -59.5 -120.5t-147.5 -42.5q-221 0 -224 183h85q4 -107 138 -107q56 0 88 19.5t32 53.5q0 11 -1.5 19.5
t-4 15.5t-8.5 12.5t-11 10t-17 9t-21 8t-27 8t-31.5 7.5t-39 9t-45.5 11q-121 31 -121 137q0 75 57 116t142 41q86 0 139.5 -42t59.5 -122zM299 686l-66 -93h-79l99 141h93l99 -141h-80z" />
    <glyph glyph-name="Scedilla" unicode="&#x15e;" 
d="M538 508h-91q-3 70 -44.5 108t-103.5 38q-65 0 -99.5 -32.5t-34.5 -93.5q0 -33 19 -54t66 -37l145 -47q163 -52 163 -192q0 -105 -65.5 -158t-166.5 -58l-32 -44q24 4 31 4q39 0 61.5 -20.5t22.5 -54.5q0 -44 -34 -68t-83 -24q-47 0 -97 22l17 40q42 -15 65 -15
q26 0 41.5 11t15.5 31q0 17 -14.5 28t-34.5 11q-11 0 -38 -8l-17 19l50 68q-106 6 -170.5 68.5t-62.5 181.5h91q0 -83 46.5 -125.5t121.5 -42.5t116.5 31.5t41.5 89.5q0 52 -28.5 80t-86.5 45l-125 36q-153 45 -153 169q0 104 60.5 163t156.5 59q240 0 250 -229z" />
    <glyph glyph-name="scedilla" unicode="&#x15f;" 
d="M498 374h-85q-4 88 -124 88q-41 0 -72.5 -16t-31.5 -48q0 -18 7.5 -32t17.5 -22t30.5 -15.5t36 -11.5t45 -10t46.5 -11q74 -20 110.5 -51.5t36.5 -96.5q0 -76 -56.5 -118.5t-141.5 -44.5l-35 -47q24 4 31 4q39 0 61.5 -20.5t22.5 -54.5q0 -44 -34 -68t-83 -24
q-47 0 -97 22l17 40q42 -15 65 -15q26 0 41.5 11t15.5 31q0 17 -14.5 28t-34.5 11q-11 0 -38 -8l-17 19l54 73q-185 13 -188 181h85q4 -107 138 -107q56 0 88 19.5t32 53.5q0 11 -1.5 19.5t-4 15.5t-8.5 12.5t-11 10t-17 9t-21 8t-27 8t-31.5 7.5t-39 9t-45.5 11
q-121 31 -121 137q0 75 57 116t142 41q86 0 139.5 -42t59.5 -122z" />
    <glyph glyph-name="Scaron" unicode="&#x160;" 
d="M538 508h-91q-3 70 -44.5 108t-103.5 38q-65 0 -99.5 -32.5t-34.5 -93.5q0 -33 19 -54t66 -37l145 -47q163 -52 163 -192q0 -110 -71.5 -163.5t-179.5 -53.5q-117 0 -189.5 62t-70.5 189h91q0 -83 46.5 -125.5t121.5 -42.5t116.5 31.5t41.5 89.5q0 52 -28.5 80t-86.5 45
l-125 36q-153 45 -153 169q0 104 60.5 163t156.5 59q240 0 250 -229zM235 924l66 -93l66 93h80l-99 -141h-93l-99 141h79z" />
    <glyph glyph-name="scaron" unicode="&#x161;" 
d="M498 374h-85q-4 88 -124 88q-41 0 -72.5 -16t-31.5 -48q0 -18 7.5 -32t17.5 -22t30.5 -15.5t36 -11.5t45 -10t46.5 -11q74 -20 110.5 -51.5t36.5 -96.5q0 -78 -59.5 -120.5t-147.5 -42.5q-221 0 -224 183h85q4 -107 138 -107q56 0 88 19.5t32 53.5q0 11 -1.5 19.5
t-4 15.5t-8.5 12.5t-11 10t-17 9t-21 8t-27 8t-31.5 7.5t-39 9t-45.5 11q-121 31 -121 137q0 75 57 116t142 41q86 0 139.5 -42t59.5 -122zM233 734l66 -93l66 93h80l-99 -141h-93l-99 141h79z" />
    <glyph glyph-name="uni0162" unicode="&#x162;" 
d="M250 0v632h-212v86h523v-86h-214v-632h-97zM254 -235v34q49 10 49 55v6h-43v87h86v-87q0 -42 -24.5 -67.5t-67.5 -27.5z" />
    <glyph glyph-name="uni0163" unicode="&#x163;" 
d="M531 450h-204v-300q0 -42 25 -61.5t85 -19.5h94v-69q-75 -7 -126 -7q-87 0 -126.5 35.5t-39.5 116.5v305h-171v73h171v146h88v-146h204v-73zM314 -235v34q49 10 49 55v6h-43v87h86v-87q0 -42 -24.5 -67.5t-67.5 -27.5z" />
    <glyph glyph-name="Tcaron" unicode="&#x164;" 
d="M250 0v632h-212v86h523v-86h-214v-632h-97zM233 924l66 -93l66 93h80l-99 -141h-93l-99 141h79z" />
    <glyph glyph-name="tcaron" unicode="&#x165;" 
d="M531 450h-204v-300q0 -42 25 -61.5t85 -19.5h94v-69q-75 -7 -126 -7q-87 0 -126.5 35.5t-39.5 116.5v305h-171v73h171v146h88v-146h204v-73zM454 535v35q49 10 49 55v6h-43v87h86v-87q0 -43 -24.5 -68.5t-67.5 -27.5z" />
    <glyph glyph-name="Tbar" unicode="&#x166;" 
d="M115 312v81h135v239h-212v86h523v-86h-214v-239h138v-81h-138v-312h-97v312h-135z" />
    <glyph glyph-name="tbar" unicode="&#x167;" 
d="M531 450h-204v-74h194v-67h-194v-159q0 -42 25 -61.5t85 -19.5h94v-69q-75 -7 -126 -7q-87 0 -126.5 35.5t-39.5 116.5v164h-171v67h171v74h-171v73h171v146h88v-146h204v-73z" />
    <glyph glyph-name="Utilde" unicode="&#x168;" 
d="M434 718h98v-466q0 -126 -66 -198.5t-173 -72.5q-104 0 -165 68t-61 190v479h96v-452q0 -93 33.5 -146t98.5 -53t102 51t37 146v454zM421 912h49q-6 -51 -33 -80t-67 -29q-28 0 -80 18.5t-66 18.5q-36 0 -47 -44h-48q15 107 104 107q30 0 73.5 -18.5t65.5 -18.5
q42 0 49 46z" />
    <glyph glyph-name="utilde" unicode="&#x169;" 
d="M89 147v376h88v-347q0 -115 101 -115q70 0 107 49.5t37 124.5v288h88v-523h-83v76l-2 2q-49 -93 -166 -93q-76 0 -123 42.5t-47 119.5zM421 722h49q-6 -51 -33 -80t-67 -29q-28 0 -80 18.5t-66 18.5q-36 0 -47 -44h-48q15 107 104 107q30 0 73.5 -18.5t65.5 -18.5
q42 0 49 46z" />
    <glyph glyph-name="Umacron" unicode="&#x16a;" 
d="M434 718h98v-466q0 -126 -66 -198.5t-173 -72.5q-104 0 -165 68t-61 190v479h96v-452q0 -93 33.5 -146t98.5 -53t102 51t37 146v454zM457 869v-57h-314v57h314z" />
    <glyph glyph-name="umacron" unicode="&#x16b;" 
d="M89 147v376h88v-347q0 -115 101 -115q70 0 107 49.5t37 124.5v288h88v-523h-83v76l-2 2q-49 -93 -166 -93q-76 0 -123 42.5t-47 119.5zM457 679v-57h-314v57h314z" />
    <glyph glyph-name="Ubreve" unicode="&#x16c;" 
d="M434 718h98v-466q0 -126 -66 -198.5t-173 -72.5q-104 0 -165 68t-61 190v479h96v-452q0 -93 33.5 -146t98.5 -53t102 51t37 146v454zM149 921h49q16 -79 102 -79t102 79h49q-8 -136 -151 -136t-151 136z" />
    <glyph glyph-name="ubreve" unicode="&#x16d;" 
d="M89 147v376h88v-347q0 -115 101 -115q70 0 107 49.5t37 124.5v288h88v-523h-83v76l-2 2q-49 -93 -166 -93q-76 0 -123 42.5t-47 119.5zM149 731h49q16 -79 102 -79t102 79h49q-8 -136 -151 -136t-151 136z" />
    <glyph glyph-name="Uring" unicode="&#x16e;" 
d="M434 718h98v-466q0 -126 -66 -198.5t-173 -72.5q-104 0 -165 68t-61 190v479h96v-452q0 -93 33.5 -146t98.5 -53t102 51t37 146v454zM300 946q40 0 66 -26.5t26 -65.5t-26 -65.5t-66 -26.5t-66 26t-26 66q0 38 26 65t66 27zM248 854q0 -22 15 -37t37 -15q21 0 36.5 15
t15.5 37t-15.5 37t-36.5 15q-22 0 -37 -15t-15 -37z" />
    <glyph glyph-name="uring" unicode="&#x16f;" 
d="M89 147v376h88v-347q0 -115 101 -115q70 0 107 49.5t37 124.5v288h88v-523h-83v76l-2 2q-49 -93 -166 -93q-76 0 -123 42.5t-47 119.5zM300 756q40 0 66 -26.5t26 -65.5t-26 -65.5t-66 -26.5t-66 26t-26 66q0 38 26 65t66 27zM248 664q0 -22 15 -37t37 -15q21 0 36.5 15
t15.5 37t-15.5 37t-36.5 15q-22 0 -37 -15t-15 -37z" />
    <glyph glyph-name="Uhungarumlaut" unicode="&#x170;" 
d="M434 718h98v-466q0 -126 -66 -198.5t-173 -72.5q-104 0 -165 68t-61 190v479h96v-452q0 -93 33.5 -146t98.5 -53t102 51t37 146v454zM375 783h-48l52 141h90zM239 783h-49l53 141h90z" />
    <glyph glyph-name="uhungarumlaut" unicode="&#x171;" 
d="M89 147v376h88v-347q0 -115 101 -115q70 0 107 49.5t37 124.5v288h88v-523h-83v76l-2 2q-49 -93 -166 -93q-76 0 -123 42.5t-47 119.5zM375 593h-48l52 141h90zM239 593h-49l53 141h90z" />
    <glyph glyph-name="Uogonek" unicode="&#x172;" 
d="M434 718h98v-466q0 -93 -37 -158.5t-101 -92.5q-30 -12 -53.5 -36t-23.5 -53q0 -21 11.5 -34t32.5 -13q18 0 41 10v-63q-30 -14 -65 -14q-45 0 -72 23.5t-27 65.5q0 53 44 94q-99 4 -157 71.5t-58 186.5v479h96v-452q0 -93 33.5 -146t98.5 -53t102 51t37 146v454z" />
    <glyph glyph-name="uogonek" unicode="&#x173;" 
d="M89 147v376h88v-347q0 -115 101 -115q70 0 107 49.5t37 124.5v288h88v-523q-29 -6 -51 -33t-22 -55q0 -21 12 -34t32 -13q18 0 41 10v-63q-30 -14 -65 -14q-45 0 -72 24t-27 65q0 65 69 113v76l-2 2q-49 -93 -166 -93q-76 0 -123 42.5t-47 119.5z" />
    <glyph glyph-name="Wcircumflex" unicode="&#x174;" 
d="M300 585l-86 -585h-121l-89 718h108l50 -571h2l75 571h132l73 -571h2l52 571h99l-90 -718h-121l-84 585h-2zM299 876l-66 -93h-79l99 141h93l99 -141h-80z" />
    <glyph glyph-name="wcircumflex" unicode="&#x175;" 
d="M296 385l-72 -385h-100l-111 523h95l70 -391h2l61 391h119l62 -391h2l76 391h87l-111 -523h-102l-76 385h-2zM299 686l-66 -93h-79l99 141h93l99 -141h-80z" />
    <glyph glyph-name="Ycircumflex" unicode="&#x176;" 
d="M349 289v-289h-97v289l-231 429h113l166 -345l166 345h114zM299 876l-66 -93h-79l99 141h93l99 -141h-80z" />
    <glyph glyph-name="ycircumflex" unicode="&#x177;" 
d="M302 97l160 426h96l-207 -513q-50 -134 -83 -181q-31 -43 -100 -43q-35 0 -59 8v80q25 -9 55 -9q31 0 47 21q18 25 44 99l-214 538h99l160 -426h2zM299 686l-66 -93h-79l99 141h93l99 -141h-80z" />
    <glyph glyph-name="Ydieresis" unicode="&#x178;" 
d="M349 289v-289h-97v289l-231 429h113l166 -345l166 345h114zM426 908v-102h-90v102h90zM264 908v-102h-90v102h90z" />
    <glyph glyph-name="Zacute" unicode="&#x179;" 
d="M537 86v-86h-485v81l360 551h-327v86h452v-84l-362 -548h362zM428 924l-110 -141h-66l71 141h105z" />
    <glyph glyph-name="zacute" unicode="&#x17a;" 
d="M499 451l-292 -378h302v-73h-419v69l296 381h-271v73h384v-72zM428 734l-110 -141h-66l71 141h105z" />
    <glyph glyph-name="Zdotaccent" unicode="&#x17b;" 
d="M537 86v-86h-485v81l360 551h-327v86h452v-84l-362 -548h362zM344 808h-88v100h88v-100z" />
    <glyph glyph-name="zdotaccent" unicode="&#x17c;" 
d="M499 451l-292 -378h302v-73h-419v69l296 381h-271v73h384v-72zM344 618h-88v100h88v-100z" />
    <glyph glyph-name="Zcaron" unicode="&#x17d;" 
d="M537 86v-86h-485v81l360 551h-327v86h452v-84l-362 -548h362zM233 924l66 -93l66 93h80l-99 -141h-93l-99 141h79z" />
    <glyph glyph-name="zcaron" unicode="&#x17e;" 
d="M499 451l-292 -378h302v-73h-419v69l296 381h-271v73h384v-72zM233 734l66 -93l66 93h80l-99 -141h-93l-99 141h79z" />
    <glyph glyph-name="florin" unicode="&#x192;" 
d="M554 703l-15 -77q-33 16 -57 16q-29 0 -50.5 -24.5t-30.5 -72.5l-19 -103h118v-70h-131l-58 -308q-10 -52 -17.5 -84t-23.5 -72t-36 -62t-52.5 -37.5t-74.5 -15.5q-38 0 -62 12l15 80q25 -13 52 -13q24 0 41 11.5t28 34t16 41.5t11 49l71 364h-107v70h121l24 118
q6 34 15.5 58.5t27 49t47 37.5t69.5 13q45 0 78 -15z" />
    <glyph glyph-name="Scommaaccent" unicode="&#x218;" 
d="M538 508h-91q-3 70 -44.5 108t-103.5 38q-65 0 -99.5 -32.5t-34.5 -93.5q0 -33 19 -54t66 -37l145 -47q163 -52 163 -192q0 -110 -71.5 -163.5t-179.5 -53.5q-117 0 -189.5 62t-70.5 189h91q0 -83 46.5 -125.5t121.5 -42.5t116.5 31.5t41.5 89.5q0 52 -28.5 80t-86.5 45
l-125 36q-153 45 -153 169q0 104 60.5 163t156.5 59q240 0 250 -229zM256 -235v34q49 10 49 55v6h-43v87h86v-87q0 -42 -24.5 -67.5t-67.5 -27.5z" />
    <glyph glyph-name="scommaaccent" unicode="&#x219;" 
d="M498 374h-85q-4 88 -124 88q-41 0 -72.5 -16t-31.5 -48q0 -18 7.5 -32t17.5 -22t30.5 -15.5t36 -11.5t45 -10t46.5 -11q74 -20 110.5 -51.5t36.5 -96.5q0 -78 -59.5 -120.5t-147.5 -42.5q-221 0 -224 183h85q4 -107 138 -107q56 0 88 19.5t32 53.5q0 11 -1.5 19.5
t-4 15.5t-8.5 12.5t-11 10t-17 9t-21 8t-27 8t-31.5 7.5t-39 9t-45.5 11q-121 31 -121 137q0 75 57 116t142 41q86 0 139.5 -42t59.5 -122zM254 -235v34q49 10 49 55v6h-43v87h86v-87q0 -42 -24.5 -67.5t-67.5 -27.5z" />
    <glyph glyph-name="uni021A" unicode="&#x21a;" 
d="M250 0v632h-212v86h523v-86h-214v-632h-97zM254 -235v34q49 10 49 55v6h-43v87h86v-87q0 -42 -24.5 -67.5t-67.5 -27.5z" />
    <glyph glyph-name="uni021B" unicode="&#x21b;" 
d="M531 450h-204v-300q0 -42 25 -61.5t85 -19.5h94v-69q-75 -7 -126 -7q-87 0 -126.5 35.5t-39.5 116.5v305h-171v73h171v146h88v-146h204v-73zM314 -235v34q49 10 49 55v6h-43v87h86v-87q0 -42 -24.5 -67.5t-67.5 -27.5z" />
    <glyph glyph-name="dotlessj" unicode="&#x237;" 
d="M157 523h248v-600q0 -69 -43 -101t-131 -32q-41 0 -77 3v76h63q64 0 82 12t18 52v517h-160v73z" />
    <glyph glyph-name="circumflex" unicode="&#x2c6;" 
d="M299 686l-66 -93h-79l99 141h93l99 -141h-80z" />
    <glyph glyph-name="caron" unicode="&#x2c7;" 
d="M233 734l66 -93l66 93h80l-99 -141h-93l-99 141h79z" />
    <glyph glyph-name="uni02C9" unicode="&#x2c9;" 
d="M457 679v-57h-314v57h314z" />
    <glyph glyph-name="breve" unicode="&#x2d8;" 
d="M149 731h49q16 -79 102 -79t102 79h49q-8 -136 -151 -136t-151 136z" />
    <glyph glyph-name="dotaccent" unicode="&#x2d9;" 
d="M344 618h-88v100h88v-100z" />
    <glyph glyph-name="ring" unicode="&#x2da;" 
d="M300 756q40 0 66 -26.5t26 -65.5t-26 -65.5t-66 -26.5t-66 26t-26 66q0 38 26 65t66 27zM248 664q0 -22 15 -37t37 -15q21 0 36.5 15t15.5 37t-15.5 37t-36.5 15q-22 0 -37 -15t-15 -37z" />
    <glyph glyph-name="ogonek" unicode="&#x2db;" 
d="M306 13l75 -13q-33 -3 -58.5 -29.5t-25.5 -58.5q0 -21 11.5 -34t32.5 -13q18 0 41 10v-63q-30 -14 -65 -14q-45 0 -72 23.5t-27 65.5q0 74 88 126z" />
    <glyph glyph-name="tilde" unicode="&#x2dc;" 
d="M421 722h49q-6 -51 -33 -80t-67 -29q-28 0 -80 18.5t-66 18.5q-36 0 -47 -44h-48q15 107 104 107q30 0 73.5 -18.5t65.5 -18.5q42 0 49 46z" />
    <glyph glyph-name="hungarumlaut" unicode="&#x2dd;" 
d="M375 593h-48l52 141h90zM239 593h-49l53 141h90z" />
    <glyph glyph-name="uni0374" unicode="&#x374;" 
d="M372 732l-77 -171h-67l38 171h106z" />
    <glyph glyph-name="uni0375" unicode="&#x375;" 
d="M228 -203l77 171h67l-38 -171h-106z" />
    <glyph glyph-name="uni037E" unicode="&#x37e;" 
d="M248 410v106h104v-106h-104zM248 0v106h104v-98q0 -134 -104 -155v46q53 6 53 101h-53z" />
    <glyph glyph-name="tonos" unicode="&#x384;" 
d="M407 742l-71 -159h-64l28 159h107z" />
    <glyph glyph-name="dieresistonos" unicode="&#x385;" 
d="M357 737l-45 -144h-53l7 144h91zM475 708v-90h-88v90h88zM213 708v-90h-88v90h88z" />
    <glyph glyph-name="Alphatonos" unicode="&#x386;" 
d="M20 0l230 718h110l220 -718h-106l-62 209h-227l-65 -209h-100zM211 295h177l-86 316h-2zM167 718l-71 -159h-64l28 159h107z" />
    <glyph glyph-name="anoteleia" unicode="&#x387;" 
d="M352 326v-106h-104v106h104z" />
    <glyph glyph-name="Epsilontonos" unicode="&#x388;" 
d="M95 0v718h433v-86h-336v-220h303v-86h-303v-240h343v-86h-440zM67 718l-71 -159h-64l28 159h107z" />
    <glyph glyph-name="Etatonos" unicode="&#x389;" 
d="M86 0v718h96v-297h235v297h97v-718h-97v335h-235v-335h-96zM67 718l-71 -159h-64l28 159h107z" />
    <glyph glyph-name="Iotatonos" unicode="&#x38a;" 
d="M118 0v86h133v546h-133v86h363v-86h-133v-546h133v-86h-363zM67 718l-71 -159h-64l28 159h107z" />
    <glyph glyph-name="Omicrontonos" unicode="&#x38c;" 
d="M560 359q0 -162 -71 -270t-189 -108q-121 0 -190.5 107t-69.5 271t70 271t190 107q119 0 189.5 -107.5t70.5 -270.5zM460 359q0 123 -43 207.5t-117 84.5q-75 0 -117.5 -84.5t-42.5 -207.5q0 -124 42 -208t118 -84q73 0 116.5 84t43.5 208zM67 718l-71 -159h-64l28 159
h107z" />
    <glyph glyph-name="Upsilontonos" unicode="&#x38e;" 
d="M359 279v-279h-97v279l-191 439h113l126 -335l126 335h114zM67 718l-71 -159h-64l28 159h107z" />
    <glyph glyph-name="Omegatonos" unicode="&#x38f;" 
d="M566 86v-86h-242v78q136 122 136 314q0 111 -44 185t-115 74q-74 0 -118 -73.5t-44 -185.5q0 -197 138 -314v-78h-243v86h131v4q-123 114 -123 311q0 146 73.5 241t185.5 95q111 0 184 -95t73 -241q0 -193 -124 -311v-4h132zM67 718l-71 -159h-64l28 159h107z" />
    <glyph glyph-name="iotadieresistonos" unicode="&#x390;" 
d="M236 523h88v-366q0 -48 19 -68.5t65 -20.5q38 0 75 4v-77q-54 -6 -104 -6q-82 0 -112.5 37.5t-30.5 125.5v371zM347 737l-45 -144h-53l7 144h91zM465 708v-90h-88v90h88zM203 708v-90h-88v90h88z" />
    <glyph glyph-name="Alpha" unicode="&#x391;" 
d="M20 0l230 718h110l220 -718h-106l-62 209h-227l-65 -209h-100zM211 295h177l-86 316h-2z" />
    <glyph glyph-name="Beta" unicode="&#x392;" 
d="M84 0v718h255q76 0 129.5 -49t53.5 -132q0 -47 -26 -87t-70 -63q130 -52 130 -175q0 -98 -66 -155t-158 -57h-248zM180 414h116q129 0 129 116q0 105 -128 105h-117v-221zM180 83h147q62 0 97 35.5t35 95.5t-38.5 90.5t-109.5 30.5h-131v-252z" />
    <glyph glyph-name="Gamma" unicode="&#x393;" 
d="M100 0v718h450v-88h-354v-630h-96z" />
    <glyph glyph-name="uni0394" unicode="&#x394;" 
d="M575 0h-550l231 718h98zM300 588l-143 -502h280l-135 502h-2z" />
    <glyph glyph-name="Epsilon" unicode="&#x395;" 
d="M95 0v718h433v-86h-336v-220h303v-86h-303v-240h343v-86h-440z" />
    <glyph glyph-name="Zeta" unicode="&#x396;" 
d="M537 86v-86h-485v81l360 551h-327v86h452v-84l-362 -548h362z" />
    <glyph glyph-name="Eta" unicode="&#x397;" 
d="M86 0v718h96v-297h235v297h97v-718h-97v335h-235v-335h-96z" />
    <glyph glyph-name="Theta" unicode="&#x398;" 
d="M560 359q0 -162 -71 -270t-189 -108q-121 0 -190.5 107t-69.5 271t70 271t190 107q119 0 189.5 -107.5t70.5 -270.5zM460 359q0 123 -43 207.5t-117 84.5q-75 0 -117.5 -84.5t-42.5 -207.5q0 -124 42 -208t118 -84q73 0 116.5 84t43.5 208zM170 328v86h260v-86h-260z" />
    <glyph glyph-name="Iota" unicode="&#x399;" 
d="M118 0v86h133v546h-133v86h363v-86h-133v-546h133v-86h-363z" />
    <glyph glyph-name="Kappa" unicode="&#x39a;" 
d="M87 0v718h96v-334l268 334h114l-274 -326l282 -392h-115l-230 317l-45 -54v-263h-96z" />
    <glyph glyph-name="Lambda" unicode="&#x39b;" 
d="M300 611l-180 -611h-99l230 718h110l219 -718h-106l-172 611h-2z" />
    <glyph glyph-name="Mu" unicode="&#x39c;" 
d="M36 0v718h149l114 -567h3l113 567h149v-718h-94v424q0 91 2 139h-3l-121 -563h-96l-121 562h-3q2 -46 2 -138v-424h-94z" />
    <glyph glyph-name="Nu" unicode="&#x39d;" 
d="M85 0v718h114l219 -540h2v540h94v-718h-108l-226 540h-2v-540h-93z" />
    <glyph glyph-name="Xi" unicode="&#x39e;" 
d="M70 634v84h461v-84h-461zM98 327v85h405v-85h-405zM53 0v87h494v-87h-494z" />
    <glyph glyph-name="Omicron" unicode="&#x39f;" 
d="M560 359q0 -162 -71 -270t-189 -108q-121 0 -190.5 107t-69.5 271t70 271t190 107q119 0 189.5 -107.5t70.5 -270.5zM460 359q0 123 -43 207.5t-117 84.5q-75 0 -117.5 -84.5t-42.5 -207.5q0 -124 42 -208t118 -84q73 0 116.5 84t43.5 208z" />
    <glyph glyph-name="Pi" unicode="&#x3a0;" 
d="M70 0v718h459v-718h-98v632h-264v-632h-97z" />
    <glyph glyph-name="Rho" unicode="&#x3a1;" 
d="M189 303v-303h-97v718h253q93 0 153 -55t60 -147q0 -96 -58 -154.5t-155 -58.5h-156zM189 635v-249h123q146 0 146 129q0 120 -142 120h-127z" />
    <glyph glyph-name="Sigma" unicode="&#x3a3;" 
d="M557 0h-514v76l240 296l-227 270v76h484v-86h-345l212 -255l1 -4l-231 -287h380v-86z" />
    <glyph glyph-name="Tau" unicode="&#x3a4;" 
d="M250 0v632h-212v86h523v-86h-214v-632h-97z" />
    <glyph glyph-name="Upsilon" unicode="&#x3a5;" 
d="M349 289v-289h-97v289l-231 429h113l166 -345l166 345h114z" />
    <glyph glyph-name="Phi" unicode="&#x3a6;" 
d="M255 646v86h90v-86q102 -3 165.5 -78t63.5 -207q0 -134 -63.5 -208t-165.5 -78v-90h-90v90q-102 4 -165.5 78.5t-63.5 207.5q0 132 63.5 207t165.5 78zM345 564v-408h8q54 0 88.5 57.5t34.5 146.5q0 90 -34.5 147t-89.5 57h-7zM256 156v408h-8q-55 0 -89 -57t-34 -147
q0 -89 34 -146.5t89 -57.5h8z" />
    <glyph glyph-name="Chi" unicode="&#x3a7;" 
d="M363 368l212 -368h-120l-153 295l-159 -295h-117l217 368l-201 350h122l142 -275l142 275h116z" />
    <glyph glyph-name="Psi" unicode="&#x3a8;" 
d="M252 245v473h96v-473q62 9 90 49.5t28 139.5v284h97v-275q0 -147 -50.5 -209t-164.5 -74v-160h-96v160q-115 12 -165 74t-50 209v275h97v-284q0 -99 27.5 -139.5t90.5 -49.5z" />
    <glyph glyph-name="uni03A9" unicode="&#x3a9;" 
d="M566 86v-86h-242v78q136 122 136 314q0 111 -44 185t-115 74q-74 0 -118 -73.5t-44 -185.5q0 -197 138 -314v-78h-243v86h131v4q-123 114 -123 311q0 146 73.5 241t185.5 95q111 0 184 -95t73 -241q0 -193 -124 -311v-4h132z" />
    <glyph glyph-name="Iotadieresis" unicode="&#x3aa;" 
d="M118 0v86h133v546h-133v86h363v-86h-133v-546h133v-86h-363zM426 908v-102h-90v102h90zM264 908v-102h-90v102h90z" />
    <glyph glyph-name="Upsilondieresis" unicode="&#x3ab;" 
d="M349 289v-289h-97v289l-231 429h113l166 -345l166 345h114zM426 908v-102h-90v102h90zM264 908v-102h-90v102h90z" />
    <glyph glyph-name="alphatonos" unicode="&#x3ac;" 
d="M496 523v-413q0 -23 6 -32.5t23 -9.5q15 0 28 3v-76q-17 -6 -51 -6q-87 0 -92 101h-3q-20 -48 -60.5 -77t-86.5 -29q-93 0 -143 81t-50 192q0 76 20 137.5t67.5 102.5t115.5 41q85 0 136 -98h2v83h88zM407 267q0 76 -32 134.5t-92 58.5q-65 0 -95 -55.5t-30 -138.5
q0 -86 30.5 -145.5t96.5 -59.5q39 0 67.5 34.5t41.5 80t13 91.5zM387 742l-71 -159h-64l28 159h107z" />
    <glyph glyph-name="epsilontonos" unicode="&#x3ad;" 
d="M363 309v-72q-23 3 -68 3q-125 0 -125 -85q0 -48 38.5 -72t90.5 -24q62 0 98 29t38 80h87q-2 -92 -64.5 -139t-161.5 -47q-92 0 -155 41.5t-63 124.5q0 89 96 128v2q-75 40 -75 111q0 75 59.5 112.5t143.5 37.5t142 -40.5t64 -118.5h-86q-13 82 -117 82q-55 0 -86.5 -23
t-31.5 -62q0 -69 122 -69q11 0 29 0.5t25 0.5zM407 742l-71 -159h-64l28 159h107z" />
    <glyph glyph-name="etatonos" unicode="&#x3ae;" 
d="M191 450h2q59 89 149 89q82 0 127 -47.5t45 -135.5v-563h-88v528q0 71 -22 104.5t-79 33.5q-63 0 -96 -49.5t-33 -124.5v-285h-87v396q0 34 -8 47.5t-36 13.5q-12 0 -19 -2v70q21 7 50 7q41 0 63 -19.5t32 -62.5zM427 742l-71 -159h-64l28 159h107z" />
    <glyph glyph-name="iotatonos" unicode="&#x3af;" 
d="M236 523h88v-366q0 -48 19 -68.5t65 -20.5q38 0 75 4v-77q-54 -6 -104 -6q-82 0 -112.5 37.5t-30.5 125.5v371zM387 742l-71 -159h-64l28 159h107z" />
    <glyph glyph-name="upsilondieresistonos" unicode="&#x3b0;" 
d="M422 523h93q37 -132 37 -245q0 -293 -232 -293q-87 0 -138.5 45.5t-51.5 132.5v238q0 31 -9 43.5t-32 12.5q-15 0 -21 -2v70q21 7 48 7q58 0 80 -29t22 -96v-221q0 -58 29 -91t80 -33q79 0 108 54.5t29 152.5q0 137 -42 254zM357 737l-45 -144h-53l7 144h91zM475 708v-90
h-88v90h88zM213 708v-90h-88v90h88z" />
    <glyph glyph-name="alpha" unicode="&#x3b1;" 
d="M496 523v-413q0 -23 6 -32.5t23 -9.5q15 0 28 3v-76q-17 -6 -51 -6q-87 0 -92 101h-3q-20 -48 -60.5 -77t-86.5 -29q-93 0 -143 81t-50 192q0 76 20 137.5t67.5 102.5t115.5 41q85 0 136 -98h2v83h88zM407 267q0 76 -32 134.5t-92 58.5q-65 0 -95 -55.5t-30 -138.5
q0 -86 30.5 -145.5t96.5 -59.5q39 0 67.5 34.5t41.5 80t13 91.5z" />
    <glyph glyph-name="beta" unicode="&#x3b2;" 
d="M170 -207h-88v696q0 108 59.5 173.5t166.5 65.5q88 0 147 -48t59 -132q0 -108 -116 -157v-1q73 -13 116.5 -61.5t43.5 -119.5q0 -96 -68.5 -160t-166.5 -64q-93 0 -153 59v-251zM170 485v-365q52 -58 139 -58q68 0 113 38.5t45 104.5q0 70 -47 106t-121 36q-19 0 -43 -3
v76q22 -3 36 -2q61 -1 98 31.5t37 91.5q0 52 -34 81.5t-89 29.5q-70 0 -102 -40t-32 -127z" />
    <glyph glyph-name="gamma" unicode="&#x3b3;" 
d="M473 524h88q-31 -272 -212 -526l-3 -205h-92q7 120 7 172q0 137 -71 320q-67 173 -131 173q-12 0 -21 -3v71q22 7 49 7q77 0 135 -114q65 -126 108 -315h2q111 178 141 420z" />
    <glyph glyph-name="delta" unicode="&#x3b4;" 
d="M491 714v-85q-75 26 -164 26q-41 0 -65.5 -12t-24.5 -31q0 -15 6.5 -23t23 -18t27.5 -20l98 -62q80 -51 115 -104.5t35 -135.5q0 -112 -67.5 -188t-177.5 -76q-103 0 -171.5 70.5t-68.5 173.5q0 87 53.5 156.5t137.5 96.5q-51 34 -76 66t-25 70q0 42 30 69t68.5 36
t84.5 9q90 0 161 -18zM316 436q-168 -57 -168 -201q0 -71 41.5 -122t109.5 -51q71 0 112 53t41 127q0 68 -30.5 106.5t-105.5 87.5z" />
    <glyph glyph-name="epsilon" unicode="&#x3b5;" 
d="M363 309v-72q-23 3 -68 3q-125 0 -125 -85q0 -48 38.5 -72t90.5 -24q62 0 98 29t38 80h87q-2 -92 -64.5 -139t-161.5 -47q-92 0 -155 41.5t-63 124.5q0 89 96 128v2q-75 40 -75 111q0 75 59.5 112.5t143.5 37.5t142 -40.5t64 -118.5h-86q-13 82 -117 82q-55 0 -86.5 -23
t-31.5 -62q0 -69 122 -69q11 0 29 0.5t25 0.5z" />
    <glyph glyph-name="zeta" unicode="&#x3b6;" 
d="M496 718v-62q-153 -91 -228.5 -189t-75.5 -213q0 -85 41.5 -119.5t141.5 -53.5q63 -12 94.5 -36t31.5 -77q0 -60 -46 -164h-73q34 80 34 137q0 29 -14.5 43t-51.5 20q-125 21 -188 73.5t-63 159.5q0 221 269 405v2h-223v74h351z" />
    <glyph glyph-name="eta" unicode="&#x3b7;" 
d="M191 450h2q59 89 149 89q82 0 127 -47.5t45 -135.5v-563h-88v528q0 71 -22 104.5t-79 33.5q-63 0 -96 -49.5t-33 -124.5v-285h-87v396q0 34 -8 47.5t-36 13.5q-12 0 -19 -2v70q21 7 50 7q41 0 63 -19.5t32 -62.5z" />
    <glyph glyph-name="theta" unicode="&#x3b8;" 
d="M64 357q0 73 10.5 133.5t35 116.5t73 88t116.5 32t116.5 -32t73.5 -88t35.5 -116.5t10.5 -133.5t-10.5 -134t-35.5 -117.5t-73.5 -88.5t-116.5 -32q-229 0 -235 372zM154 402h290q-2 32 -5 56t-9 55.5t-16.5 54t-25 43t-37.5 31t-52 10.5q-43 0 -72 -22.5t-43.5 -63.5
t-20.5 -78t-9 -86zM444 327h-290q3 -130 39.5 -198t105.5 -68q68 0 105.5 68t39.5 198z" />
    <glyph glyph-name="iota" unicode="&#x3b9;" 
d="M236 523h88v-366q0 -48 19 -68.5t65 -20.5q38 0 75 4v-77q-54 -6 -104 -6q-82 0 -112.5 37.5t-30.5 125.5v371z" />
    <glyph glyph-name="kappa" unicode="&#x3ba;" 
d="M433 0l-200 241l-52 -54v-187h-88v523h88v-238l165 181q33 37 60.5 51.5t69.5 14.5q30 0 50 -4v-74q-20 3 -32 3q-25 0 -43 -7t-28.5 -16t-33.5 -32q-1 -1 -12 -13q-34 -35 -82 -85l251 -304h-113z" />
    <glyph glyph-name="lambda" unicode="&#x3bb;" 
d="M132 0h-97l234 501l-36 103q-10 27 -27 38t-48 11q-24 0 -52 -4v71q36 8 80 8q51 0 78 -19.5t45 -70.5l193 -536q6 -18 15 -26t27 -8q21 0 30 3v-77q-28 -5 -52 -5q-76 0 -99 66l-117 338z" />
    <glyph glyph-name="uni03BC" unicode="&#x3bc;" 
d="M54 -207v730h88v-316q0 -66 33.5 -103.5t92.5 -37.5q61 0 92.5 36.5t31.5 103.5v317h88v-398q0 -34 9 -45.5t30 -11.5q18 0 27 2v-73q-30 -7 -54 -7q-80 0 -94 71q-52 -76 -135 -76q-36 0 -70.5 18.5t-48.5 48.5l-2 -1v-258h-88z" />
    <glyph glyph-name="nu" unicode="&#x3bd;" 
d="M466 524h91q-22 -211 -197 -524h-82l-159 402q-11 30 -22.5 42.5t-34.5 12.5q-11 0 -19 -2v70q21 7 42 7q44 0 66.5 -14t36.5 -49l140 -367q118 227 138 422z" />
    <glyph glyph-name="xi" unicode="&#x3be;" 
d="M501 718v-75q-30 3 -96 3q-42 0 -73 -4.5t-60.5 -16.5t-45 -36t-15.5 -60q0 -56 42.5 -86t124.5 -30q17 0 63 2v-76q-44 4 -67 4q-96 0 -146.5 -32.5t-50.5 -94.5q0 -60 40 -91q37 -31 154 -45q79 -10 111 -31t32 -81q0 -59 -47 -164h-72q34 83 34 137q0 19 -3.5 30
t-15 16.5t-20 7.5t-30.5 4t-35 4q-124 20 -181.5 65t-57.5 128q0 70 42 119t113 67v2q-51 10 -84.5 47.5t-33.5 87.5q0 84 85 126v2l-90 -2v73h383z" />
    <glyph glyph-name="omicron" unicode="&#x3bf;" 
d="M67 262q0 116 65 196t177 80t177.5 -80t65.5 -196t-65 -196.5t-178 -80.5q-111 0 -176.5 80t-65.5 197zM157 262q0 -83 38 -141.5t114 -58.5q75 0 114 59.5t39 140.5q0 82 -38.5 140.5t-114.5 58.5q-75 0 -113.5 -58t-38.5 -141z" />
    <glyph glyph-name="pi" unicode="&#x3c0;" 
d="M11 446v77h577v-77h-87v-325q0 -29 9 -41t35 -12q19 0 36 4v-77q-31 -6 -62 -6q-60 0 -82.5 27.5t-22.5 91.5v338h-231v-446h-88v446h-84z" />
    <glyph glyph-name="rho" unicode="&#x3c1;" 
d="M163 -207h-87v499q0 108 67 176t174 68t166.5 -74t59.5 -185q0 -123 -60 -207.5t-173 -84.5q-46 0 -85.5 21t-61.5 58v-271zM164 255q0 -83 35 -138t106 -55q52 0 86.5 31.5t48 75.5t13.5 98q0 81 -36 136t-110 55q-70 0 -106.5 -53t-36.5 -150z" />
    <glyph glyph-name="sigma1" unicode="&#x3c2;" 
d="M539 331h-85q-8 61 -41 94.5t-88 33.5q-69 0 -110 -50.5t-41 -122.5q0 -85 40.5 -126t136.5 -67q79 -22 115.5 -51.5t36.5 -91.5q0 -54 -47 -146h-71q36 68 36 125q0 38 -20.5 53t-72.5 31q-64 20 -104.5 39t-75.5 49t-51 73t-16 104q0 109 70 184.5t178 75.5
q90 0 150 -58.5t60 -148.5z" />
    <glyph glyph-name="sigma" unicode="&#x3c3;" 
d="M568 523v-77h-127v-2q86 -66 86 -188q0 -112 -65 -191t-172 -79q-110 0 -174.5 77.5t-64.5 191.5t67.5 191t178.5 77h271zM438 255q0 91 -38 141t-107 50q-73 0 -112.5 -56t-39.5 -135q0 -82 37.5 -137.5t111.5 -55.5q72 0 110 57t38 136z" />
    <glyph glyph-name="tau" unicode="&#x3c4;" 
d="M72 446v77h455v-77h-198v-285q0 -55 20.5 -74t69.5 -19q40 0 79 4v-77q-58 -6 -105 -6q-85 0 -118 36.5t-33 123.5v297h-170z" />
    <glyph glyph-name="upsilon" unicode="&#x3c5;" 
d="M422 523h93q37 -132 37 -245q0 -293 -232 -293q-87 0 -138.5 45.5t-51.5 132.5v238q0 31 -9 43.5t-32 12.5q-15 0 -21 -2v70q21 7 48 7q58 0 80 -29t22 -96v-221q0 -58 29 -91t80 -33q79 0 108 54.5t29 152.5q0 137 -42 254z" />
    <glyph glyph-name="phi" unicode="&#x3c6;" 
d="M256 535v131h88v-131q94 -5 152 -77t58 -197q0 -126 -57.5 -198.5t-152.5 -76.5v-193h-88v193q-96 4 -153 76.5t-57 199.5q0 126 57.5 197.5t152.5 75.5zM344 460v-399h6q52 0 84 56t32 144t-32 143.5t-84 55.5h-6zM256 61v399h-6q-54 0 -85.5 -55t-31.5 -144
q0 -91 31 -145.5t86 -54.5h6z" />
    <glyph glyph-name="chi" unicode="&#x3c7;" 
d="M26 -207l220 380l-124 236q-15 27 -26.5 38t-33.5 11q-10 0 -22 -3v71q22 7 46 7q41 0 63 -12t40 -47l114 -217l154 266h102l-208 -356l142 -270q10 -18 20 -26t28 -8q20 0 32 4v-77q-27 -6 -49 -6q-74 0 -110 71l-119 227l-168 -289h-101z" />
    <glyph glyph-name="psi" unicode="&#x3c8;" 
d="M257 71v595h88v-595q74 6 104.5 39t30.5 124v289h88v-316q0 -102 -55 -153.5t-168 -57.5v-203h-88v203q-114 6 -169 57.5t-55 153.5v316h88v-289q0 -91 30.5 -124t105.5 -39z" />
    <glyph glyph-name="omega" unicode="&#x3c9;" 
d="M255 173v220h89v-220q0 -52 17 -81.5t47 -29.5q38 0 57 55t19 124q0 128 -82 282h96q74 -148 74 -289q0 -105 -39.5 -177t-114.5 -72q-43 0 -77 28t-40 74h-2q-9 -46 -43 -74t-75 -28q-77 0 -115 71t-38 178q0 171 73 289h96q-82 -123 -82 -282q0 -73 17.5 -126t58.5 -53
q29 0 46.5 29.5t17.5 81.5z" />
    <glyph glyph-name="iotadieresis" unicode="&#x3ca;" 
d="M236 523h88v-366q0 -48 19 -68.5t65 -20.5q38 0 75 4v-77q-54 -6 -104 -6q-82 0 -112.5 37.5t-30.5 125.5v371zM406 718v-102h-90v102h90zM244 718v-102h-90v102h90z" />
    <glyph glyph-name="upsilondieresis" unicode="&#x3cb;" 
d="M422 523h93q37 -132 37 -245q0 -293 -232 -293q-87 0 -138.5 45.5t-51.5 132.5v238q0 31 -9 43.5t-32 12.5q-15 0 -21 -2v70q21 7 48 7q58 0 80 -29t22 -96v-221q0 -58 29 -91t80 -33q79 0 108 54.5t29 152.5q0 137 -42 254zM426 718v-102h-90v102h90zM264 718v-102h-90
v102h90z" />
    <glyph glyph-name="omicrontonos" unicode="&#x3cc;" 
d="M67 262q0 116 65 196t177 80t177.5 -80t65.5 -196t-65 -196.5t-178 -80.5q-111 0 -176.5 80t-65.5 197zM157 262q0 -83 38 -141.5t114 -58.5q75 0 114 59.5t39 140.5q0 82 -38.5 140.5t-114.5 58.5q-75 0 -113.5 -58t-38.5 -141zM407 742l-71 -159h-64l28 159h107z" />
    <glyph glyph-name="upsilontonos" unicode="&#x3cd;" 
d="M422 523h93q37 -132 37 -245q0 -293 -232 -293q-87 0 -138.5 45.5t-51.5 132.5v238q0 31 -9 43.5t-32 12.5q-15 0 -21 -2v70q21 7 48 7q58 0 80 -29t22 -96v-221q0 -58 29 -91t80 -33q79 0 108 54.5t29 152.5q0 137 -42 254zM407 742l-71 -159h-64l28 159h107z" />
    <glyph glyph-name="omegatonos" unicode="&#x3ce;" 
d="M255 173v220h89v-220q0 -52 17 -81.5t47 -29.5q38 0 57 55t19 124q0 128 -82 282h96q74 -148 74 -289q0 -105 -39.5 -177t-114.5 -72q-43 0 -77 28t-40 74h-2q-9 -46 -43 -74t-75 -28q-77 0 -115 71t-38 178q0 171 73 289h96q-82 -123 -82 -282q0 -73 17.5 -126t58.5 -53
q29 0 46.5 29.5t17.5 81.5zM397 742l-71 -159h-64l28 159h107z" />
    <glyph glyph-name="uni0400" unicode="&#x400;" 
d="M95 0v718h433v-86h-336v-220h303v-86h-303v-240h343v-86h-440zM281 783l-109 141h104l72 -141h-67z" />
    <glyph glyph-name="afii10023" unicode="&#x401;" 
d="M95 0v718h433v-86h-336v-220h303v-86h-303v-240h343v-86h-440zM426 908v-102h-90v102h90zM264 908v-102h-90v102h90z" />
    <glyph glyph-name="afii10051" unicode="&#x402;" 
d="M153 0v632h-153v86h468v-86h-218v-215h128q100 0 152 -52.5t52 -150.5t-58.5 -156t-145.5 -58h-51v85h46q54 0 83 33.5t29 95.5q0 119 -128 119h-107v-333h-97z" />
    <glyph glyph-name="afii10052" unicode="&#x403;" 
d="M100 0v718h420v-88h-324v-630h-96zM428 924l-110 -141h-66l71 141h105z" />
    <glyph glyph-name="afii10053" unicode="&#x404;" 
d="M562 506h-92q-22 148 -143 148q-78 0 -124.5 -64t-51.5 -173h228v-83h-230q4 -265 181 -265q118 0 146 186h93q-38 -270 -254 -270q-133 0 -198 102.5t-65 277.5q0 169 70.5 270.5t204.5 101.5q94 0 158 -59t77 -172z" />
    <glyph glyph-name="afii10054" unicode="&#x405;" 
d="M538 508h-91q-3 70 -44.5 108t-103.5 38q-65 0 -99.5 -32.5t-34.5 -93.5q0 -33 19 -54t66 -37l145 -47q163 -52 163 -192q0 -110 -71.5 -163.5t-179.5 -53.5q-117 0 -189.5 62t-70.5 189h91q0 -83 46.5 -125.5t121.5 -42.5t116.5 31.5t41.5 89.5q0 52 -28.5 80t-86.5 45
l-125 36q-153 45 -153 169q0 104 60.5 163t156.5 59q240 0 250 -229z" />
    <glyph glyph-name="afii10055" unicode="&#x406;" 
d="M118 0v86h133v546h-133v86h363v-86h-133v-546h133v-86h-363z" />
    <glyph glyph-name="afii10056" unicode="&#x407;" 
d="M118 0v86h133v546h-133v86h363v-86h-133v-546h133v-86h-363zM426 908v-102h-90v102h90zM264 908v-102h-90v102h90z" />
    <glyph glyph-name="afii10057" unicode="&#x408;" 
d="M64 161v70h91v-49q0 -60 28 -89t90 -29q125 0 125 124v444h-286v86h383v-524q0 -101 -56.5 -157t-160.5 -56q-96 0 -155 46.5t-59 133.5z" />
    <glyph glyph-name="afii10058" unicode="&#x409;" 
d="M276 0v634h-58q-15 -346 -48 -477q-41 -164 -159 -164l-15 1v93h7q71 0 93 129q16 89 34 502h243v-298h63q77 0 120.5 -53.5t43.5 -151.5t-48 -156.5t-116 -58.5h-160zM373 335v-250h58q72 0 72 130q0 57 -23 88.5t-65 31.5h-42z" />
    <glyph glyph-name="afii10059" unicode="&#x40a;" 
d="M260 0v335h-124v-335h-96v718h96v-297h124v297h98v-298h58q79 0 121.5 -53t42.5 -152q0 -98 -47 -156.5t-117 -58.5h-156zM358 335v-250h53q35 0 53.5 33.5t18.5 96.5q0 120 -88 120h-37z" />
    <glyph glyph-name="afii10060" unicode="&#x40b;" 
d="M250 632v-226q68 14 131 14q102 0 150.5 -50.5t48.5 -162.5v-207h-97v187q0 81 -27 114t-92 33q-44 0 -114 -12v-322h-97v632h-153v86h468v-86h-218z" />
    <glyph glyph-name="afii10061" unicode="&#x40c;" 
d="M43 718h96v-303h95q61 0 91.5 18.5t35.5 69.5l11 122q5 57 31 80.5t86 23.5q24 0 62 -5v-84q-24 4 -41 4q-26 0 -37.5 -12.5t-15.5 -46.5l-10 -84q-12 -96 -96 -124v-2q99 -24 111 -153l9 -92q3 -35 10.5 -45.5t38.5 -10.5q11 0 37 4v-81q-27 -5 -61 -5q-62 0 -88 24
t-31 82l-12 142q-7 93 -126 93h-100v-333h-96v718zM408 924l-110 -141h-66l71 141h105z" />
    <glyph glyph-name="uni040D" unicode="&#x40d;" 
d="M453 648v70h97v-718h-97v507h-4l-303 -434v-73h-96v718h96v-504h4zM281 783l-109 141h104l72 -141h-67z" />
    <glyph glyph-name="afii10062" unicode="&#x40e;" 
d="M20 718h107l190 -434l180 434h104l-264 -602q-30 -69 -69.5 -94.5t-113.5 -25.5q-22 0 -66 4v83q33 -5 60 -5q47 0 73.5 19.5t45.5 66.5l6 12zM149 921h49q16 -79 102 -79t102 79h49q-8 -136 -151 -136t-151 136z" />
    <glyph glyph-name="afii10145" unicode="&#x40f;" 
d="M253 0h-205v718h97v-632h308v632h98v-718h-206v-195h-92v195z" />
    <glyph glyph-name="afii10017" unicode="&#x410;" 
d="M20 0l230 718h110l220 -718h-106l-62 209h-227l-65 -209h-100zM211 295h177l-86 316h-2z" />
    <glyph glyph-name="afii10018" unicode="&#x411;" 
d="M66 0v718h419v-86h-323v-205h168q98 0 150.5 -54t52.5 -154q0 -101 -58 -160t-146 -59h-263zM162 342v-257h162q55 0 83.5 35.5t28.5 98.5q0 123 -128 123h-146z" />
    <glyph glyph-name="afii10019" unicode="&#x412;" 
d="M84 0v718h255q76 0 129.5 -49t53.5 -132q0 -47 -26 -87t-70 -63q130 -52 130 -175q0 -98 -66 -155t-158 -57h-248zM180 414h116q129 0 129 116q0 105 -128 105h-117v-221zM180 83h147q62 0 97 35.5t35 95.5t-38.5 90.5t-109.5 30.5h-131v-252z" />
    <glyph glyph-name="afii10020" unicode="&#x413;" 
d="M100 0v718h420v-88h-324v-630h-96z" />
    <glyph glyph-name="afii10021" unicode="&#x414;" 
d="M7 -195v281h53q42 89 79 244q30 127 48 388h323v-632h83v-281h-93v195h-400v-195h-93zM412 632h-134q-21 -348 -107 -546h241v546z" />
    <glyph glyph-name="afii10022" unicode="&#x415;" 
d="M95 0v718h433v-86h-336v-220h303v-86h-303v-240h343v-86h-440z" />
    <glyph glyph-name="afii10024" unicode="&#x416;" 
d="M259 0v335h-24q-22 0 -31.5 -22.5t-13.5 -72.5l-12 -142q-5 -57 -33 -81.5t-88 -24.5q-35 0 -60 5v81q30 -4 37 -4q27 0 35.5 11.5t12.5 44.5l11 92q4 29 8.5 48.5t16 42.5t32.5 38.5t52 23.5v2q-83 26 -95 124l-10 84q-4 33 -16 46t-36 13q-21 -1 -42 -4v84q37 5 62 5
q57 0 84.5 -23.5t32.5 -80.5l12 -122q5 -54 15 -71.5t32 -17.5h18v304h82v-304h20q21 0 32 18.5t15 70.5l10 122q5 57 31.5 80.5t87.5 23.5q19 0 62 -5v-84q-25 4 -42 4q-27 0 -39 -13t-15 -46l-8 -84q-9 -95 -98 -124v-2q59 -15 82.5 -55t29.5 -98l9 -92q3 -35 10.5 -45.5
t37.5 -10.5q20 0 37 4v-81q-27 -5 -61 -5q-61 0 -87 24t-31 82l-12 142q-4 50 -14 72.5t-31 22.5h-26v-335h-82z" />
    <glyph glyph-name="afii10025" unicode="&#x417;" 
d="M222 334v82h74q70 0 103.5 23.5t33.5 86.5q0 61 -35.5 93t-103.5 32q-70 0 -109 -33.5t-41 -92.5h-93q8 107 73 159.5t173 52.5q97 0 165 -50.5t68 -146.5q0 -108 -93 -153v-1q123 -38 123 -176q0 -112 -78 -168.5t-192 -56.5q-121 0 -185 57t-66 165h94
q15 -136 164 -136q71 0 118 35t47 107q0 68 -38 94.5t-117 26.5h-85z" />
    <glyph glyph-name="afii10026" unicode="&#x418;" 
d="M453 648v70h97v-718h-97v507h-4l-303 -434v-73h-96v718h96v-504h4z" />
    <glyph glyph-name="afii10027" unicode="&#x419;" 
d="M453 648v70h97v-718h-97v507h-4l-303 -434v-73h-96v718h96v-504h4zM149 921h49q16 -79 102 -79t102 79h49q-8 -136 -151 -136t-151 136z" />
    <glyph glyph-name="afii10028" unicode="&#x41a;" 
d="M43 718h96v-303h95q61 0 91.5 18.5t35.5 69.5l11 122q5 57 31 80.5t86 23.5q24 0 62 -5v-84q-24 4 -41 4q-26 0 -37.5 -12.5t-15.5 -46.5l-10 -84q-12 -96 -96 -124v-2q99 -24 111 -153l9 -92q3 -35 10.5 -45.5t38.5 -10.5q11 0 37 4v-81q-27 -5 -61 -5q-62 0 -88 24
t-31 82l-12 142q-7 93 -126 93h-100v-333h-96v718z" />
    <glyph glyph-name="afii10029" unicode="&#x41b;" 
d="M512 0h-97v634h-135q-12 -303 -68 -467q-58 -174 -188 -174q-8 0 -16 1v93h8q79 0 122 139q39 127 54 492h320v-718z" />
    <glyph glyph-name="afii10030" unicode="&#x41c;" 
d="M36 0v718h149l114 -567h3l113 567h149v-718h-94v424q0 91 2 139h-3l-121 -563h-96l-121 562h-3q2 -46 2 -138v-424h-94z" />
    <glyph glyph-name="afii10031" unicode="&#x41d;" 
d="M86 0v718h96v-297h235v297h97v-718h-97v335h-235v-335h-96z" />
    <glyph glyph-name="afii10032" unicode="&#x41e;" 
d="M560 359q0 -162 -71 -270t-189 -108q-121 0 -190.5 107t-69.5 271t70 271t190 107q119 0 189.5 -107.5t70.5 -270.5zM460 359q0 123 -43 207.5t-117 84.5q-75 0 -117.5 -84.5t-42.5 -207.5q0 -124 42 -208t118 -84q73 0 116.5 84t43.5 208z" />
    <glyph glyph-name="afii10033" unicode="&#x41f;" 
d="M60 0v718h479v-718h-98v632h-284v-632h-97z" />
    <glyph glyph-name="afii10034" unicode="&#x420;" 
d="M189 303v-303h-97v718h253q93 0 153 -55t60 -147q0 -96 -58 -154.5t-155 -58.5h-156zM189 635v-249h123q146 0 146 129q0 120 -142 120h-127z" />
    <glyph glyph-name="afii10035" unicode="&#x421;" 
d="M315 -19q-87 0 -147.5 52t-88 136.5t-27.5 193.5q0 166 72 270t203 104q93 0 156.5 -61.5t78.5 -173.5h-94q-11 73 -47.5 111t-93.5 38q-85 0 -130 -81.5t-45 -203.5q0 -299 178 -299q57 0 95 54.5t50 142.5h94q-13 -131 -82 -207t-172 -76z" />
    <glyph glyph-name="afii10036" unicode="&#x422;" 
d="M250 0v632h-212v86h523v-86h-214v-632h-97z" />
    <glyph glyph-name="afii10037" unicode="&#x423;" 
d="M20 718h107l190 -434l180 434h104l-264 -602q-30 -69 -69.5 -94.5t-113.5 -25.5q-22 0 -66 4v83q33 -5 60 -5q47 0 73.5 19.5t45.5 66.5l6 12z" />
    <glyph glyph-name="afii10038" unicode="&#x424;" 
d="M345 737v-108h19q104 0 154 -64.5t50 -197.5q0 -134 -50.5 -197.5t-153.5 -63.5h-19v-116h-90v116h-19q-104 0 -153.5 63.5t-49.5 197.5t49.5 198t153.5 64h19v108h90zM344 551v-367h4q69 0 98 45t29 138q0 97 -28.5 140.5t-98.5 43.5h-4zM256 184v367h-3
q-71 0 -99 -43.5t-28 -140.5q0 -93 29 -138t98 -45h3z" />
    <glyph glyph-name="afii10039" unicode="&#x425;" 
d="M363 368l212 -368h-120l-153 295l-159 -295h-117l217 368l-201 350h122l142 -275l142 275h116z" />
    <glyph glyph-name="afii10040" unicode="&#x426;" 
d="M488 718v-632h83v-282h-93v196h-408v718h97v-632h223v632h98z" />
    <glyph glyph-name="afii10041" unicode="&#x427;" 
d="M431 0v304q-71 -17 -141 -17q-113 0 -166 49.5t-53 170.5v210h98v-198q0 -82 28.5 -114t99.5 -32q75 0 134 13v331h97v-717h-97z" />
    <glyph glyph-name="afii10042" unicode="&#x428;" 
d="M343 86h135v632h85v-718h-526v718h85v-632h135v632h86v-632z" />
    <glyph glyph-name="afii10043" unicode="&#x429;" 
d="M321 86h129v632h86v-632h63v-281h-83v195h-494v718h85v-632h129v632h85v-632z" />
    <glyph glyph-name="afii10044" unicode="&#x42a;" 
d="M134 0v632h-115v86h212v-291h128q98 0 150.5 -54t52.5 -154q0 -101 -58 -160t-146 -59h-224zM231 342v-257h122q55 0 83.5 35.5t28.5 98.5q0 123 -128 123h-106z" />
    <glyph glyph-name="afii10045" unicode="&#x42b;" 
d="M549 718v-718h-97v718h97zM54 0v718h97v-291h48q98 0 150.5 -54t52.5 -154q0 -101 -58 -160t-146 -59h-144zM151 342v-257h42q55 0 83.5 35.5t28.5 98.5q0 123 -128 123h-26z" />
    <glyph glyph-name="afii10046" unicode="&#x42c;" 
d="M84 0v718h97v-291h168q98 0 150.5 -54t52.5 -154q0 -101 -58 -160t-146 -59h-264zM181 342v-257h162q55 0 83.5 35.5t28.5 98.5q0 123 -128 123h-146z" />
    <glyph glyph-name="afii10047" unicode="&#x42d;" 
d="M130 506h-92q13 113 77 172t158 59q134 0 204.5 -101.5t70.5 -270.5q0 -175 -65 -277.5t-198 -102.5q-216 0 -254 270h93q28 -186 146 -186q177 0 181 265h-230v83h228q-5 109 -51.5 173t-124.5 64q-121 0 -143 -148z" />
    <glyph glyph-name="afii10048" unicode="&#x42e;" 
d="M104 718v-309h82q14 328 196 328q54 0 93.5 -30t62 -83.5t33 -119t10.5 -145.5q0 -79 -10.5 -145t-33.5 -119.5t-62.5 -83.5t-92.5 -30q-102 0 -147.5 91t-49.5 253h-81v-325h-85v718h85zM381 652q-36 0 -59.5 -23t-34.5 -68t-15 -91t-4 -111t4 -111t15 -91t34.5 -68
t59.5 -23q112 0 112 293t-112 293z" />
    <glyph glyph-name="afii10049" unicode="&#x42f;" 
d="M422 0v308h-145q-65 0 -86.5 -35.5t-21.5 -92.5q0 -131 -17 -180h-120v16q23 11 29 24t8 44l6 134q2 57 20.5 86t65.5 49q-99 54 -99 172q0 94 55 143.5t160 49.5h242v-718h-97zM422 391v244h-151q-110 0 -110 -120q0 -124 126 -124h135z" />
    <glyph glyph-name="afii10065" unicode="&#x430;" 
d="M180 364h-82q6 174 216 174q80 0 137.5 -36.5t57.5 -109.5v-301q0 -31 28 -31q5 0 29 4v-64q-27 -10 -50 -10q-45 0 -66.5 19.5t-23.5 60.5q-75 -85 -189 -85q-71 0 -117.5 41t-46.5 110t39 111.5t114 51.5l155 19q42 4 42 62q0 85 -123 85q-56 0 -85 -24.5t-35 -76.5z
M420 181v86q-9 -9 -39 -17q-40 -8 -106 -16q-112 -15 -112 -85q0 -91 96 -91q58 0 109.5 34.5t51.5 88.5z" />
    <glyph glyph-name="afii10066" unicode="&#x431;" 
d="M436 731h75q1 -4 1 -16q0 -49 -29 -69q-27 -17 -209 -54q-77 -15 -107 -62t-42 -139l2 -1q60 111 188 111q102 0 165.5 -74.5t63.5 -179.5q0 -110 -67 -185.5t-175 -75.5q-120 0 -183 84.5t-63 244.5q0 72 8.5 126.5t30 104.5t63 82t103.5 45q153 32 161 35q12 6 14 23z
M454 246q0 77 -39.5 128t-112.5 51t-112.5 -51t-39.5 -128q0 -79 39 -131.5t113 -52.5t113 53t39 131z" />
    <glyph glyph-name="afii10067" unicode="&#x432;" 
d="M75 0v523h269q70 0 118 -33.5t48 -97.5q0 -76 -81 -117q96 -25 96 -120q0 -74 -56 -114.5t-137 -40.5h-257zM162 452v-151h143q60 0 87.5 19.5t27.5 59.5q0 72 -109 72h-149zM162 236v-166h161q55 0 83 23t28 63q0 80 -122 80h-150z" />
    <glyph glyph-name="afii10068" unicode="&#x433;" 
d="M146 0v523h358v-79h-270v-444h-88z" />
    <glyph glyph-name="afii10069" unicode="&#x434;" 
d="M28 -176v253h33q52 65 80 159q29 95 29 277v10h318v-446h74v-253h-84v176h-366v-176h-84zM400 448h-150q-2 -213 -94 -371h244v371z" />
    <glyph glyph-name="afii10070" unicode="&#x435;" 
d="M462 164h88q-17 -82 -82.5 -131t-157.5 -49q-117 0 -183 73.5t-66 189.5q0 131 66 211t195 80q121 0 178 -86t57 -219h-402q0 -83 41 -127.5t121 -44.5q50 0 94.5 30t50.5 73zM155 303h311q-8 77 -45 116.5t-111 39.5q-68 0 -111 -45.5t-44 -110.5z" />
    <glyph glyph-name="afii10072" unicode="&#x436;" 
d="M258 0v235q-37 0 -50 -16t-17 -52l-11 -96q-5 -46 -27.5 -62.5t-71.5 -16.5q-32 0 -52 5v72q13 -3 30 -3q20 0 29 6.5t12 28.5l8 67q5 39 22.5 64.5t62.5 36.5v1q-67 21 -76 90l-7 57q-3 25 -13.5 33t-28.5 8q-8 0 -34 -3v73q20 4 55 4q89 0 96 -74l8 -90q3 -38 15.5 -52
t49.5 -14v221h83v-221q61 2 67 66l8 90q4 40 27 57t69 17q26 0 54 -4v-73q-22 3 -34 3q-22 0 -30.5 -8.5t-11.5 -32.5l-7 -57q-9 -66 -75 -90v-1q75 -21 84 -101l8 -67q3 -24 9 -29.5t33 -5.5q10 0 29 3v-72q-25 -5 -51 -5q-51 0 -73 16t-27 63l-11 96q-8 66 -68 68v-235
h-83z" />
    <glyph glyph-name="afii10073" unicode="&#x437;" 
d="M217 234v70h102q52 0 74.5 17t22.5 56q0 40 -31.5 63t-89.5 23q-54 0 -84.5 -24t-35.5 -69h-84q7 85 63.5 127t148.5 42q82 0 142 -37.5t60 -110.5q0 -76 -74 -114v-1q93 -23 93 -119q0 -85 -66 -128t-160 -43q-208 0 -222 174h86q12 -99 139 -99q63 0 97.5 24t34.5 66
q0 43 -26 63t-84 20h-106z" />
    <glyph glyph-name="afii10074" unicode="&#x438;" 
d="M519 0h-88v366h-3l-259 -319v-47h-88v522h88v-361h3l259 316v45h88v-522z" />
    <glyph glyph-name="afii10075" unicode="&#x439;" 
d="M519 0h-88v366h-3l-259 -319v-47h-88v522h88v-361h3l259 316v45h88v-522zM149 731h49q16 -79 102 -79t102 79h49q-8 -136 -151 -136t-151 136z" />
    <glyph glyph-name="afii10076" unicode="&#x43a;" 
d="M98 523h88v-219h95q76 0 84 64l10 90q8 74 96 74q32 0 55 -4v-73q-20 3 -34 3q-21 0 -30 -9t-12 -32l-7 -57q-8 -68 -76 -90v-1q76 -19 86 -101l8 -67q3 -22 11.5 -28.5t29.5 -6.5q14 0 29 3v-72q-20 -5 -51 -5q-51 0 -74.5 16t-27.5 63l-10 96q-6 64 -80 64h-102v-231
h-88v523z" />
    <glyph glyph-name="afii10077" unicode="&#x43b;" 
d="M509 0h-88v448h-157q-13 -261 -69 -362q-55 -99 -165 -90v83q86 -6 118 104t41 340h320v-523z" />
    <glyph glyph-name="afii10078" unicode="&#x43c;" 
d="M41 0v523h132l128 -419h3l130 419h124v-523h-84v411h-3l-130 -411h-84l-129 411h-3v-411h-84z" />
    <glyph glyph-name="afii10079" unicode="&#x43d;" 
d="M513 523v-523h-88v230h-250v-230h-88v523h88v-216h250v216h88z" />
    <glyph glyph-name="afii10080" unicode="&#x43e;" 
d="M67 262q0 116 65 196t177 80t177.5 -80t65.5 -196t-65 -196.5t-178 -80.5q-111 0 -176.5 80t-65.5 197zM157 262q0 -83 38 -141.5t114 -58.5q75 0 114 59.5t39 140.5q0 82 -38.5 140.5t-114.5 58.5q-75 0 -113.5 -58t-38.5 -141z" />
    <glyph glyph-name="afii10081" unicode="&#x43f;" 
d="M93 0v523h413v-523h-88v446h-237v-446h-88z" />
    <glyph glyph-name="afii10082" unicode="&#x440;" 
d="M90 -207v730h83v-74h2q56 89 156 89q104 0 161 -75.5t57 -185.5q0 -124 -58 -208t-172 -84q-91 0 -139 70h-2v-262h-88zM174 237q0 -76 37 -126t106 -50q74 0 107.5 58.5t33.5 143.5q0 101 -35 148.5t-108 47.5q-141 0 -141 -222z" />
    <glyph glyph-name="afii10083" unicode="&#x441;" 
d="M533 347h-85q-24 112 -134 112q-79 0 -116.5 -56.5t-37.5 -140.5q0 -201 153 -201q51 0 88.5 36t46.5 88h85q-15 -96 -73 -148t-149 -52q-114 0 -179.5 74t-65.5 188q0 129 67 210t194 81q89 0 144.5 -52.5t61.5 -138.5z" />
    <glyph glyph-name="afii10084" unicode="&#x442;" 
d="M256 0v444h-181v79h450v-79h-181v-444h-88z" />
    <glyph glyph-name="afii10085" unicode="&#x443;" 
d="M312 97l150 426h96q-110 -286 -168.5 -435t-79.5 -196t-32 -63q-31 -43 -100 -43q-35 0 -59 8v80q25 -9 55 -9t47 21q18 25 44 99l-204 538h99l150 -426h2z" />
    <glyph glyph-name="afii10086" unicode="&#x444;" 
d="M343 708v-183h12q120 0 168.5 -57t49.5 -185v-43q0 -128 -48.5 -185t-168.5 -57h-13v-196h-86v196h-12q-120 0 -168.5 57t-48.5 185v43q0 129 49 185.5t169 56.5h11v183h86zM348 450h-6v-377h6q38 0 62.5 7t39.5 19t22.5 37.5t9.5 52.5t2 73q0 59 -3.5 89.5t-18 54.5
t-40.5 32.5t-74 11.5zM258 450h-6q-46 0 -73 -9t-41 -35t-17.5 -56.5t-3.5 -87.5q0 -58 3.5 -88.5t17 -56.5t40.5 -35t74 -9h6v377z" />
    <glyph glyph-name="afii10087" unicode="&#x445;" 
d="M355 269l184 -269h-113l-129 197l-126 -197h-111l183 269l-174 254h112l121 -184l122 184h107z" />
    <glyph glyph-name="afii10088" unicode="&#x446;" 
d="M471 523v-446h75v-253h-84v176h-368v523h88v-446h201v446h88z" />
    <glyph glyph-name="afii10089" unicode="&#x447;" 
d="M410 0v214q-72 -10 -130 -10q-93 0 -136 37t-43 119v163h88v-144q0 -57 25.5 -79.5t85.5 -22.5q64 0 110 9v237h88v-523h-88z" />
    <glyph glyph-name="afii10090" unicode="&#x448;" 
d="M258 76v447h85v-447h115v447h84v-523h-483v523h85v-447h114z" />
    <glyph glyph-name="afii10091" unicode="&#x449;" 
d="M258 76v447h85v-447h115v447h84v-447h42v-252h-84v176h-441v523h85v-447h114z" />
    <glyph glyph-name="afii10092" unicode="&#x44a;" 
d="M161 0v446h-141v77h229v-201h97q93 0 143 -40.5t50 -115.5q0 -77 -55.5 -121.5t-137.5 -44.5h-185zM249 252v-182h88q54 0 82.5 25t28.5 69q0 88 -122 88h-77z" />
    <glyph glyph-name="afii10093" unicode="&#x44b;" 
d="M538 523v-523h-87v523h87zM62 0v523h88v-201h47q93 0 143 -41t50 -115q0 -77 -55.5 -121.5t-137.5 -44.5h-135zM150 252v-182h38q54 0 82.5 25t28.5 69q0 88 -122 88h-27z" />
    <glyph glyph-name="afii10094" unicode="&#x44c;" 
d="M196 523v-201h111q95 0 144.5 -40.5t49.5 -115.5q0 -78 -55.5 -122t-138.5 -44h-199v523h88zM196 252v-182h103q54 0 82.5 25t28.5 69q0 88 -123 88h-91z" />
    <glyph glyph-name="afii10095" unicode="&#x44d;" 
d="M198 235v72h236q-15 155 -142 155q-113 0 -135 -103h-84q13 87 70 133t148 46q115 0 175 -74.5t60 -196.5q0 -128 -63 -205t-185 -77q-92 0 -145.5 50t-59.5 140h83q6 -55 40.5 -85t87.5 -30q141 0 151 175h-237z" />
    <glyph glyph-name="afii10096" unicode="&#x44e;" 
d="M392 -14q-86 0 -134 71t-51 180h-81v-237h-87v523h87v-212h83q7 99 55 163t128 64q90 0 139.5 -80t49.5 -196q0 -115 -50 -195.5t-139 -80.5zM292 262q0 -54 8.5 -96.5t32 -73t59.5 -30.5q35 0 58.5 31t32.5 74t9 95t-9 95t-32.5 74t-58.5 31q-36 0 -59.5 -30.5
t-32 -73.5t-8.5 -96z" />
    <glyph glyph-name="afii10097" unicode="&#x44f;" 
d="M286 523h240v-523h-87v210h-129q-72 0 -79 -60l-9 -79q-5 -46 -28 -62.5t-75 -16.5q-21 0 -46 5v71q14 -3 26 -3q22 0 30.5 8t11.5 34l5 48q6 56 70 82q-108 30 -108 137q0 72 47 110.5t131 38.5zM439 280v172h-155q-86 0 -86 -83q0 -89 94 -89h147z" />
    <glyph glyph-name="uni0450" unicode="&#x450;" 
d="M462 164h88q-17 -82 -82.5 -131t-157.5 -49q-117 0 -183 73.5t-66 189.5q0 131 66 211t195 80q121 0 178 -86t57 -219h-402q0 -83 41 -127.5t121 -44.5q50 0 94.5 30t50.5 73zM155 303h311q-8 77 -45 116.5t-111 39.5q-68 0 -111 -45.5t-44 -110.5zM281 593l-109 141h104
l72 -141h-67z" />
    <glyph glyph-name="afii10071" unicode="&#x451;" 
d="M462 164h88q-17 -82 -82.5 -131t-157.5 -49q-117 0 -183 73.5t-66 189.5q0 131 66 211t195 80q121 0 178 -86t57 -219h-402q0 -83 41 -127.5t121 -44.5q50 0 94.5 30t50.5 73zM155 303h311q-8 77 -45 116.5t-111 39.5q-68 0 -111 -45.5t-44 -110.5zM426 718v-102h-90v102
h90zM264 718v-102h-90v102h90z" />
    <glyph glyph-name="afii10099" unicode="&#x452;" 
d="M108 643v75h88v-75h184v-55h-184v-163h2q64 85 154 85q86 0 134.5 -46.5t48.5 -135.5v-337q0 -98 -52.5 -150t-150.5 -53v79q114 0 114 118v328q0 62 -23 90t-81 28q-72 0 -109 -48t-37 -126v-257h-88v588h-64v55h64z" />
    <glyph glyph-name="afii10100" unicode="&#x453;" 
d="M146 0v523h358v-79h-270v-444h-88zM428 734l-110 -141h-66l71 141h105z" />
    <glyph glyph-name="afii10101" unicode="&#x454;" 
d="M397 307v-72h-233q6 -175 143 -175q54 0 91 31t44 84h84q-8 -86 -68 -138t-150 -52q-114 0 -174.5 74t-60.5 194q0 127 64 206t185 79q87 0 142 -47.5t59 -131.5h-83q-6 48 -38 75.5t-85 27.5q-135 0 -151 -155h231z" />
    <glyph glyph-name="afii10102" unicode="&#x455;" 
d="M498 374h-85q-4 88 -124 88q-41 0 -72.5 -16t-31.5 -48q0 -18 7.5 -32t17.5 -22t30.5 -15.5t36 -11.5t45 -10t46.5 -11q74 -20 110.5 -51.5t36.5 -96.5q0 -78 -59.5 -120.5t-147.5 -42.5q-221 0 -224 183h85q4 -107 138 -107q56 0 88 19.5t32 53.5q0 11 -1.5 19.5
t-4 15.5t-8.5 12.5t-11 10t-17 9t-21 8t-27 8t-31.5 7.5t-39 9t-45.5 11q-121 31 -121 137q0 75 57 116t142 41q86 0 139.5 -42t59.5 -122z" />
    <glyph glyph-name="afii10103" unicode="&#x456;" 
d="M344 618h-88v100h88v-100zM96 523h248v-450h200v-73h-488v73h200v377h-160v73z" />
    <glyph glyph-name="afii10104" unicode="&#x457;" 
d="M96 523h248v-450h200v-73h-488v73h200v377h-160v73zM416 718v-102h-90v102h90zM254 718v-102h-90v102h90z" />
    <glyph glyph-name="afii10105" unicode="&#x458;" 
d="M405 718v-100h-88v100h88zM157 523h248v-600q0 -69 -43 -101t-131 -32q-41 0 -77 3v76h63q64 0 82 12t18 52v517h-160v73z" />
    <glyph glyph-name="afii10106" unicode="&#x459;" 
d="M260 0v447h-63q-10 -251 -59 -361q-41 -92 -129 -92q-11 0 -16 1v83h7q33 0 57 26t34 77q25 121 31 342h225v-201h87q75 0 114.5 -40.5t39.5 -115.5q0 -77 -44.5 -121.5t-109.5 -44.5h-174zM347 252v-182h79q35 0 53 25t18 69q0 88 -83 88h-67z" />
    <glyph glyph-name="afii10107" unicode="&#x45a;" 
d="M345 523v-201h87q74 0 113.5 -40.5t39.5 -115.5q0 -78 -44 -122t-109 -44h-175v252h-124v-252h-88v523h88v-201h124v201h88zM345 252v-182h79q34 0 52.5 25.5t18.5 68.5q0 88 -83 88h-67z" />
    <glyph glyph-name="afii10108" unicode="&#x45b;" 
d="M196 588v-163h2q59 85 144 85q81 0 127 -46.5t46 -135.5v-328h-89v313q0 62 -21.5 90t-72.5 28q-67 0 -101.5 -48t-34.5 -126v-257h-88v588h-64v55h64v75h88v-75h174v-55h-174z" />
    <glyph glyph-name="afii10109" unicode="&#x45c;" 
d="M98 523h88v-219h95q76 0 84 64l10 90q8 74 96 74q32 0 55 -4v-73q-20 3 -34 3q-21 0 -30 -9t-12 -32l-7 -57q-8 -68 -76 -90v-1q76 -19 86 -101l8 -67q3 -22 11.5 -28.5t29.5 -6.5q14 0 29 3v-72q-20 -5 -51 -5q-51 0 -74.5 16t-27.5 63l-10 96q-6 64 -80 64h-102v-231
h-88v523zM418 734l-110 -141h-66l71 141h105z" />
    <glyph glyph-name="uni045D" unicode="&#x45d;" 
d="M519 0h-88v366h-3l-259 -319v-47h-88v522h88v-361h3l259 316v45h88v-522zM281 593l-109 141h104l72 -141h-67z" />
    <glyph glyph-name="afii10110" unicode="&#x45e;" 
d="M312 97l150 426h96q-110 -286 -168.5 -435t-79.5 -196t-32 -63q-31 -43 -100 -43q-35 0 -59 8v80q25 -9 55 -9t47 21q18 25 44 99l-204 538h99l150 -426h2zM149 731h49q16 -79 102 -79t102 79h49q-8 -136 -151 -136t-151 136z" />
    <glyph glyph-name="afii10193" unicode="&#x45f;" 
d="M504 523v-523h-162v-166h-84v166h-162v523h88v-446h232v446h88z" />
    <glyph glyph-name="afii10146" unicode="&#x462;" 
d="M372 604v-81h-151v-115h133q99 0 151.5 -51.5t52.5 -148.5q0 -98 -58.5 -153t-145.5 -55h-230v523h-121v81h121v114h97v-114h151zM221 324v-240h128q55 0 83.5 32.5t28.5 92.5q0 115 -128 115h-112z" />
    <glyph glyph-name="afii10194" unicode="&#x463;" 
d="M20 448v75h136v195h86v-195h149v-75h-149v-136h144q74 0 113.5 -39.5t39.5 -112.5q0 -76 -44 -118t-109 -42h-230v448h-136zM242 241v-171h136q34 0 52.5 23.5t18.5 65.5q0 82 -83 82h-124z" />
    <glyph glyph-name="afii10147" unicode="&#x472;" 
d="M560 359q0 -163 -70.5 -270.5t-189.5 -107.5q-121 0 -190.5 107t-69.5 271t69.5 271t190.5 107q119 0 189.5 -107.5t70.5 -270.5zM142 408h317q-10 108 -52.5 176t-106.5 68q-67 0 -110.5 -68.5t-47.5 -175.5zM460 322h-320q5 -115 47.5 -185.5t112.5 -70.5
q68 0 109.5 70.5t50.5 185.5z" />
    <glyph glyph-name="afii10195" unicode="&#x473;" 
d="M57 262q0 120 64 198t179 78q114 0 178.5 -79t64.5 -197q0 -119 -64.5 -197.5t-178.5 -78.5q-113 0 -178 79t-65 197zM148 298h303q-7 72 -45.5 118.5t-105.5 46.5t-106.5 -46.5t-45.5 -118.5zM452 228h-304q6 -72 45.5 -119.5t106.5 -47.5q68 0 106.5 46.5t45.5 120.5z
" />
    <glyph glyph-name="afii10148" unicode="&#x474;" 
d="M338 0h-103l-223 718h108l166 -592h2l124 494q27 106 122 106q22 0 55 -6v-80q-15 3 -28 3q-48 0 -68 -75z" />
    <glyph glyph-name="afii10196" unicode="&#x475;" 
d="M241 0l-191 523h102l136 -426h2l108 344q29 91 104 91q25 0 48 -4v-74q-7 2 -24 2q-19 0 -30.5 -13.5t-24.5 -50.5l-137 -392h-93z" />
    <glyph glyph-name="afii10050" unicode="&#x490;" 
d="M97 0v718h339v137h86v-223h-329v-632h-96z" />
    <glyph glyph-name="afii10098" unicode="&#x491;" 
d="M136 0v523h251v117h77v-194h-240v-446h-88z" />
    <glyph glyph-name="Wgrave" unicode="&#x1e80;" 
d="M300 585l-86 -585h-121l-89 718h108l50 -571h2l75 571h132l73 -571h2l52 571h99l-90 -718h-121l-84 585h-2zM281 783l-109 141h104l72 -141h-67z" />
    <glyph glyph-name="wgrave" unicode="&#x1e81;" 
d="M296 385l-72 -385h-100l-111 523h95l70 -391h2l61 391h119l62 -391h2l76 391h87l-111 -523h-102l-76 385h-2zM281 593l-109 141h104l72 -141h-67z" />
    <glyph glyph-name="Wacute" unicode="&#x1e82;" 
d="M300 585l-86 -585h-121l-89 718h108l50 -571h2l75 571h132l73 -571h2l52 571h99l-90 -718h-121l-84 585h-2zM428 924l-110 -141h-66l71 141h105z" />
    <glyph glyph-name="wacute" unicode="&#x1e83;" 
d="M296 385l-72 -385h-100l-111 523h95l70 -391h2l61 391h119l62 -391h2l76 391h87l-111 -523h-102l-76 385h-2zM428 734l-110 -141h-66l71 141h105z" />
    <glyph glyph-name="Wdieresis" unicode="&#x1e84;" 
d="M300 585l-86 -585h-121l-89 718h108l50 -571h2l75 571h132l73 -571h2l52 571h99l-90 -718h-121l-84 585h-2zM426 908v-102h-90v102h90zM264 908v-102h-90v102h90z" />
    <glyph glyph-name="wdieresis" unicode="&#x1e85;" 
d="M296 385l-72 -385h-100l-111 523h95l70 -391h2l61 391h119l62 -391h2l76 391h87l-111 -523h-102l-76 385h-2zM426 718v-102h-90v102h90zM264 718v-102h-90v102h90z" />
    <glyph glyph-name="Ygrave" unicode="&#x1ef2;" 
d="M349 289v-289h-97v289l-231 429h113l166 -345l166 345h114zM281 783l-109 141h104l72 -141h-67z" />
    <glyph glyph-name="ygrave" unicode="&#x1ef3;" 
d="M302 97l160 426h96l-207 -513q-50 -134 -83 -181q-31 -43 -100 -43q-35 0 -59 8v80q25 -9 55 -9q31 0 47 21q18 25 44 99l-214 538h99l160 -426h2zM281 593l-109 141h104l72 -141h-67z" />
    <glyph glyph-name="uni2010" unicode="&#x2010;" 
d="M177 232v90h245v-90h-245z" />
    <glyph glyph-name="endash" unicode="&#x2013;" 
d="M550 313v-73h-500v73h500z" />
    <glyph glyph-name="emdash" unicode="&#x2014;" 
d="M600 313v-73h-600v73h600z" />
    <glyph glyph-name="afii00208" unicode="&#x2015;" 
d="M600 313v-73h-600v73h600z" />
    <glyph glyph-name="quoteleft" unicode="&#x2018;" 
d="M352 576v-106h-104v98q0 70 24.5 107t79.5 50v-47q-53 -8 -53 -102h53z" />
    <glyph glyph-name="quoteright" unicode="&#x2019;" 
d="M248 612v106h104v-98q0 -69 -24.5 -106.5t-79.5 -50.5v47q53 8 53 102h-53z" />
    <glyph glyph-name="quotesinglbase" unicode="&#x201a;" 
d="M248 0v106h104v-98q0 -134 -104 -155v46q53 6 53 101h-53z" />
    <glyph glyph-name="quotedblleft" unicode="&#x201c;" 
d="M454 576v-106h-104v98q0 70 24.5 107t79.5 50v-47q-53 -8 -53 -102h53zM249 576v-106h-104v98q0 70 24.5 107t79.5 50v-47q-53 -8 -53 -102h53z" />
    <glyph glyph-name="quotedblright" unicode="&#x201d;" 
d="M350 612v106h104v-98q0 -69 -24.5 -106.5t-79.5 -50.5v47q53 8 53 102h-53zM145 612v106h104v-98q0 -69 -24.5 -106.5t-79.5 -50.5v47q53 8 53 102h-53z" />
    <glyph glyph-name="quotedblbase" unicode="&#x201e;" 
d="M350 0v106h104v-98q0 -134 -104 -155v46q53 6 53 101h-53zM145 0v106h104v-98q0 -134 -104 -155v46q53 6 53 101h-53z" />
    <glyph glyph-name="dagger" unicode="&#x2020;" 
d="M347 431v-590h-94v590h-189v76h189v211h94v-211h188v-76h-188z" />
    <glyph glyph-name="daggerdbl" unicode="&#x2021;" 
d="M347 439v-320h188v-76h-188v-202h-94v202h-189v76h189v320h-189v76h189v203h94v-203h188v-76h-188z" />
    <glyph glyph-name="bullet" unicode="&#x2022;" 
d="M457 359q0 -67 -46 -112t-113 -45q-66 0 -111 45.5t-45 111.5t45 112t111 46t112.5 -46t46.5 -112z" />
    <glyph glyph-name="ellipsis" unicode="&#x2026;" 
d="M555 106v-106h-104v106h104zM352 106v-106h-104v106h104zM149 106v-106h-104v106h104z" />
    <glyph glyph-name="perthousand" unicode="&#x2030;" 
d="M316 709h58l-316 -729h-58zM212 557q0 -73 -29 -109.5t-77 -36.5t-77 36.5t-29 109.5q0 74 29 110t77 36q47 0 76.5 -36t29.5 -110zM106 656q-25 0 -39.5 -25.5t-14.5 -73.5t14.5 -73.5t39.5 -25.5q24 0 39 25.5t15 73.5q0 47 -15 73t-39 26zM600 133q0 -73 -29 -109.5
t-77 -36.5t-77 36.5t-29 109.5q0 74 29 110t77 36q47 0 76.5 -36t29.5 -110zM375 133q0 -73 -29 -109.5t-77 -36.5t-77 36.5t-29 109.5q0 74 29 110t77 36q47 0 76.5 -36t29.5 -110zM494 232q-25 0 -39.5 -25.5t-14.5 -73.5t14.5 -73.5t39.5 -25.5q24 0 39 25.5t15 73.5
q0 47 -15 73t-39 26zM269 232q-25 0 -39.5 -25.5t-14.5 -73.5t14.5 -73.5t39.5 -25.5q24 0 39 25.5t15 73.5q0 47 -15 73t-39 26z" />
    <glyph glyph-name="guilsinglleft" unicode="&#x2039;" 
d="M378 196v-88l-157 123v92l157 123v-88l-105 -81z" />
    <glyph glyph-name="guilsinglright" unicode="&#x203a;" 
d="M221 108v88l105 81l-105 81v88l157 -123v-92z" />
    <glyph glyph-name="interrobang" unicode="&#x203d;" 
d="M334 714v-64q88 -7 134 -53.5t46 -113.5q0 -37 -17 -71t-41.5 -59t-49 -48.5t-41.5 -49.5t-17 -52v-29h-79l-20 320v79q-35 -8 -56.5 -35.5t-25.5 -56.5h-82q5 58 47.5 104.5t116.5 60.5v68h85zM430 481q0 40 -24 67t-72 31v-85l-16 -183q9 10 36 37.5t39.5 42t24.5 40
t12 50.5zM249 0v111h111v-111h-111z" />
    <glyph glyph-name="fraction" unicode="&#x2044;" 
d="M496 709h58l-451 -729h-58z" />
    <glyph glyph-name="zero.superior" unicode="&#x2070;" 
d="M458 634q0 -94 -37.5 -156.5t-120.5 -62.5q-77 0 -118 55.5t-41 163.5q0 107 41 163.5t118 56.5t117.5 -57.5t40.5 -162.5zM390 634q0 79 -23.5 120.5t-66.5 41.5q-90 0 -90 -162q0 -160 90 -160t90 160z" />
    <glyph glyph-name="four.superior" unicode="&#x2074;" 
d="M132 521v60l206 271h64v-273h66v-58h-66v-94h-64v94h-206zM338 579v190h-2l-142 -190h144z" />
    <glyph glyph-name="five.superior" unicode="&#x2075;" 
d="M435 852v-63h-194l-16 -99q34 22 81 22q65 0 109.5 -40t44.5 -104q0 -67 -46.5 -110t-116.5 -43q-62 0 -105.5 33t-51.5 92h68q6 -30 29 -48.5t59 -18.5q46 0 70.5 24.5t24.5 64.5q0 42 -27 67t-71 25q-53 0 -82 -39h-58l35 237h247z" />
    <glyph glyph-name="six.superior" unicode="&#x2076;" 
d="M313 854q52 0 91.5 -30.5t45.5 -81.5h-66q-16 55 -75 55q-52 0 -79 -48t-27 -107l1 -1q40 52 112 52q60 0 102 -36t42 -96q0 -65 -45 -105.5t-111 -40.5q-164 0 -164 211q0 98 42 162.5t131 65.5zM215 556q0 -37 26 -60t65 -23t62 24t23 62q0 36 -24.5 57t-62.5 21
q-40 0 -64.5 -22t-24.5 -59z" />
    <glyph glyph-name="seven.superior" unicode="&#x2077;" 
d="M147 789v63h305v-47q-63 -67 -109 -170q-46 -101 -63 -208h-67q14 98 61 199q49 104 102 163h-229z" />
    <glyph glyph-name="eight.superior" unicode="&#x2078;" 
d="M381 651q79 -32 79 -102q0 -64 -46.5 -99t-113.5 -35t-113.5 36t-46.5 98q0 69 77 102q-63 30 -63 88q0 55 43 85t103 30t102.5 -30t42.5 -85q0 -58 -64 -88zM375 736q0 27 -20 43.5t-55 16.5q-34 0 -55 -16t-21 -44t20.5 -45t55.5 -17q33 0 54 17.5t21 44.5zM300 473
q40 0 65 21.5t25 53.5t-24 51.5t-66 19.5t-66 -19.5t-24 -51.5t24.5 -53.5t65.5 -21.5z" />
    <glyph glyph-name="nine.superior" unicode="&#x2079;" 
d="M287 572q-65 0 -106 37t-41 100q0 65 43 105t110 40q167 0 167 -198q0 -65 -15.5 -116.5t-56 -88t-101.5 -36.5q-57 0 -95.5 30.5t-45.5 83.5h66q12 -56 74 -56q97 0 109 149l-2 2q-35 -52 -106 -52zM299 628q39 0 62.5 22.5t23.5 63.5q0 37 -23.5 59.5t-66.5 22.5
q-38 0 -62.5 -24t-24.5 -62q0 -82 91 -82z" />
    <glyph glyph-name="plus.superior" unicode="&#x207a;" 
d="M275 607v130h50v-130h129v-49h-129v-131h-50v131h-130v49h130z" />
    <glyph glyph-name="minus.superior" unicode="&#x207b;" 
d="M454 607v-49h-309v49h309z" />
    <glyph glyph-name="equal.superior" unicode="&#x207c;" 
d="M454 619h-309v49h309v-49zM454 496h-309v49h309v-49z" />
    <glyph glyph-name="parenleft.superior" unicode="&#x207d;" 
d="M328 861h44q-48 -89 -64 -145t-16 -149q0 -66 19 -123t61 -139h-42q-53 80 -77.5 140t-24.5 137q0 138 100 279z" />
    <glyph glyph-name="parenright.superior" unicode="&#x207e;" 
d="M271 305h-43q48 91 64 146.5t16 147.5q0 45 -11.5 92t-26 80t-42.5 90h41q54 -80 78.5 -140t24.5 -137q0 -139 -101 -279z" />
    <glyph glyph-name="n.superior" unicode="&#x207f;" 
d="M434 639v-212h-63v188q0 41 -14 60.5t-50 19.5q-35 0 -57 -27t-22 -74v-167h-62v310h52v-43h1q39 53 100 53q54 0 84.5 -28t30.5 -80z" />
    <glyph glyph-name="zero.inferior" unicode="&#x2080;" 
d="M458 0q0 -94 -37.5 -156.5t-120.5 -62.5q-77 0 -118 55.5t-41 163.5q0 107 41 163.5t118 56.5t117.5 -57.5t40.5 -162.5zM390 0q0 79 -23.5 120.5t-66.5 41.5q-90 0 -90 -162q0 -160 90 -160t90 160z" />
    <glyph glyph-name="one.inferior" unicode="&#x2081;" 
d="M175 -207v61h113v238h-108v47q64 2 87 18q27 18 36 61h57v-364h99v-61h-284z" />
    <glyph glyph-name="two.inferior" unicode="&#x2082;" 
d="M459 -146v-61h-319q6 114 98 166l94 53q32 19 44.5 37.5t12.5 45.5q0 31 -21.5 49t-62.5 18q-89 0 -91 -93h-59q0 73 41.5 112t116.5 39q60 0 103 -35t43 -93q0 -50 -24 -76.5t-82 -60.5l-59 -30q-56 -29 -79 -71h244z" />
    <glyph glyph-name="three.inferior" unicode="&#x2083;" 
d="M140 -78h67q2 -82 87 -82q44 0 70 18t26 54q0 37 -22 55.5t-73 18.5h-31v50h26q82 0 82 68q0 26 -20 41.5t-59 15.5q-79 0 -81 -80h-61q0 67 39.5 103t111.5 36q59 0 100 -29.5t41 -83.5q0 -64 -59 -88v-2q76 -21 76 -98q0 -66 -47.5 -101.5t-119.5 -35.5q-70 0 -111 35
t-42 105z" />
    <glyph glyph-name="four.inferior" unicode="&#x2084;" 
d="M132 -113v60l206 271h64v-273h66v-58h-66v-94h-64v94h-206zM338 -55v190h-2l-142 -190h144z" />
    <glyph glyph-name="five.inferior" unicode="&#x2085;" 
d="M435 218v-63h-194l-16 -99q34 22 81 22q65 0 109.5 -40t44.5 -104q0 -67 -46.5 -110t-116.5 -43q-62 0 -105.5 33t-51.5 92h68q6 -30 29 -48.5t59 -18.5q46 0 70.5 24.5t24.5 64.5q0 42 -27 67t-71 25q-53 0 -82 -39h-58l35 237h247z" />
    <glyph glyph-name="six.inferior" unicode="&#x2086;" 
d="M313 220q52 0 91.5 -30.5t45.5 -81.5h-66q-16 55 -75 55q-52 0 -79 -48t-27 -107l1 -1q40 52 112 52q60 0 102 -36t42 -96q0 -65 -45 -105.5t-111 -40.5q-164 0 -164 211q0 98 42 162.5t131 65.5zM215 -78q0 -37 26 -60t65 -23t62 24t23 62q0 36 -24.5 57t-62.5 21
q-40 0 -64.5 -22t-24.5 -59z" />
    <glyph glyph-name="seven.inferior" unicode="&#x2087;" 
d="M147 155v63h305v-47q-63 -67 -109 -170q-46 -101 -63 -208h-67q14 98 61 199q49 104 102 163h-229z" />
    <glyph glyph-name="eight.inferior" unicode="&#x2088;" 
d="M381 17q79 -32 79 -102q0 -64 -46.5 -99t-113.5 -35t-113.5 36t-46.5 98q0 69 77 102q-63 30 -63 88q0 55 43 85t103 30t102.5 -30t42.5 -85q0 -58 -64 -88zM375 102q0 27 -20 43.5t-55 16.5q-34 0 -55 -16t-21 -44t20.5 -45t55.5 -17q33 0 54 17.5t21 44.5zM300 -161
q40 0 65 21.5t25 53.5t-24 51.5t-66 19.5t-66 -19.5t-24 -51.5t24.5 -53.5t65.5 -21.5z" />
    <glyph glyph-name="nine.inferior" unicode="&#x2089;" 
d="M287 -62q-65 0 -106 37t-41 100q0 65 43 105t110 40q167 0 167 -198q0 -65 -15.5 -116.5t-56 -88t-101.5 -36.5q-57 0 -95.5 30.5t-45.5 83.5h66q12 -56 74 -56q97 0 109 149l-2 2q-35 -52 -106 -52zM299 -6q39 0 62.5 22.5t23.5 63.5q0 37 -23.5 59.5t-66.5 22.5
q-38 0 -62.5 -24t-24.5 -62q0 -82 91 -82z" />
    <glyph glyph-name="plus.inferior" unicode="&#x208a;" 
d="M275 -26v129h50v-129h129v-50h-129v-131h-50v131h-130v50h130z" />
    <glyph glyph-name="minus.inferior" unicode="&#x208b;" 
d="M454 -27v-49h-309v49h309z" />
    <glyph glyph-name="equal.inferior" unicode="&#x208c;" 
d="M454 -15h-309v50h309v-50zM454 -138h-309v50h309v-50z" />
    <glyph glyph-name="parenleft.inferior" unicode="&#x208d;" 
d="M328 228h44q-48 -91 -64 -146.5t-16 -147.5q0 -46 12 -93.5t25.5 -78t42.5 -91.5h-42q-53 80 -77.5 140t-24.5 137q0 139 100 280z" />
    <glyph glyph-name="parenright.inferior" unicode="&#x208e;" 
d="M271 -329h-43q47 91 63.5 147t16.5 147q0 66 -19 121.5t-61 141.5h41q54 -83 78.5 -142.5t24.5 -134.5q0 -138 -101 -280z" />
    <glyph glyph-name="Euro" unicode="&#x20ac;" 
d="M453 447l-10 -53h-243q-3 -33 -1 -74h230l-10 -53h-216q10 -97 47.5 -149.5t98.5 -52.5q47 0 78.5 32.5t42.5 89.5h84q-9 -89 -67 -145t-148 -56q-70 0 -121.5 42t-77 103.5t-32.5 135.5h-62l10 53h49q0 53 2 74h-61l10 53h57q16 115 76.5 193t165.5 78q86 0 137.5 -52.5
t59.5 -139.5h-85q-18 112 -124 112q-110 0 -138 -191h248z" />
    <glyph glyph-name="afii61248" unicode="&#x2105;" 
d="M496 709h58l-451 -729h-58zM294 609h-50q-15 66 -79 66q-47 0 -69 -33.5t-22 -83.5q0 -118 90 -118q30 0 52.5 21.5t27.5 51.5h50q-9 -57 -43 -87.5t-88 -30.5q-67 0 -105.5 44t-38.5 111q0 76 39 123.5t115 47.5q52 0 84.5 -30.5t36.5 -81.5zM320 154q0 68 38 115.5
t104 47.5t105 -47.5t39 -115.5t-38.5 -115.5t-105.5 -47.5q-66 0 -104 47.5t-38 115.5zM373 154q0 -49 22 -83t67 -34t67.5 34.5t22.5 82.5q0 49 -22.5 83.5t-67.5 34.5q-44 0 -66.5 -34.5t-22.5 -83.5z" />
    <glyph glyph-name="afii61289" unicode="&#x2113;" 
d="M471 153l45 -40q-67 -127 -186 -127q-79 0 -119.5 49.5t-44.5 126.5q-2 -2 -9.5 -8t-11.5 -9q-16 -14 -28 -23l-30 55q27 22 32 26q23 18 46 39v252q0 122 44.5 178t109.5 56q61 0 93 -45.5t32 -115.5q0 -155 -192 -344v-30q1 -67 27.5 -100t66.5 -33q38 0 70.5 27.5
t54.5 65.5zM252 498v-181q127 145 127 249q0 92 -59 92q-27 0 -47.5 -38.5t-20.5 -121.5z" />
    <glyph glyph-name="afii61352" unicode="&#x2116;" 
d="M235 210v508h75v-718h-95l-107 488h-2v-488h-81v718h95l112 -508h3zM343 375q0 84 30 142.5t93 58.5q60 0 90.5 -59.5t30.5 -141.5q0 -83 -31 -143t-90 -60q-43 0 -71.5 31t-40 75t-11.5 97zM424 374q0 -45 10.5 -88t31.5 -43q41 0 41 131q0 46 -10 88.5t-31 42.5
q-42 0 -42 -131zM352 25v71h227v-71h-227z" />
    <glyph glyph-name="published" unicode="&#x2117;" 
d="M301 -19q-144 0 -222.5 96.5t-78.5 282.5t78.5 281.5t222.5 95.5q140 0 219.5 -96.5t79.5 -280.5q0 -182 -80 -280.5t-219 -98.5zM76 360q0 -162 59.5 -239t165.5 -77q102 0 162.5 78t60.5 238q0 161 -60 237.5t-163 76.5q-105 0 -165 -76.5t-60 -237.5zM251 325v-184
h-66v436h125q150 0 150 -126q0 -58 -38 -92t-112 -34h-59zM251 381h46q49 0 71.5 16t22.5 58q0 66 -95 66h-45v-140z" />
    <glyph glyph-name="trademark" unicode="&#x2122;" 
d="M354 718l63 -304l63 304h105v-412h-69v335h-1l-75 -335h-47l-74 335h-2v-335h-68v412h105zM228 718v-60h-72v-352h-69v352h-72v60h213z" />
    <glyph glyph-name="Omega" unicode="&#x2126;" 
d="M566 86v-86h-242v78q136 122 136 314q0 111 -44 185t-115 74q-74 0 -118 -73.5t-44 -185.5q0 -197 138 -314v-78h-243v86h131v4q-123 114 -123 311q0 146 73.5 241t185.5 95q111 0 184 -95t73 -241q0 -193 -124 -311v-4h132z" />
    <glyph glyph-name="estimated" unicode="&#x212e;" 
d="M564 263h-413v-185q60 -60 148 -60q64 0 111 29t87 94l35 -22q-47 -74 -100 -106t-133 -32q-118 0 -191 81t-73 201q0 122 72.5 202.5t191.5 80.5q118 0 191.5 -79t73.5 -204zM151 300h298v149q-64 61 -151 61q-86 0 -147 -61v-149z" />
    <glyph glyph-name="onethird" unicode="&#x2153;" 
d="M437 159v50q15 -2 29 -2q63 0 63 51q0 22 -17.5 35.5t-43.5 13.5q-62 0 -64 -75h-56q0 61 31 93t91 32q50 0 83.5 -25.5t33.5 -70.5q0 -51 -37 -72q51 -22 51 -82q0 -55 -38 -86t-98 -31q-119 0 -126 127h58q1 -76 71 -76q31 0 52 16.5t21 44.5q0 57 -78 57h-26zM163 703
v-305h78v-52h-223v52h85v193h-83v46q47 1 68 13q18 10 29 53h46zM496 709h58l-451 -729h-58z" />
    <glyph glyph-name="twothirds" unicode="&#x2154;" 
d="M437 159v50q15 -2 29 -2q63 0 63 51q0 22 -17.5 35.5t-43.5 13.5q-62 0 -64 -75h-56q0 61 31 93t91 32q50 0 83.5 -25.5t33.5 -70.5q0 -51 -37 -72q51 -22 51 -82q0 -55 -38 -86t-98 -31q-119 0 -126 127h58q1 -76 71 -76q31 0 52 16.5t21 44.5q0 57 -78 57h-26zM67 567
h-57q-1 65 33 100.5t97 35.5q51 0 85 -30t34 -79q0 -69 -75 -107l-62 -33q-47 -26 -57 -56h194v-52h-258q2 55 21.5 88t65.5 59l65 37q26 15 36 28t10 38t-19 41t-46 16q-34 0 -50.5 -24t-16.5 -62zM496 709h58l-451 -729h-58z" />
    <glyph glyph-name="oneeighth" unicode="&#x215b;" 
d="M585 262q0 -50 -38 -71q51 -27 51 -86q0 -54 -35.5 -84.5t-91.5 -30.5q-58 0 -94 30t-36 86q0 54 51 83q-38 23 -38 68q0 46 32 73t82 27t83 -25t34 -70zM469 211q25 0 41.5 13.5t16.5 36.5q0 22 -17.5 34t-43.5 12q-24 0 -39 -13.5t-15 -34.5q0 -22 17 -35t40 -13z
M469 162q-29 0 -48.5 -16t-19.5 -42q0 -30 19.5 -46.5t51.5 -16.5q29 0 47.5 17.5t18.5 45.5q0 26 -19.5 42t-49.5 16zM163 703v-305h78v-52h-223v52h85v193h-83v46q47 1 68 13q18 10 29 53h46zM496 709h58l-451 -729h-58z" />
    <glyph glyph-name="threeeighths" unicode="&#x215c;" 
d="M585 262q0 -50 -38 -71q51 -27 51 -86q0 -54 -35.5 -84.5t-91.5 -30.5q-58 0 -94 30t-36 86q0 54 51 83q-38 23 -38 68q0 46 32 73t82 27t83 -25t34 -70zM469 211q25 0 41.5 13.5t16.5 36.5q0 22 -17.5 34t-43.5 12q-24 0 -39 -13.5t-15 -34.5q0 -22 17 -35t40 -13z
M469 162q-29 0 -48.5 -16t-19.5 -42q0 -30 19.5 -46.5t51.5 -16.5q29 0 47.5 17.5t18.5 45.5q0 26 -19.5 42t-49.5 16zM97 505v50q15 -2 29 -2q63 0 63 51q0 22 -17.5 35.5t-43.5 13.5q-62 0 -64 -75h-56q0 61 31 93t91 32q50 0 83.5 -25.5t33.5 -70.5q0 -51 -37 -72
q51 -22 51 -82q0 -55 -38 -86t-98 -31q-119 0 -126 127h58q1 -76 71 -76q31 0 52 16.5t21 44.5q0 57 -78 57h-26zM496 709h58l-451 -729h-58z" />
    <glyph glyph-name="fiveeighths" unicode="&#x215d;" 
d="M585 262q0 -50 -38 -71q51 -27 51 -86q0 -54 -35.5 -84.5t-91.5 -30.5q-58 0 -94 30t-36 86q0 54 51 83q-38 23 -38 68q0 46 32 73t82 27t83 -25t34 -70zM469 211q25 0 41.5 13.5t16.5 36.5q0 22 -17.5 34t-43.5 12q-24 0 -39 -13.5t-15 -34.5q0 -22 17 -35t40 -13z
M469 162q-29 0 -48.5 -16t-19.5 -42q0 -30 19.5 -46.5t51.5 -16.5q29 0 47.5 17.5t18.5 45.5q0 26 -19.5 42t-49.5 16zM86 642l-13 -77q29 15 62 15q52 0 88 -33t36 -83q0 -59 -36 -93.5t-98 -34.5q-55 0 -87.5 28t-37.5 79h58q8 -58 71 -58q31 0 50.5 21t19.5 52
q0 32 -20.5 52t-53.5 20q-37 0 -62 -34l-50 2l29 197h197v-53h-153zM496 709h58l-451 -729h-58z" />
    <glyph glyph-name="seveneighths" unicode="&#x215e;" 
d="M585 262q0 -50 -38 -71q51 -27 51 -86q0 -54 -35.5 -84.5t-91.5 -30.5q-58 0 -94 30t-36 86q0 54 51 83q-38 23 -38 68q0 46 32 73t82 27t83 -25t34 -70zM469 211q25 0 41.5 13.5t16.5 36.5q0 22 -17.5 34t-43.5 12q-24 0 -39 -13.5t-15 -34.5q0 -22 17 -35t40 -13z
M469 162q-29 0 -48.5 -16t-19.5 -42q0 -30 19.5 -46.5t51.5 -16.5q29 0 47.5 17.5t18.5 45.5q0 26 -19.5 42t-49.5 16zM10 642v54h260v-46q-54 -54 -95 -137q-42 -85 -54 -167h-61q10 77 51 158q39 77 90 138h-191zM496 709h58l-451 -729h-58z" />
    <glyph glyph-name="partialdiff" unicode="&#x2202;" 
d="M141 575l-51 62q29 21 47.5 32t54 22.5t73.5 11.5q149 0 225 -134q47 -84 47 -221q0 -35 -3 -68.5t-11.5 -78t-26.5 -80.5t-44.5 -68.5t-70 -50.5t-99.5 -18t-100 21t-69 56t-37.5 73.5t-12.5 78.5q0 94 59.5 157.5t156.5 63.5q102 0 156 -67q4 247 -164 260
q-40 0 -75 -16t-55 -36zM295 355q-72 0 -104 -43t-32 -104q0 -76 35.5 -111t92.5 -35q76 0 112.5 66.5t34.5 163.5q-21 22 -58.5 42.5t-80.5 20.5z" />
    <glyph glyph-name="Delta" unicode="&#x2206;" 
d="M575 0h-550l231 718h98zM300 588l-143 -502h280l-135 502h-2z" />
    <glyph glyph-name="product" unicode="&#x220f;" 
d="M12 -207v894h577v-894h-97v809h-383v-809h-97z" />
    <glyph glyph-name="summation" unicode="&#x2211;" 
d="M591 -208h-581v77l347 383l-334 359v76h552v-85h-413l320 -345v-4l-339 -375h448v-86z" />
    <glyph glyph-name="minus" unicode="&#x2212;" 
d="M553 289v-73h-506v73h506z" />
    <glyph glyph-name="uni2215" unicode="&#x2215;" 
d="M496 709h58l-451 -729h-58z" />
    <glyph glyph-name="uni2219" unicode="&#x2219;" 
d="M352 326v-106h-104v106h104z" />
    <glyph glyph-name="radical" unicode="&#x221a;" 
d="M76 312l-23 63l138 53l118 -311l167 718h71l-194 -841h-75l-131 344z" />
    <glyph glyph-name="infinity" unicode="&#x221e;" 
d="M154 427q10 0 20.5 -2t18.5 -4t17.5 -7.5t15.5 -8.5t15.5 -11t13.5 -11t13 -13t11 -12t11.5 -13t10.5 -12q23 29 40 46t46.5 33t60.5 16q59 0 105.5 -44t46.5 -127q0 -75 -42.5 -123.5t-110.5 -48.5q-75 0 -146 88q-27 -29 -42.5 -43.5t-44 -29t-57.5 -14.5
q-69 0 -113 47t-44 124q0 80 45.5 125t108.5 45zM445 338q-47 0 -99 -84q49 -79 101 -79q22 0 44 19t22 61q0 40 -21 61.5t-47 21.5zM153 337q-26 0 -46 -22t-20 -60t19 -58.5t50 -20.5q25 0 54 26t45 52q-24 38 -53 60.5t-49 22.5z" />
    <glyph glyph-name="integral" unicode="&#x222b;" 
d="M468 729l-13 -76q-16 6 -34 6q-41 0 -59 -40t-18 -145q0 -66 7 -190t7 -259q0 -134 -45.5 -189t-115.5 -55q-43 0 -66 10l15 78q18 -7 38 -7q78 0 78 175q0 92 -7 226.5t-7 207.5q0 140 41 203t125 63q32 0 54 -8z" />
    <glyph glyph-name="approxequal" unicode="&#x2248;" 
d="M526 424l40 -57q-48 -90 -143 -90q-51 0 -123 33q-8 4 -27 12.5t-26 11.5t-21 8t-26.5 6.5t-27.5 1.5q-64 0 -98 -75l-41 57q49 90 143 90q48 0 123 -33q9 -4 27.5 -12.5t26 -11.5t21 -7.5t26 -6t28.5 -1.5q60 0 98 74zM526 222l40 -57q-48 -90 -143 -90q-51 0 -123 33
q-8 4 -27 12.5t-26 11.5t-21 8t-26.5 6.5t-27.5 1.5q-64 0 -98 -75l-41 57q49 90 143 90q48 0 123 -33q9 -4 27.5 -12.5t26 -11.5t21 -7.5t26 -6t28.5 -1.5q60 0 98 74z" />
    <glyph glyph-name="notequal" unicode="&#x2260;" 
d="M553 115h-254l-35 -132l-66 17l30 115h-181v73h200l34 129h-234v73h253l35 133l67 -18l-31 -115h182v-73h-201l-33 -129h234v-73z" />
    <glyph glyph-name="lessequal" unicode="&#x2264;" 
d="M553 189v-80l-506 207v70l506 207v-80l-408 -162zM553 73v-73h-506v73h506z" />
    <glyph glyph-name="greaterequal" unicode="&#x2265;" 
d="M47 109v80l408 162l-408 162v80l506 -207v-70zM553 73v-73h-506v73h506z" />
    <glyph glyph-name="lozenge" unicode="&#x25ca;" 
d="M301 697l291 -457l-291 -457l-292 457zM510 240l-209 345l-211 -345l211 -345z" />
    <glyph glyph-name="f_i" unicode="&#xf001;" 
d="M394 450h-148v-450h-88v450h-142v73h142v50q0 155 176 155q42 0 60 -2v-79q-34 2 -56 2q-52 0 -72 -23t-20 -78v-25h148v-73zM514 618h-88v100h88v-100zM426 523h88v-523h-88v523z" />
    <glyph glyph-name="f_l" unicode="&#xf002;" 
d="M394 450h-148v-450h-88v450h-142v73h142v50q0 155 176 155q42 0 60 -2v-79q-34 2 -56 2q-52 0 -72 -23t-20 -78v-25h148v-73zM426 718h88v-718h-88v718z" />
    <glyph glyph-name="uniF8FF" unicode="&#xf8ff;" 
d="M44 718h512v-718h-512v718zM93 49h414v618h-414v-618zM315 234h-48v17q0 56 14 80q14 31 46 59q29 29 38.5 46.5t9.5 37.5q0 35 -22.5 59.5t-53.5 24.5q-70 0 -81 -94l-50 8q7 69 43 103.5t92 34.5q55 0 90 -36.5t35 -95.5q0 -34 -13 -60t-51 -60q-36 -32 -44 -52
q-5 -23 -5 -72zM322 117h-56v67h56v-67z" />
    <glyph glyph-name="grave.cap" 
d="M281 783l-109 141h104l72 -141h-67z" />
    <glyph glyph-name="acute.cap" 
d="M428 924l-110 -141h-66l71 141h105z" />
    <glyph glyph-name="circumflex.cap" 
d="M299 876l-66 -93h-79l99 141h93l99 -141h-80z" />
    <glyph glyph-name="caron.cap" 
d="M233 924l66 -93l66 93h80l-99 -141h-93l-99 141h79z" />
    <glyph glyph-name="caron.alt" 
d="M254 535v35q49 10 49 55v6h-43v87h86v-87q0 -43 -24.5 -68.5t-67.5 -27.5z" />
    <glyph glyph-name="tilde.cap" 
d="M421 912h49q-6 -51 -33 -80t-67 -29q-28 0 -80 18.5t-66 18.5q-36 0 -47 -44h-48q15 107 104 107q30 0 73.5 -18.5t65.5 -18.5q42 0 49 46z" />
    <glyph glyph-name="dieresis.cap" 
d="M426 908v-102h-90v102h90zM264 908v-102h-90v102h90z" />
    <glyph glyph-name="macron.cap" 
d="M457 869v-57h-314v57h314z" />
    <glyph glyph-name="breve.cap" 
d="M149 921h49q16 -79 102 -79t102 79h49q-8 -136 -151 -136t-151 136z" />
    <glyph glyph-name="ring.cap" 
d="M300 946q40 0 66 -26.5t26 -65.5t-26 -65.5t-66 -26.5t-66 26t-26 66q0 38 26 65t66 27zM248 854q0 -22 15 -37t37 -15q21 0 36.5 15t15.5 37t-15.5 37t-36.5 15q-22 0 -37 -15t-15 -37z" />
    <glyph glyph-name="hungarumlaut.cap" 
d="M375 783h-48l52 141h90zM239 783h-49l53 141h90z" />
    <glyph glyph-name="dotaccent.cap" 
d="M344 808h-88v100h88v-100z" />
    <glyph glyph-name="commaaccent" 
d="M254 -235v34q49 10 49 55v6h-43v87h86v-87q0 -42 -24.5 -67.5t-67.5 -27.5z" />
    <glyph glyph-name="commaaccent.alt" 
d="M346 769v-35q-49 -9 -49 -56v-5h43v-87h-86v87q0 43 24.5 69t67.5 27z" />
    <glyph glyph-name="tonos.cap" 
d="M367 718l-71 -159h-64l28 159h107z" />
  </font>
</defs>
</svg>
